G04 #@! TF.GenerationSoftware,KiCad,Pcbnew,(6.0.8)*
G04 #@! TF.CreationDate,2023-01-17T04:08:54-05:00*
G04 #@! TF.ProjectId,DMG-KGDU-10+,444d472d-4b47-4445-952d-31302b2e6b69,rev?*
G04 #@! TF.SameCoordinates,Original*
G04 #@! TF.FileFunction,AssemblyDrawing,Bot*
%FSLAX46Y46*%
G04 Gerber Fmt 4.6, Leading zero omitted, Abs format (unit mm)*
G04 Created by KiCad (PCBNEW (6.0.8)) date 2023-01-17 04:08:54*
%MOMM*%
%LPD*%
G01*
G04 APERTURE LIST*
%ADD10C,0.150000*%
G04 APERTURE END LIST*
D10*
X153342000Y-73715052D02*
X153294380Y-73619814D01*
X153294380Y-73476957D01*
X153342000Y-73334100D01*
X153437238Y-73238861D01*
X153532476Y-73191242D01*
X153722952Y-73143623D01*
X153865809Y-73143623D01*
X154056285Y-73191242D01*
X154151523Y-73238861D01*
X154246761Y-73334100D01*
X154294380Y-73476957D01*
X154294380Y-73572195D01*
X154246761Y-73715052D01*
X154199142Y-73762671D01*
X153865809Y-73762671D01*
X153865809Y-73572195D01*
X153770571Y-74524576D02*
X153818190Y-74667433D01*
X153865809Y-74715052D01*
X153961047Y-74762671D01*
X154103904Y-74762671D01*
X154199142Y-74715052D01*
X154246761Y-74667433D01*
X154294380Y-74572195D01*
X154294380Y-74191242D01*
X153294380Y-74191242D01*
X153294380Y-74524576D01*
X153342000Y-74619814D01*
X153389619Y-74667433D01*
X153484857Y-74715052D01*
X153580095Y-74715052D01*
X153675333Y-74667433D01*
X153722952Y-74619814D01*
X153770571Y-74524576D01*
X153770571Y-74191242D01*
X154008666Y-75143623D02*
X154008666Y-75619814D01*
X154294380Y-75048385D02*
X153294380Y-75381719D01*
X154294380Y-75715052D01*
X153913428Y-76048385D02*
X153913428Y-76810290D01*
X154294380Y-77286480D02*
X153294380Y-77286480D01*
X153294380Y-77667433D01*
X153342000Y-77762671D01*
X153389619Y-77810290D01*
X153484857Y-77857909D01*
X153627714Y-77857909D01*
X153722952Y-77810290D01*
X153770571Y-77762671D01*
X153818190Y-77667433D01*
X153818190Y-77286480D01*
X154294380Y-78286480D02*
X153627714Y-78286480D01*
X153818190Y-78286480D02*
X153722952Y-78334100D01*
X153675333Y-78381719D01*
X153627714Y-78476957D01*
X153627714Y-78572195D01*
X154294380Y-79048385D02*
X154246761Y-78953147D01*
X154199142Y-78905528D01*
X154103904Y-78857909D01*
X153818190Y-78857909D01*
X153722952Y-78905528D01*
X153675333Y-78953147D01*
X153627714Y-79048385D01*
X153627714Y-79191242D01*
X153675333Y-79286480D01*
X153722952Y-79334100D01*
X153818190Y-79381719D01*
X154103904Y-79381719D01*
X154199142Y-79334100D01*
X154246761Y-79286480D01*
X154294380Y-79191242D01*
X154294380Y-79048385D01*
X154294380Y-80238861D02*
X153294380Y-80238861D01*
X154246761Y-80238861D02*
X154294380Y-80143623D01*
X154294380Y-79953147D01*
X154246761Y-79857909D01*
X154199142Y-79810290D01*
X154103904Y-79762671D01*
X153818190Y-79762671D01*
X153722952Y-79810290D01*
X153675333Y-79857909D01*
X153627714Y-79953147D01*
X153627714Y-80143623D01*
X153675333Y-80238861D01*
X153627714Y-81143623D02*
X154294380Y-81143623D01*
X153627714Y-80715052D02*
X154151523Y-80715052D01*
X154246761Y-80762671D01*
X154294380Y-80857909D01*
X154294380Y-81000766D01*
X154246761Y-81096004D01*
X154199142Y-81143623D01*
X154246761Y-82048385D02*
X154294380Y-81953147D01*
X154294380Y-81762671D01*
X154246761Y-81667433D01*
X154199142Y-81619814D01*
X154103904Y-81572195D01*
X153818190Y-81572195D01*
X153722952Y-81619814D01*
X153675333Y-81667433D01*
X153627714Y-81762671D01*
X153627714Y-81953147D01*
X153675333Y-82048385D01*
X153627714Y-82334100D02*
X153627714Y-82715052D01*
X153294380Y-82476957D02*
X154151523Y-82476957D01*
X154246761Y-82524576D01*
X154294380Y-82619814D01*
X154294380Y-82715052D01*
X154294380Y-83048385D02*
X153627714Y-83048385D01*
X153294380Y-83048385D02*
X153342000Y-83000766D01*
X153389619Y-83048385D01*
X153342000Y-83096004D01*
X153294380Y-83048385D01*
X153389619Y-83048385D01*
X154294380Y-83667433D02*
X154246761Y-83572195D01*
X154199142Y-83524576D01*
X154103904Y-83476957D01*
X153818190Y-83476957D01*
X153722952Y-83524576D01*
X153675333Y-83572195D01*
X153627714Y-83667433D01*
X153627714Y-83810290D01*
X153675333Y-83905528D01*
X153722952Y-83953147D01*
X153818190Y-84000766D01*
X154103904Y-84000766D01*
X154199142Y-83953147D01*
X154246761Y-83905528D01*
X154294380Y-83810290D01*
X154294380Y-83667433D01*
X153627714Y-84429338D02*
X154294380Y-84429338D01*
X153722952Y-84429338D02*
X153675333Y-84476957D01*
X153627714Y-84572195D01*
X153627714Y-84715052D01*
X153675333Y-84810290D01*
X153770571Y-84857909D01*
X154294380Y-84857909D01*
X154294380Y-85334100D02*
X153294380Y-85334100D01*
X153627714Y-85810290D02*
X154294380Y-85810290D01*
X153722952Y-85810290D02*
X153675333Y-85857909D01*
X153627714Y-85953147D01*
X153627714Y-86096004D01*
X153675333Y-86191242D01*
X153770571Y-86238861D01*
X154294380Y-86238861D01*
X154294380Y-87143623D02*
X153294380Y-87143623D01*
X154246761Y-87143623D02*
X154294380Y-87048385D01*
X154294380Y-86857909D01*
X154246761Y-86762671D01*
X154199142Y-86715052D01*
X154103904Y-86667433D01*
X153818190Y-86667433D01*
X153722952Y-86715052D01*
X153675333Y-86762671D01*
X153627714Y-86857909D01*
X153627714Y-87048385D01*
X153675333Y-87143623D01*
X154294380Y-87619814D02*
X153627714Y-87619814D01*
X153294380Y-87619814D02*
X153342000Y-87572195D01*
X153389619Y-87619814D01*
X153342000Y-87667433D01*
X153294380Y-87619814D01*
X153389619Y-87619814D01*
X154246761Y-88524576D02*
X154294380Y-88429338D01*
X154294380Y-88238861D01*
X154246761Y-88143623D01*
X154199142Y-88096004D01*
X154103904Y-88048385D01*
X153818190Y-88048385D01*
X153722952Y-88096004D01*
X153675333Y-88143623D01*
X153627714Y-88238861D01*
X153627714Y-88429338D01*
X153675333Y-88524576D01*
X154294380Y-89381719D02*
X153770571Y-89381719D01*
X153675333Y-89334100D01*
X153627714Y-89238861D01*
X153627714Y-89048385D01*
X153675333Y-88953147D01*
X154246761Y-89381719D02*
X154294380Y-89286480D01*
X154294380Y-89048385D01*
X154246761Y-88953147D01*
X154151523Y-88905528D01*
X154056285Y-88905528D01*
X153961047Y-88953147D01*
X153913428Y-89048385D01*
X153913428Y-89286480D01*
X153865809Y-89381719D01*
X153627714Y-89715052D02*
X153627714Y-90096004D01*
X153294380Y-89857909D02*
X154151523Y-89857909D01*
X154246761Y-89905528D01*
X154294380Y-90000766D01*
X154294380Y-90096004D01*
X154294380Y-90572195D02*
X154246761Y-90476957D01*
X154199142Y-90429338D01*
X154103904Y-90381719D01*
X153818190Y-90381719D01*
X153722952Y-90429338D01*
X153675333Y-90476957D01*
X153627714Y-90572195D01*
X153627714Y-90715052D01*
X153675333Y-90810290D01*
X153722952Y-90857909D01*
X153818190Y-90905528D01*
X154103904Y-90905528D01*
X154199142Y-90857909D01*
X154246761Y-90810290D01*
X154294380Y-90715052D01*
X154294380Y-90572195D01*
X154294380Y-91334100D02*
X153627714Y-91334100D01*
X153818190Y-91334100D02*
X153722952Y-91381719D01*
X153675333Y-91429338D01*
X153627714Y-91524576D01*
X153627714Y-91619814D01*
X117771380Y-90992476D02*
X117295190Y-90659142D01*
X117771380Y-90421047D02*
X116771380Y-90421047D01*
X116771380Y-90802000D01*
X116819000Y-90897238D01*
X116866619Y-90944857D01*
X116961857Y-90992476D01*
X117104714Y-90992476D01*
X117199952Y-90944857D01*
X117247571Y-90897238D01*
X117295190Y-90802000D01*
X117295190Y-90421047D01*
X116771380Y-91278190D02*
X116771380Y-91849619D01*
X117771380Y-91563904D02*
X116771380Y-91563904D01*
X117676142Y-92754380D02*
X117723761Y-92706761D01*
X117771380Y-92563904D01*
X117771380Y-92468666D01*
X117723761Y-92325809D01*
X117628523Y-92230571D01*
X117533285Y-92182952D01*
X117342809Y-92135333D01*
X117199952Y-92135333D01*
X117009476Y-92182952D01*
X116914238Y-92230571D01*
X116819000Y-92325809D01*
X116771380Y-92468666D01*
X116771380Y-92563904D01*
X116819000Y-92706761D01*
X116866619Y-92754380D01*
X117866619Y-92944857D02*
X117866619Y-93706761D01*
X116771380Y-93802000D02*
X117771380Y-94135333D01*
X116771380Y-94468666D01*
X116771380Y-94992476D02*
X116771380Y-95182952D01*
X116819000Y-95278190D01*
X116914238Y-95373428D01*
X117104714Y-95421047D01*
X117438047Y-95421047D01*
X117628523Y-95373428D01*
X117723761Y-95278190D01*
X117771380Y-95182952D01*
X117771380Y-94992476D01*
X117723761Y-94897238D01*
X117628523Y-94802000D01*
X117438047Y-94754380D01*
X117104714Y-94754380D01*
X116914238Y-94802000D01*
X116819000Y-94897238D01*
X116771380Y-94992476D01*
X116771380Y-95849619D02*
X117580904Y-95849619D01*
X117676142Y-95897238D01*
X117723761Y-95944857D01*
X117771380Y-96040095D01*
X117771380Y-96230571D01*
X117723761Y-96325809D01*
X117676142Y-96373428D01*
X117580904Y-96421047D01*
X116771380Y-96421047D01*
X116771380Y-96754380D02*
X116771380Y-97325809D01*
X117771380Y-97040095D02*
X116771380Y-97040095D01*
X117247571Y-88897238D02*
X117295190Y-89040095D01*
X117342809Y-89087714D01*
X117438047Y-89135333D01*
X117580904Y-89135333D01*
X117676142Y-89087714D01*
X117723761Y-89040095D01*
X117771380Y-88944857D01*
X117771380Y-88563904D01*
X116771380Y-88563904D01*
X116771380Y-88897238D01*
X116819000Y-88992476D01*
X116866619Y-89040095D01*
X116961857Y-89087714D01*
X117057095Y-89087714D01*
X117152333Y-89040095D01*
X117199952Y-88992476D01*
X117247571Y-88897238D01*
X117247571Y-88563904D01*
X117771380Y-89992476D02*
X117247571Y-89992476D01*
X117152333Y-89944857D01*
X117104714Y-89849619D01*
X117104714Y-89659142D01*
X117152333Y-89563904D01*
X117723761Y-89992476D02*
X117771380Y-89897238D01*
X117771380Y-89659142D01*
X117723761Y-89563904D01*
X117628523Y-89516285D01*
X117533285Y-89516285D01*
X117438047Y-89563904D01*
X117390428Y-89659142D01*
X117390428Y-89897238D01*
X117342809Y-89992476D01*
X117104714Y-90325809D02*
X117104714Y-90706761D01*
X116771380Y-90468666D02*
X117628523Y-90468666D01*
X117723761Y-90516285D01*
X117771380Y-90611523D01*
X117771380Y-90706761D01*
X117104714Y-90897238D02*
X117104714Y-91278190D01*
X116771380Y-91040095D02*
X117628523Y-91040095D01*
X117723761Y-91087714D01*
X117771380Y-91182952D01*
X117771380Y-91278190D01*
X117723761Y-91992476D02*
X117771380Y-91897238D01*
X117771380Y-91706761D01*
X117723761Y-91611523D01*
X117628523Y-91563904D01*
X117247571Y-91563904D01*
X117152333Y-91611523D01*
X117104714Y-91706761D01*
X117104714Y-91897238D01*
X117152333Y-91992476D01*
X117247571Y-92040095D01*
X117342809Y-92040095D01*
X117438047Y-91563904D01*
X117771380Y-92468666D02*
X117104714Y-92468666D01*
X117295190Y-92468666D02*
X117199952Y-92516285D01*
X117152333Y-92563904D01*
X117104714Y-92659142D01*
X117104714Y-92754380D01*
X117104714Y-92992476D02*
X117771380Y-93230571D01*
X117104714Y-93468666D02*
X117771380Y-93230571D01*
X118009476Y-93135333D01*
X118057095Y-93087714D01*
X118104714Y-92992476D01*
X117866619Y-93611523D02*
X117866619Y-94373428D01*
X117771380Y-94611523D02*
X116771380Y-94611523D01*
X116771380Y-94992476D01*
X116819000Y-95087714D01*
X116866619Y-95135333D01*
X116961857Y-95182952D01*
X117104714Y-95182952D01*
X117199952Y-95135333D01*
X117247571Y-95087714D01*
X117295190Y-94992476D01*
X117295190Y-94611523D01*
X117771380Y-95754380D02*
X117723761Y-95659142D01*
X117676142Y-95611523D01*
X117580904Y-95563904D01*
X117295190Y-95563904D01*
X117199952Y-95611523D01*
X117152333Y-95659142D01*
X117104714Y-95754380D01*
X117104714Y-95897238D01*
X117152333Y-95992476D01*
X117199952Y-96040095D01*
X117295190Y-96087714D01*
X117580904Y-96087714D01*
X117676142Y-96040095D01*
X117723761Y-95992476D01*
X117771380Y-95897238D01*
X117771380Y-95754380D01*
X117723761Y-96468666D02*
X117771380Y-96563904D01*
X117771380Y-96754380D01*
X117723761Y-96849619D01*
X117628523Y-96897238D01*
X117580904Y-96897238D01*
X117485666Y-96849619D01*
X117438047Y-96754380D01*
X117438047Y-96611523D01*
X117390428Y-96516285D01*
X117295190Y-96468666D01*
X117247571Y-96468666D01*
X117152333Y-96516285D01*
X117104714Y-96611523D01*
X117104714Y-96754380D01*
X117152333Y-96849619D01*
X117771380Y-97325809D02*
X117104714Y-97325809D01*
X116771380Y-97325809D02*
X116819000Y-97278190D01*
X116866619Y-97325809D01*
X116819000Y-97373428D01*
X116771380Y-97325809D01*
X116866619Y-97325809D01*
X117104714Y-97659142D02*
X117104714Y-98040095D01*
X116771380Y-97802000D02*
X117628523Y-97802000D01*
X117723761Y-97849619D01*
X117771380Y-97944857D01*
X117771380Y-98040095D01*
X117771380Y-98373428D02*
X117104714Y-98373428D01*
X116771380Y-98373428D02*
X116819000Y-98325809D01*
X116866619Y-98373428D01*
X116819000Y-98421047D01*
X116771380Y-98373428D01*
X116866619Y-98373428D01*
X117104714Y-98754380D02*
X117771380Y-98992476D01*
X117104714Y-99230571D01*
X117723761Y-99992476D02*
X117771380Y-99897238D01*
X117771380Y-99706761D01*
X117723761Y-99611523D01*
X117628523Y-99563904D01*
X117247571Y-99563904D01*
X117152333Y-99611523D01*
X117104714Y-99706761D01*
X117104714Y-99897238D01*
X117152333Y-99992476D01*
X117247571Y-100040095D01*
X117342809Y-100040095D01*
X117438047Y-99563904D01*
X117866619Y-100230571D02*
X117866619Y-100992476D01*
X117485666Y-101182952D02*
X117485666Y-101659142D01*
X117771380Y-101087714D02*
X116771380Y-101421047D01*
X117771380Y-101754380D01*
X117104714Y-101944857D02*
X117104714Y-102325809D01*
X117771380Y-102087714D02*
X116914238Y-102087714D01*
X116819000Y-102135333D01*
X116771380Y-102230571D01*
X116771380Y-102325809D01*
X117104714Y-102516285D02*
X117104714Y-102897238D01*
X116771380Y-102659142D02*
X117628523Y-102659142D01*
X117723761Y-102706761D01*
X117771380Y-102801999D01*
X117771380Y-102897238D01*
X117723761Y-103611523D02*
X117771380Y-103516285D01*
X117771380Y-103325809D01*
X117723761Y-103230571D01*
X117628523Y-103182952D01*
X117247571Y-103182952D01*
X117152333Y-103230571D01*
X117104714Y-103325809D01*
X117104714Y-103516285D01*
X117152333Y-103611523D01*
X117247571Y-103659142D01*
X117342809Y-103659142D01*
X117438047Y-103182952D01*
X117771380Y-104087714D02*
X117104714Y-104087714D01*
X117295190Y-104087714D02*
X117199952Y-104135333D01*
X117152333Y-104182952D01*
X117104714Y-104278190D01*
X117104714Y-104373428D01*
X117866619Y-104468666D02*
X117866619Y-105230571D01*
X117771380Y-106040095D02*
X117295190Y-105706761D01*
X117771380Y-105468666D02*
X116771380Y-105468666D01*
X116771380Y-105849619D01*
X116819000Y-105944857D01*
X116866619Y-105992476D01*
X116961857Y-106040095D01*
X117104714Y-106040095D01*
X117199952Y-105992476D01*
X117247571Y-105944857D01*
X117295190Y-105849619D01*
X117295190Y-105468666D01*
X117723761Y-106849619D02*
X117771380Y-106754380D01*
X117771380Y-106563904D01*
X117723761Y-106468666D01*
X117628523Y-106421047D01*
X117247571Y-106421047D01*
X117152333Y-106468666D01*
X117104714Y-106563904D01*
X117104714Y-106754380D01*
X117152333Y-106849619D01*
X117247571Y-106897238D01*
X117342809Y-106897238D01*
X117438047Y-106421047D01*
X117723761Y-107278190D02*
X117771380Y-107373428D01*
X117771380Y-107563904D01*
X117723761Y-107659142D01*
X117628523Y-107706761D01*
X117580904Y-107706761D01*
X117485666Y-107659142D01*
X117438047Y-107563904D01*
X117438047Y-107421047D01*
X117390428Y-107325809D01*
X117295190Y-107278190D01*
X117247571Y-107278190D01*
X117152333Y-107325809D01*
X117104714Y-107421047D01*
X117104714Y-107563904D01*
X117152333Y-107659142D01*
X117771380Y-108135333D02*
X117104714Y-108135333D01*
X116771380Y-108135333D02*
X116819000Y-108087714D01*
X116866619Y-108135333D01*
X116819000Y-108182952D01*
X116771380Y-108135333D01*
X116866619Y-108135333D01*
X117723761Y-108563904D02*
X117771380Y-108659142D01*
X117771380Y-108849619D01*
X117723761Y-108944857D01*
X117628523Y-108992476D01*
X117580904Y-108992476D01*
X117485666Y-108944857D01*
X117438047Y-108849619D01*
X117438047Y-108706761D01*
X117390428Y-108611523D01*
X117295190Y-108563904D01*
X117247571Y-108563904D01*
X117152333Y-108611523D01*
X117104714Y-108706761D01*
X117104714Y-108849619D01*
X117152333Y-108944857D01*
X117104714Y-109278190D02*
X117104714Y-109659142D01*
X116771380Y-109421047D02*
X117628523Y-109421047D01*
X117723761Y-109468666D01*
X117771380Y-109563904D01*
X117771380Y-109659142D01*
X117771380Y-110135333D02*
X117723761Y-110040095D01*
X117676142Y-109992476D01*
X117580904Y-109944857D01*
X117295190Y-109944857D01*
X117199952Y-109992476D01*
X117152333Y-110040095D01*
X117104714Y-110135333D01*
X117104714Y-110278190D01*
X117152333Y-110373428D01*
X117199952Y-110421047D01*
X117295190Y-110468666D01*
X117580904Y-110468666D01*
X117676142Y-110421047D01*
X117723761Y-110373428D01*
X117771380Y-110278190D01*
X117771380Y-110135333D01*
X117771380Y-110897238D02*
X117104714Y-110897238D01*
X117295190Y-110897238D02*
X117199952Y-110944857D01*
X117152333Y-110992476D01*
X117104714Y-111087714D01*
X117104714Y-111182952D01*
X117247571Y-100421047D02*
X117295190Y-100563904D01*
X117342809Y-100611523D01*
X117438047Y-100659142D01*
X117580904Y-100659142D01*
X117676142Y-100611523D01*
X117723761Y-100563904D01*
X117771380Y-100468666D01*
X117771380Y-100087714D01*
X116771380Y-100087714D01*
X116771380Y-100421047D01*
X116819000Y-100516285D01*
X116866619Y-100563904D01*
X116961857Y-100611523D01*
X117057095Y-100611523D01*
X117152333Y-100563904D01*
X117199952Y-100516285D01*
X117247571Y-100421047D01*
X117247571Y-100087714D01*
X117771380Y-101516285D02*
X117247571Y-101516285D01*
X117152333Y-101468666D01*
X117104714Y-101373428D01*
X117104714Y-101182952D01*
X117152333Y-101087714D01*
X117723761Y-101516285D02*
X117771380Y-101421047D01*
X117771380Y-101182952D01*
X117723761Y-101087714D01*
X117628523Y-101040095D01*
X117533285Y-101040095D01*
X117438047Y-101087714D01*
X117390428Y-101182952D01*
X117390428Y-101421047D01*
X117342809Y-101516285D01*
X117104714Y-101849619D02*
X117104714Y-102230571D01*
X116771380Y-101992476D02*
X117628523Y-101992476D01*
X117723761Y-102040095D01*
X117771380Y-102135333D01*
X117771380Y-102230571D01*
X117104714Y-102421047D02*
X117104714Y-102802000D01*
X116771380Y-102563904D02*
X117628523Y-102563904D01*
X117723761Y-102611523D01*
X117771380Y-102706761D01*
X117771380Y-102802000D01*
X117723761Y-103516285D02*
X117771380Y-103421047D01*
X117771380Y-103230571D01*
X117723761Y-103135333D01*
X117628523Y-103087714D01*
X117247571Y-103087714D01*
X117152333Y-103135333D01*
X117104714Y-103230571D01*
X117104714Y-103421047D01*
X117152333Y-103516285D01*
X117247571Y-103563904D01*
X117342809Y-103563904D01*
X117438047Y-103087714D01*
X117771380Y-103992476D02*
X117104714Y-103992476D01*
X117295190Y-103992476D02*
X117199952Y-104040095D01*
X117152333Y-104087714D01*
X117104714Y-104182952D01*
X117104714Y-104278190D01*
X117104714Y-104516285D02*
X117771380Y-104754380D01*
X117104714Y-104992476D02*
X117771380Y-104754380D01*
X118009476Y-104659142D01*
X118057095Y-104611523D01*
X118104714Y-104516285D01*
X117866619Y-105135333D02*
X117866619Y-105897238D01*
X117771380Y-106135333D02*
X116771380Y-106135333D01*
X116771380Y-106516285D01*
X116819000Y-106611523D01*
X116866619Y-106659142D01*
X116961857Y-106706761D01*
X117104714Y-106706761D01*
X117199952Y-106659142D01*
X117247571Y-106611523D01*
X117295190Y-106516285D01*
X117295190Y-106135333D01*
X117771380Y-107278190D02*
X117723761Y-107182952D01*
X117676142Y-107135333D01*
X117580904Y-107087714D01*
X117295190Y-107087714D01*
X117199952Y-107135333D01*
X117152333Y-107182952D01*
X117104714Y-107278190D01*
X117104714Y-107421047D01*
X117152333Y-107516285D01*
X117199952Y-107563904D01*
X117295190Y-107611523D01*
X117580904Y-107611523D01*
X117676142Y-107563904D01*
X117723761Y-107516285D01*
X117771380Y-107421047D01*
X117771380Y-107278190D01*
X117723761Y-107992476D02*
X117771380Y-108087714D01*
X117771380Y-108278190D01*
X117723761Y-108373428D01*
X117628523Y-108421047D01*
X117580904Y-108421047D01*
X117485666Y-108373428D01*
X117438047Y-108278190D01*
X117438047Y-108135333D01*
X117390428Y-108040095D01*
X117295190Y-107992476D01*
X117247571Y-107992476D01*
X117152333Y-108040095D01*
X117104714Y-108135333D01*
X117104714Y-108278190D01*
X117152333Y-108373428D01*
X117771380Y-108849619D02*
X117104714Y-108849619D01*
X116771380Y-108849619D02*
X116819000Y-108802000D01*
X116866619Y-108849619D01*
X116819000Y-108897238D01*
X116771380Y-108849619D01*
X116866619Y-108849619D01*
X117104714Y-109182952D02*
X117104714Y-109563904D01*
X116771380Y-109325809D02*
X117628523Y-109325809D01*
X117723761Y-109373428D01*
X117771380Y-109468666D01*
X117771380Y-109563904D01*
X117771380Y-109897238D02*
X117104714Y-109897238D01*
X116771380Y-109897238D02*
X116819000Y-109849619D01*
X116866619Y-109897238D01*
X116819000Y-109944857D01*
X116771380Y-109897238D01*
X116866619Y-109897238D01*
X117104714Y-110278190D02*
X117771380Y-110516285D01*
X117104714Y-110754380D01*
X117723761Y-111516285D02*
X117771380Y-111421047D01*
X117771380Y-111230571D01*
X117723761Y-111135333D01*
X117628523Y-111087714D01*
X117247571Y-111087714D01*
X117152333Y-111135333D01*
X117104714Y-111230571D01*
X117104714Y-111421047D01*
X117152333Y-111516285D01*
X117247571Y-111563904D01*
X117342809Y-111563904D01*
X117438047Y-111087714D01*
X116819000Y-109944857D02*
X116771380Y-109849619D01*
X116771380Y-109706761D01*
X116819000Y-109563904D01*
X116914238Y-109468666D01*
X117009476Y-109421047D01*
X117199952Y-109373428D01*
X117342809Y-109373428D01*
X117533285Y-109421047D01*
X117628523Y-109468666D01*
X117723761Y-109563904D01*
X117771380Y-109706761D01*
X117771380Y-109802000D01*
X117723761Y-109944857D01*
X117676142Y-109992476D01*
X117342809Y-109992476D01*
X117342809Y-109802000D01*
X117771380Y-110421047D02*
X117104714Y-110421047D01*
X117295190Y-110421047D02*
X117199952Y-110468666D01*
X117152333Y-110516285D01*
X117104714Y-110611523D01*
X117104714Y-110706761D01*
X117771380Y-111182952D02*
X117723761Y-111087714D01*
X117676142Y-111040095D01*
X117580904Y-110992476D01*
X117295190Y-110992476D01*
X117199952Y-111040095D01*
X117152333Y-111087714D01*
X117104714Y-111182952D01*
X117104714Y-111325809D01*
X117152333Y-111421047D01*
X117199952Y-111468666D01*
X117295190Y-111516285D01*
X117580904Y-111516285D01*
X117676142Y-111468666D01*
X117723761Y-111421047D01*
X117771380Y-111325809D01*
X117771380Y-111182952D01*
X117104714Y-112373428D02*
X117771380Y-112373428D01*
X117104714Y-111944857D02*
X117628523Y-111944857D01*
X117723761Y-111992476D01*
X117771380Y-112087714D01*
X117771380Y-112230571D01*
X117723761Y-112325809D01*
X117676142Y-112373428D01*
X117104714Y-112849619D02*
X117771380Y-112849619D01*
X117199952Y-112849619D02*
X117152333Y-112897238D01*
X117104714Y-112992476D01*
X117104714Y-113135333D01*
X117152333Y-113230571D01*
X117247571Y-113278190D01*
X117771380Y-113278190D01*
X117771380Y-114182952D02*
X116771380Y-114182952D01*
X117723761Y-114182952D02*
X117771380Y-114087714D01*
X117771380Y-113897238D01*
X117723761Y-113802000D01*
X117676142Y-113754380D01*
X117580904Y-113706761D01*
X117295190Y-113706761D01*
X117199952Y-113754380D01*
X117152333Y-113802000D01*
X117104714Y-113897238D01*
X117104714Y-114087714D01*
X117152333Y-114182952D01*
M02*
