G04 #@! TF.GenerationSoftware,KiCad,Pcbnew,(6.0.8)*
G04 #@! TF.CreationDate,2023-01-17T04:08:54-05:00*
G04 #@! TF.ProjectId,DMG-KGDU-10+,444d472d-4b47-4445-952d-31302b2e6b69,rev?*
G04 #@! TF.SameCoordinates,Original*
G04 #@! TF.FileFunction,AssemblyDrawing,Top*
%FSLAX46Y46*%
G04 Gerber Fmt 4.6, Leading zero omitted, Abs format (unit mm)*
G04 Created by KiCad (PCBNEW (6.0.8)) date 2023-01-17 04:08:54*
%MOMM*%
%LPD*%
G01*
G04 APERTURE LIST*
%ADD10C,0.060000*%
%ADD11C,0.150000*%
%ADD12C,0.075000*%
%ADD13C,0.100000*%
%ADD14C,0.050000*%
G04 APERTURE END LIST*
D10*
X164773333Y-97752857D02*
X164754285Y-97771904D01*
X164697142Y-97790952D01*
X164659047Y-97790952D01*
X164601904Y-97771904D01*
X164563809Y-97733809D01*
X164544761Y-97695714D01*
X164525714Y-97619523D01*
X164525714Y-97562380D01*
X164544761Y-97486190D01*
X164563809Y-97448095D01*
X164601904Y-97410000D01*
X164659047Y-97390952D01*
X164697142Y-97390952D01*
X164754285Y-97410000D01*
X164773333Y-97429047D01*
X165154285Y-97790952D02*
X164925714Y-97790952D01*
X165040000Y-97790952D02*
X165040000Y-97390952D01*
X165001904Y-97448095D01*
X164963809Y-97486190D01*
X164925714Y-97505238D01*
D11*
X135992725Y-77047242D02*
X135945106Y-77094861D01*
X135802249Y-77142480D01*
X135707011Y-77142480D01*
X135564154Y-77094861D01*
X135468916Y-76999623D01*
X135421297Y-76904385D01*
X135373678Y-76713909D01*
X135373678Y-76571052D01*
X135421297Y-76380576D01*
X135468916Y-76285338D01*
X135564154Y-76190100D01*
X135707011Y-76142480D01*
X135802249Y-76142480D01*
X135945106Y-76190100D01*
X135992725Y-76237719D01*
X136421297Y-77142480D02*
X136421297Y-76475814D01*
X136421297Y-76666290D02*
X136468916Y-76571052D01*
X136516535Y-76523433D01*
X136611773Y-76475814D01*
X136707011Y-76475814D01*
X136945106Y-76475814D02*
X137183201Y-77142480D01*
X137421297Y-76475814D02*
X137183201Y-77142480D01*
X137087963Y-77380576D01*
X137040344Y-77428195D01*
X136945106Y-77475814D01*
X137754630Y-77094861D02*
X137849868Y-77142480D01*
X138040344Y-77142480D01*
X138135582Y-77094861D01*
X138183201Y-76999623D01*
X138183201Y-76952004D01*
X138135582Y-76856766D01*
X138040344Y-76809147D01*
X137897487Y-76809147D01*
X137802249Y-76761528D01*
X137754630Y-76666290D01*
X137754630Y-76618671D01*
X137802249Y-76523433D01*
X137897487Y-76475814D01*
X138040344Y-76475814D01*
X138135582Y-76523433D01*
X138468916Y-76475814D02*
X138849868Y-76475814D01*
X138611773Y-76142480D02*
X138611773Y-76999623D01*
X138659392Y-77094861D01*
X138754630Y-77142480D01*
X138849868Y-77142480D01*
X139611773Y-77142480D02*
X139611773Y-76618671D01*
X139564154Y-76523433D01*
X139468916Y-76475814D01*
X139278440Y-76475814D01*
X139183201Y-76523433D01*
X139611773Y-77094861D02*
X139516535Y-77142480D01*
X139278440Y-77142480D01*
X139183201Y-77094861D01*
X139135582Y-76999623D01*
X139135582Y-76904385D01*
X139183201Y-76809147D01*
X139278440Y-76761528D01*
X139516535Y-76761528D01*
X139611773Y-76713909D01*
X140230820Y-77142480D02*
X140135582Y-77094861D01*
X140087963Y-76999623D01*
X140087963Y-76142480D01*
X131694190Y-77128190D02*
X132170380Y-77128190D01*
X131170380Y-77461523D02*
X131694190Y-77128190D01*
X131170380Y-76794857D01*
X132170380Y-75937714D02*
X132170380Y-76509142D01*
X132170380Y-76223428D02*
X131170380Y-76223428D01*
X131313238Y-76318666D01*
X131408476Y-76413904D01*
X131456095Y-76509142D01*
X118823571Y-105691380D02*
X119490238Y-105691380D01*
X119061666Y-106691380D01*
X120299761Y-106024714D02*
X120299761Y-106691380D01*
X120061666Y-105643761D02*
X119823571Y-106358047D01*
X120442619Y-106358047D01*
X121299761Y-106691380D02*
X120823571Y-106691380D01*
X120823571Y-105691380D01*
X121490238Y-105691380D02*
X121823571Y-106691380D01*
X122156904Y-105691380D01*
X123061666Y-106596142D02*
X123014047Y-106643761D01*
X122871190Y-106691380D01*
X122775952Y-106691380D01*
X122633095Y-106643761D01*
X122537857Y-106548523D01*
X122490238Y-106453285D01*
X122442619Y-106262809D01*
X122442619Y-106119952D01*
X122490238Y-105929476D01*
X122537857Y-105834238D01*
X122633095Y-105739000D01*
X122775952Y-105691380D01*
X122871190Y-105691380D01*
X123014047Y-105739000D01*
X123061666Y-105786619D01*
X124014047Y-106691380D02*
X123442619Y-106691380D01*
X123728333Y-106691380D02*
X123728333Y-105691380D01*
X123633095Y-105834238D01*
X123537857Y-105929476D01*
X123442619Y-105977095D01*
X124966428Y-105739000D02*
X124871190Y-105691380D01*
X124728333Y-105691380D01*
X124585476Y-105739000D01*
X124490238Y-105834238D01*
X124442619Y-105929476D01*
X124395000Y-106119952D01*
X124395000Y-106262809D01*
X124442619Y-106453285D01*
X124490238Y-106548523D01*
X124585476Y-106643761D01*
X124728333Y-106691380D01*
X124823571Y-106691380D01*
X124966428Y-106643761D01*
X125014047Y-106596142D01*
X125014047Y-106262809D01*
X124823571Y-106262809D01*
X125347380Y-105691380D02*
X125966428Y-105691380D01*
X125633095Y-106072333D01*
X125775952Y-106072333D01*
X125871190Y-106119952D01*
X125918809Y-106167571D01*
X125966428Y-106262809D01*
X125966428Y-106500904D01*
X125918809Y-106596142D01*
X125871190Y-106643761D01*
X125775952Y-106691380D01*
X125490238Y-106691380D01*
X125395000Y-106643761D01*
X125347380Y-106596142D01*
X126347380Y-105786619D02*
X126395000Y-105739000D01*
X126490238Y-105691380D01*
X126728333Y-105691380D01*
X126823571Y-105739000D01*
X126871190Y-105786619D01*
X126918809Y-105881857D01*
X126918809Y-105977095D01*
X126871190Y-106119952D01*
X126299761Y-106691380D01*
X126918809Y-106691380D01*
D12*
X122621190Y-104119952D02*
X123025952Y-104119952D01*
X123073571Y-104096142D01*
X123097380Y-104072333D01*
X123121190Y-104024714D01*
X123121190Y-103929476D01*
X123097380Y-103881857D01*
X123073571Y-103858047D01*
X123025952Y-103834238D01*
X122621190Y-103834238D01*
X122621190Y-103358047D02*
X122621190Y-103596142D01*
X122859285Y-103619952D01*
X122835476Y-103596142D01*
X122811666Y-103548523D01*
X122811666Y-103429476D01*
X122835476Y-103381857D01*
X122859285Y-103358047D01*
X122906904Y-103334238D01*
X123025952Y-103334238D01*
X123073571Y-103358047D01*
X123097380Y-103381857D01*
X123121190Y-103429476D01*
X123121190Y-103548523D01*
X123097380Y-103596142D01*
X123073571Y-103619952D01*
D11*
X164313380Y-99945909D02*
X164313380Y-99850671D01*
X164361000Y-99755433D01*
X164408619Y-99707814D01*
X164503857Y-99660195D01*
X164694333Y-99612576D01*
X164932428Y-99612576D01*
X165122904Y-99660195D01*
X165218142Y-99707814D01*
X165265761Y-99755433D01*
X165313380Y-99850671D01*
X165313380Y-99945909D01*
X165265761Y-100041147D01*
X165218142Y-100088766D01*
X165122904Y-100136385D01*
X164932428Y-100184004D01*
X164694333Y-100184004D01*
X164503857Y-100136385D01*
X164408619Y-100088766D01*
X164361000Y-100041147D01*
X164313380Y-99945909D01*
X165218142Y-99184004D02*
X165265761Y-99136385D01*
X165313380Y-99184004D01*
X165265761Y-99231623D01*
X165218142Y-99184004D01*
X165313380Y-99184004D01*
X165313380Y-98184004D02*
X165313380Y-98755433D01*
X165313380Y-98469719D02*
X164313380Y-98469719D01*
X164456238Y-98564957D01*
X164551476Y-98660195D01*
X164599095Y-98755433D01*
X164646714Y-96564957D02*
X165313380Y-96564957D01*
X164646714Y-96993528D02*
X165170523Y-96993528D01*
X165265761Y-96945909D01*
X165313380Y-96850671D01*
X165313380Y-96707814D01*
X165265761Y-96612576D01*
X165218142Y-96564957D01*
X164789571Y-95755433D02*
X164789571Y-96088766D01*
X165313380Y-96088766D02*
X164313380Y-96088766D01*
X164313380Y-95612576D01*
X159926190Y-114482380D02*
X160021428Y-114482380D01*
X160116666Y-114530000D01*
X160164285Y-114577619D01*
X160211904Y-114672857D01*
X160259523Y-114863333D01*
X160259523Y-115101428D01*
X160211904Y-115291904D01*
X160164285Y-115387142D01*
X160116666Y-115434761D01*
X160021428Y-115482380D01*
X159926190Y-115482380D01*
X159830952Y-115434761D01*
X159783333Y-115387142D01*
X159735714Y-115291904D01*
X159688095Y-115101428D01*
X159688095Y-114863333D01*
X159735714Y-114672857D01*
X159783333Y-114577619D01*
X159830952Y-114530000D01*
X159926190Y-114482380D01*
X160688095Y-115387142D02*
X160735714Y-115434761D01*
X160688095Y-115482380D01*
X160640476Y-115434761D01*
X160688095Y-115387142D01*
X160688095Y-115482380D01*
X161688095Y-115482380D02*
X161116666Y-115482380D01*
X161402380Y-115482380D02*
X161402380Y-114482380D01*
X161307142Y-114625238D01*
X161211904Y-114720476D01*
X161116666Y-114768095D01*
X163307142Y-114815714D02*
X163307142Y-115482380D01*
X162878571Y-114815714D02*
X162878571Y-115339523D01*
X162926190Y-115434761D01*
X163021428Y-115482380D01*
X163164285Y-115482380D01*
X163259523Y-115434761D01*
X163307142Y-115387142D01*
X164116666Y-114958571D02*
X163783333Y-114958571D01*
X163783333Y-115482380D02*
X163783333Y-114482380D01*
X164259523Y-114482380D01*
D10*
X161883333Y-116602857D02*
X161864285Y-116621904D01*
X161807142Y-116640952D01*
X161769047Y-116640952D01*
X161711904Y-116621904D01*
X161673809Y-116583809D01*
X161654761Y-116545714D01*
X161635714Y-116469523D01*
X161635714Y-116412380D01*
X161654761Y-116336190D01*
X161673809Y-116298095D01*
X161711904Y-116260000D01*
X161769047Y-116240952D01*
X161807142Y-116240952D01*
X161864285Y-116260000D01*
X161883333Y-116279047D01*
X162035714Y-116279047D02*
X162054761Y-116260000D01*
X162092857Y-116240952D01*
X162188095Y-116240952D01*
X162226190Y-116260000D01*
X162245238Y-116279047D01*
X162264285Y-116317142D01*
X162264285Y-116355238D01*
X162245238Y-116412380D01*
X162016666Y-116640952D01*
X162264285Y-116640952D01*
D11*
X135995190Y-97269780D02*
X136090428Y-97269780D01*
X136185666Y-97317400D01*
X136233285Y-97365019D01*
X136280904Y-97460257D01*
X136328523Y-97650733D01*
X136328523Y-97888828D01*
X136280904Y-98079304D01*
X136233285Y-98174542D01*
X136185666Y-98222161D01*
X136090428Y-98269780D01*
X135995190Y-98269780D01*
X135899952Y-98222161D01*
X135852333Y-98174542D01*
X135804714Y-98079304D01*
X135757095Y-97888828D01*
X135757095Y-97650733D01*
X135804714Y-97460257D01*
X135852333Y-97365019D01*
X135899952Y-97317400D01*
X135995190Y-97269780D01*
X136757095Y-98174542D02*
X136804714Y-98222161D01*
X136757095Y-98269780D01*
X136709476Y-98222161D01*
X136757095Y-98174542D01*
X136757095Y-98269780D01*
X137757095Y-98269780D02*
X137185666Y-98269780D01*
X137471380Y-98269780D02*
X137471380Y-97269780D01*
X137376142Y-97412638D01*
X137280904Y-97507876D01*
X137185666Y-97555495D01*
X139376142Y-97603114D02*
X139376142Y-98269780D01*
X138947571Y-97603114D02*
X138947571Y-98126923D01*
X138995190Y-98222161D01*
X139090428Y-98269780D01*
X139233285Y-98269780D01*
X139328523Y-98222161D01*
X139376142Y-98174542D01*
X140185666Y-97745971D02*
X139852333Y-97745971D01*
X139852333Y-98269780D02*
X139852333Y-97269780D01*
X140328523Y-97269780D01*
D10*
X137952333Y-99390257D02*
X137933285Y-99409304D01*
X137876142Y-99428352D01*
X137838047Y-99428352D01*
X137780904Y-99409304D01*
X137742809Y-99371209D01*
X137723761Y-99333114D01*
X137704714Y-99256923D01*
X137704714Y-99199780D01*
X137723761Y-99123590D01*
X137742809Y-99085495D01*
X137780904Y-99047400D01*
X137838047Y-99028352D01*
X137876142Y-99028352D01*
X137933285Y-99047400D01*
X137952333Y-99066447D01*
X138085666Y-99028352D02*
X138333285Y-99028352D01*
X138199952Y-99180733D01*
X138257095Y-99180733D01*
X138295190Y-99199780D01*
X138314238Y-99218828D01*
X138333285Y-99256923D01*
X138333285Y-99352161D01*
X138314238Y-99390257D01*
X138295190Y-99409304D01*
X138257095Y-99428352D01*
X138142809Y-99428352D01*
X138104714Y-99409304D01*
X138085666Y-99390257D01*
D11*
X131365619Y-82884380D02*
X130794190Y-82884380D01*
X131079904Y-82884380D02*
X131079904Y-81884380D01*
X130984666Y-82027238D01*
X130889428Y-82122476D01*
X130794190Y-82170095D01*
X132270380Y-81884380D02*
X131794190Y-81884380D01*
X131746571Y-82360571D01*
X131794190Y-82312952D01*
X131889428Y-82265333D01*
X132127523Y-82265333D01*
X132222761Y-82312952D01*
X132270380Y-82360571D01*
X132318000Y-82455809D01*
X132318000Y-82693904D01*
X132270380Y-82789142D01*
X132222761Y-82836761D01*
X132127523Y-82884380D01*
X131889428Y-82884380D01*
X131794190Y-82836761D01*
X131746571Y-82789142D01*
X133508476Y-82217714D02*
X133508476Y-83217714D01*
X133508476Y-82265333D02*
X133603714Y-82217714D01*
X133794190Y-82217714D01*
X133889428Y-82265333D01*
X133937047Y-82312952D01*
X133984666Y-82408190D01*
X133984666Y-82693904D01*
X133937047Y-82789142D01*
X133889428Y-82836761D01*
X133794190Y-82884380D01*
X133603714Y-82884380D01*
X133508476Y-82836761D01*
X134746571Y-82360571D02*
X134413238Y-82360571D01*
X134413238Y-82884380D02*
X134413238Y-81884380D01*
X134889428Y-81884380D01*
D10*
X132751333Y-81144857D02*
X132732285Y-81163904D01*
X132675142Y-81182952D01*
X132637047Y-81182952D01*
X132579904Y-81163904D01*
X132541809Y-81125809D01*
X132522761Y-81087714D01*
X132503714Y-81011523D01*
X132503714Y-80954380D01*
X132522761Y-80878190D01*
X132541809Y-80840095D01*
X132579904Y-80802000D01*
X132637047Y-80782952D01*
X132675142Y-80782952D01*
X132732285Y-80802000D01*
X132751333Y-80821047D01*
X133094190Y-80916285D02*
X133094190Y-81182952D01*
X132998952Y-80763904D02*
X132903714Y-81049619D01*
X133151333Y-81049619D01*
D11*
X127365619Y-80024380D02*
X126794190Y-80024380D01*
X127079904Y-80024380D02*
X127079904Y-79024380D01*
X126984666Y-79167238D01*
X126889428Y-79262476D01*
X126794190Y-79310095D01*
X128270380Y-79024380D02*
X127794190Y-79024380D01*
X127746571Y-79500571D01*
X127794190Y-79452952D01*
X127889428Y-79405333D01*
X128127523Y-79405333D01*
X128222761Y-79452952D01*
X128270380Y-79500571D01*
X128318000Y-79595809D01*
X128318000Y-79833904D01*
X128270380Y-79929142D01*
X128222761Y-79976761D01*
X128127523Y-80024380D01*
X127889428Y-80024380D01*
X127794190Y-79976761D01*
X127746571Y-79929142D01*
X129508476Y-79357714D02*
X129508476Y-80357714D01*
X129508476Y-79405333D02*
X129603714Y-79357714D01*
X129794190Y-79357714D01*
X129889428Y-79405333D01*
X129937047Y-79452952D01*
X129984666Y-79548190D01*
X129984666Y-79833904D01*
X129937047Y-79929142D01*
X129889428Y-79976761D01*
X129794190Y-80024380D01*
X129603714Y-80024380D01*
X129508476Y-79976761D01*
X130746571Y-79500571D02*
X130413238Y-79500571D01*
X130413238Y-80024380D02*
X130413238Y-79024380D01*
X130889428Y-79024380D01*
D10*
X128751333Y-81144857D02*
X128732285Y-81163904D01*
X128675142Y-81182952D01*
X128637047Y-81182952D01*
X128579904Y-81163904D01*
X128541809Y-81125809D01*
X128522761Y-81087714D01*
X128503714Y-81011523D01*
X128503714Y-80954380D01*
X128522761Y-80878190D01*
X128541809Y-80840095D01*
X128579904Y-80802000D01*
X128637047Y-80782952D01*
X128675142Y-80782952D01*
X128732285Y-80802000D01*
X128751333Y-80821047D01*
X129113238Y-80782952D02*
X128922761Y-80782952D01*
X128903714Y-80973428D01*
X128922761Y-80954380D01*
X128960857Y-80935333D01*
X129056095Y-80935333D01*
X129094190Y-80954380D01*
X129113238Y-80973428D01*
X129132285Y-81011523D01*
X129132285Y-81106761D01*
X129113238Y-81144857D01*
X129094190Y-81163904D01*
X129056095Y-81182952D01*
X128960857Y-81182952D01*
X128922761Y-81163904D01*
X128903714Y-81144857D01*
D11*
X121201380Y-90825809D02*
X121201380Y-90730571D01*
X121249000Y-90635333D01*
X121296619Y-90587714D01*
X121391857Y-90540095D01*
X121582333Y-90492476D01*
X121820428Y-90492476D01*
X122010904Y-90540095D01*
X122106142Y-90587714D01*
X122153761Y-90635333D01*
X122201380Y-90730571D01*
X122201380Y-90825809D01*
X122153761Y-90921047D01*
X122106142Y-90968666D01*
X122010904Y-91016285D01*
X121820428Y-91063904D01*
X121582333Y-91063904D01*
X121391857Y-91016285D01*
X121296619Y-90968666D01*
X121249000Y-90921047D01*
X121201380Y-90825809D01*
X122106142Y-90063904D02*
X122153761Y-90016285D01*
X122201380Y-90063904D01*
X122153761Y-90111523D01*
X122106142Y-90063904D01*
X122201380Y-90063904D01*
X122201380Y-89063904D02*
X122201380Y-89635333D01*
X122201380Y-89349619D02*
X121201380Y-89349619D01*
X121344238Y-89444857D01*
X121439476Y-89540095D01*
X121487095Y-89635333D01*
X121534714Y-87444857D02*
X122201380Y-87444857D01*
X121534714Y-87873428D02*
X122058523Y-87873428D01*
X122153761Y-87825809D01*
X122201380Y-87730571D01*
X122201380Y-87587714D01*
X122153761Y-87492476D01*
X122106142Y-87444857D01*
X121677571Y-86635333D02*
X121677571Y-86968666D01*
X122201380Y-86968666D02*
X121201380Y-86968666D01*
X121201380Y-86492476D01*
D10*
X120461857Y-88868666D02*
X120480904Y-88887714D01*
X120499952Y-88944857D01*
X120499952Y-88982952D01*
X120480904Y-89040095D01*
X120442809Y-89078190D01*
X120404714Y-89097238D01*
X120328523Y-89116285D01*
X120271380Y-89116285D01*
X120195190Y-89097238D01*
X120157095Y-89078190D01*
X120119000Y-89040095D01*
X120099952Y-88982952D01*
X120099952Y-88944857D01*
X120119000Y-88887714D01*
X120138047Y-88868666D01*
X120099952Y-88525809D02*
X120099952Y-88602000D01*
X120119000Y-88640095D01*
X120138047Y-88659142D01*
X120195190Y-88697238D01*
X120271380Y-88716285D01*
X120423761Y-88716285D01*
X120461857Y-88697238D01*
X120480904Y-88678190D01*
X120499952Y-88640095D01*
X120499952Y-88563904D01*
X120480904Y-88525809D01*
X120461857Y-88506761D01*
X120423761Y-88487714D01*
X120328523Y-88487714D01*
X120290428Y-88506761D01*
X120271380Y-88525809D01*
X120252333Y-88563904D01*
X120252333Y-88640095D01*
X120271380Y-88678190D01*
X120290428Y-88697238D01*
X120328523Y-88716285D01*
D11*
X120896190Y-109092380D02*
X120991428Y-109092380D01*
X121086666Y-109140000D01*
X121134285Y-109187619D01*
X121181904Y-109282857D01*
X121229523Y-109473333D01*
X121229523Y-109711428D01*
X121181904Y-109901904D01*
X121134285Y-109997142D01*
X121086666Y-110044761D01*
X120991428Y-110092380D01*
X120896190Y-110092380D01*
X120800952Y-110044761D01*
X120753333Y-109997142D01*
X120705714Y-109901904D01*
X120658095Y-109711428D01*
X120658095Y-109473333D01*
X120705714Y-109282857D01*
X120753333Y-109187619D01*
X120800952Y-109140000D01*
X120896190Y-109092380D01*
X121658095Y-109997142D02*
X121705714Y-110044761D01*
X121658095Y-110092380D01*
X121610476Y-110044761D01*
X121658095Y-109997142D01*
X121658095Y-110092380D01*
X122658095Y-110092380D02*
X122086666Y-110092380D01*
X122372380Y-110092380D02*
X122372380Y-109092380D01*
X122277142Y-109235238D01*
X122181904Y-109330476D01*
X122086666Y-109378095D01*
X124277142Y-109425714D02*
X124277142Y-110092380D01*
X123848571Y-109425714D02*
X123848571Y-109949523D01*
X123896190Y-110044761D01*
X123991428Y-110092380D01*
X124134285Y-110092380D01*
X124229523Y-110044761D01*
X124277142Y-109997142D01*
X125086666Y-109568571D02*
X124753333Y-109568571D01*
X124753333Y-110092380D02*
X124753333Y-109092380D01*
X125229523Y-109092380D01*
D10*
X122853333Y-108352857D02*
X122834285Y-108371904D01*
X122777142Y-108390952D01*
X122739047Y-108390952D01*
X122681904Y-108371904D01*
X122643809Y-108333809D01*
X122624761Y-108295714D01*
X122605714Y-108219523D01*
X122605714Y-108162380D01*
X122624761Y-108086190D01*
X122643809Y-108048095D01*
X122681904Y-108010000D01*
X122739047Y-107990952D01*
X122777142Y-107990952D01*
X122834285Y-108010000D01*
X122853333Y-108029047D01*
X122986666Y-107990952D02*
X123253333Y-107990952D01*
X123081904Y-108390952D01*
D11*
X125488797Y-81895480D02*
X126107844Y-81895480D01*
X125774511Y-82276433D01*
X125917368Y-82276433D01*
X126012606Y-82324052D01*
X126060225Y-82371671D01*
X126107844Y-82466909D01*
X126107844Y-82705004D01*
X126060225Y-82800242D01*
X126012606Y-82847861D01*
X125917368Y-82895480D01*
X125631654Y-82895480D01*
X125536416Y-82847861D01*
X125488797Y-82800242D01*
X126441178Y-81895480D02*
X127060225Y-81895480D01*
X126726892Y-82276433D01*
X126869749Y-82276433D01*
X126964987Y-82324052D01*
X127012606Y-82371671D01*
X127060225Y-82466909D01*
X127060225Y-82705004D01*
X127012606Y-82800242D01*
X126964987Y-82847861D01*
X126869749Y-82895480D01*
X126584035Y-82895480D01*
X126488797Y-82847861D01*
X126441178Y-82800242D01*
X127679273Y-81895480D02*
X127774511Y-81895480D01*
X127869749Y-81943100D01*
X127917368Y-81990719D01*
X127964987Y-82085957D01*
X128012606Y-82276433D01*
X128012606Y-82514528D01*
X127964987Y-82705004D01*
X127917368Y-82800242D01*
X127869749Y-82847861D01*
X127774511Y-82895480D01*
X127679273Y-82895480D01*
X127584035Y-82847861D01*
X127536416Y-82800242D01*
X127488797Y-82705004D01*
X127441178Y-82514528D01*
X127441178Y-82276433D01*
X127488797Y-82085957D01*
X127536416Y-81990719D01*
X127584035Y-81943100D01*
X127679273Y-81895480D01*
X128441178Y-82895480D02*
X128441178Y-81895480D01*
X129012606Y-82895480D02*
X128584035Y-82324052D01*
X129012606Y-81895480D02*
X128441178Y-82466909D01*
X129584035Y-82895480D02*
X129488797Y-82847861D01*
X129441178Y-82800242D01*
X129393559Y-82705004D01*
X129393559Y-82419290D01*
X129441178Y-82324052D01*
X129488797Y-82276433D01*
X129584035Y-82228814D01*
X129726892Y-82228814D01*
X129822130Y-82276433D01*
X129869749Y-82324052D01*
X129917368Y-82419290D01*
X129917368Y-82705004D01*
X129869749Y-82800242D01*
X129822130Y-82847861D01*
X129726892Y-82895480D01*
X129584035Y-82895480D01*
X130345940Y-82895480D02*
X130345940Y-81895480D01*
X130774511Y-82895480D02*
X130774511Y-82371671D01*
X130726892Y-82276433D01*
X130631654Y-82228814D01*
X130488797Y-82228814D01*
X130393559Y-82276433D01*
X130345940Y-82324052D01*
X131250701Y-82895480D02*
X131250701Y-82228814D01*
X131250701Y-82324052D02*
X131298320Y-82276433D01*
X131393559Y-82228814D01*
X131536416Y-82228814D01*
X131631654Y-82276433D01*
X131679273Y-82371671D01*
X131679273Y-82895480D01*
X131679273Y-82371671D02*
X131726892Y-82276433D01*
X131822130Y-82228814D01*
X131964987Y-82228814D01*
X132060225Y-82276433D01*
X132107844Y-82371671D01*
X132107844Y-82895480D01*
D10*
X128751333Y-83982952D02*
X128618000Y-83792476D01*
X128522761Y-83982952D02*
X128522761Y-83582952D01*
X128675142Y-83582952D01*
X128713238Y-83602000D01*
X128732285Y-83621047D01*
X128751333Y-83659142D01*
X128751333Y-83716285D01*
X128732285Y-83754380D01*
X128713238Y-83773428D01*
X128675142Y-83792476D01*
X128522761Y-83792476D01*
X129132285Y-83982952D02*
X128903714Y-83982952D01*
X129018000Y-83982952D02*
X129018000Y-83582952D01*
X128979904Y-83640095D01*
X128941809Y-83678190D01*
X128903714Y-83697238D01*
D11*
X142692380Y-103312857D02*
X142692380Y-103884285D01*
X142692380Y-103598571D02*
X141692380Y-103598571D01*
X141835238Y-103693809D01*
X141930476Y-103789047D01*
X141978095Y-103884285D01*
X141692380Y-102693809D02*
X141692380Y-102598571D01*
X141740000Y-102503333D01*
X141787619Y-102455714D01*
X141882857Y-102408095D01*
X142073333Y-102360476D01*
X142311428Y-102360476D01*
X142501904Y-102408095D01*
X142597142Y-102455714D01*
X142644761Y-102503333D01*
X142692380Y-102598571D01*
X142692380Y-102693809D01*
X142644761Y-102789047D01*
X142597142Y-102836666D01*
X142501904Y-102884285D01*
X142311428Y-102931904D01*
X142073333Y-102931904D01*
X141882857Y-102884285D01*
X141787619Y-102836666D01*
X141740000Y-102789047D01*
X141692380Y-102693809D01*
X142692380Y-101170000D02*
X141692380Y-101170000D01*
X142692380Y-100598571D02*
X142120952Y-101027142D01*
X141692380Y-100598571D02*
X142263809Y-101170000D01*
X142692380Y-100027142D02*
X142644761Y-100122380D01*
X142597142Y-100170000D01*
X142501904Y-100217619D01*
X142216190Y-100217619D01*
X142120952Y-100170000D01*
X142073333Y-100122380D01*
X142025714Y-100027142D01*
X142025714Y-99884285D01*
X142073333Y-99789047D01*
X142120952Y-99741428D01*
X142216190Y-99693809D01*
X142501904Y-99693809D01*
X142597142Y-99741428D01*
X142644761Y-99789047D01*
X142692380Y-99884285D01*
X142692380Y-100027142D01*
X142692380Y-99265238D02*
X141692380Y-99265238D01*
X142692380Y-98836666D02*
X142168571Y-98836666D01*
X142073333Y-98884285D01*
X142025714Y-98979523D01*
X142025714Y-99122380D01*
X142073333Y-99217619D01*
X142120952Y-99265238D01*
X142692380Y-98360476D02*
X142025714Y-98360476D01*
X142120952Y-98360476D02*
X142073333Y-98312857D01*
X142025714Y-98217619D01*
X142025714Y-98074761D01*
X142073333Y-97979523D01*
X142168571Y-97931904D01*
X142692380Y-97931904D01*
X142168571Y-97931904D02*
X142073333Y-97884285D01*
X142025714Y-97789047D01*
X142025714Y-97646190D01*
X142073333Y-97550952D01*
X142168571Y-97503333D01*
X142692380Y-97503333D01*
D10*
X140990952Y-100736666D02*
X140800476Y-100870000D01*
X140990952Y-100965238D02*
X140590952Y-100965238D01*
X140590952Y-100812857D01*
X140610000Y-100774761D01*
X140629047Y-100755714D01*
X140667142Y-100736666D01*
X140724285Y-100736666D01*
X140762380Y-100755714D01*
X140781428Y-100774761D01*
X140800476Y-100812857D01*
X140800476Y-100965238D01*
X140629047Y-100584285D02*
X140610000Y-100565238D01*
X140590952Y-100527142D01*
X140590952Y-100431904D01*
X140610000Y-100393809D01*
X140629047Y-100374761D01*
X140667142Y-100355714D01*
X140705238Y-100355714D01*
X140762380Y-100374761D01*
X140990952Y-100603333D01*
X140990952Y-100355714D01*
D11*
X134833333Y-84622380D02*
X134261904Y-84622380D01*
X134547619Y-84622380D02*
X134547619Y-83622380D01*
X134452380Y-83765238D01*
X134357142Y-83860476D01*
X134261904Y-83908095D01*
X136023809Y-84622380D02*
X136023809Y-83622380D01*
X136595238Y-84622380D02*
X136166666Y-84050952D01*
X136595238Y-83622380D02*
X136023809Y-84193809D01*
X137166666Y-84622380D02*
X137071428Y-84574761D01*
X137023809Y-84527142D01*
X136976190Y-84431904D01*
X136976190Y-84146190D01*
X137023809Y-84050952D01*
X137071428Y-84003333D01*
X137166666Y-83955714D01*
X137309523Y-83955714D01*
X137404761Y-84003333D01*
X137452380Y-84050952D01*
X137500000Y-84146190D01*
X137500000Y-84431904D01*
X137452380Y-84527142D01*
X137404761Y-84574761D01*
X137309523Y-84622380D01*
X137166666Y-84622380D01*
X137928571Y-84622380D02*
X137928571Y-83622380D01*
X138357142Y-84622380D02*
X138357142Y-84098571D01*
X138309523Y-84003333D01*
X138214285Y-83955714D01*
X138071428Y-83955714D01*
X137976190Y-84003333D01*
X137928571Y-84050952D01*
X138833333Y-84622380D02*
X138833333Y-83955714D01*
X138833333Y-84050952D02*
X138880952Y-84003333D01*
X138976190Y-83955714D01*
X139119047Y-83955714D01*
X139214285Y-84003333D01*
X139261904Y-84098571D01*
X139261904Y-84622380D01*
X139261904Y-84098571D02*
X139309523Y-84003333D01*
X139404761Y-83955714D01*
X139547619Y-83955714D01*
X139642857Y-84003333D01*
X139690476Y-84098571D01*
X139690476Y-84622380D01*
D10*
X136933333Y-85780952D02*
X136800000Y-85590476D01*
X136704761Y-85780952D02*
X136704761Y-85380952D01*
X136857142Y-85380952D01*
X136895238Y-85400000D01*
X136914285Y-85419047D01*
X136933333Y-85457142D01*
X136933333Y-85514285D01*
X136914285Y-85552380D01*
X136895238Y-85571428D01*
X136857142Y-85590476D01*
X136704761Y-85590476D01*
X137066666Y-85380952D02*
X137314285Y-85380952D01*
X137180952Y-85533333D01*
X137238095Y-85533333D01*
X137276190Y-85552380D01*
X137295238Y-85571428D01*
X137314285Y-85609523D01*
X137314285Y-85704761D01*
X137295238Y-85742857D01*
X137276190Y-85761904D01*
X137238095Y-85780952D01*
X137123809Y-85780952D01*
X137085714Y-85761904D01*
X137066666Y-85742857D01*
D11*
X128714238Y-119980571D02*
X128380904Y-119980571D01*
X128380904Y-120504380D02*
X128380904Y-119504380D01*
X128857095Y-119504380D01*
X129238047Y-120504380D02*
X129238047Y-119504380D01*
X129571380Y-120218666D01*
X129904714Y-119504380D01*
X129904714Y-120504380D01*
X130904714Y-120504380D02*
X130333285Y-120504380D01*
X130619000Y-120504380D02*
X130619000Y-119504380D01*
X130523761Y-119647238D01*
X130428523Y-119742476D01*
X130333285Y-119790095D01*
X131476142Y-119932952D02*
X131380904Y-119885333D01*
X131333285Y-119837714D01*
X131285666Y-119742476D01*
X131285666Y-119694857D01*
X131333285Y-119599619D01*
X131380904Y-119552000D01*
X131476142Y-119504380D01*
X131666619Y-119504380D01*
X131761857Y-119552000D01*
X131809476Y-119599619D01*
X131857095Y-119694857D01*
X131857095Y-119742476D01*
X131809476Y-119837714D01*
X131761857Y-119885333D01*
X131666619Y-119932952D01*
X131476142Y-119932952D01*
X131380904Y-119980571D01*
X131333285Y-120028190D01*
X131285666Y-120123428D01*
X131285666Y-120313904D01*
X131333285Y-120409142D01*
X131380904Y-120456761D01*
X131476142Y-120504380D01*
X131666619Y-120504380D01*
X131761857Y-120456761D01*
X131809476Y-120409142D01*
X131857095Y-120313904D01*
X131857095Y-120123428D01*
X131809476Y-120028190D01*
X131761857Y-119980571D01*
X131666619Y-119932952D01*
X132190428Y-119504380D02*
X132428523Y-120504380D01*
X132619000Y-119790095D01*
X132809476Y-120504380D01*
X133047571Y-119504380D01*
X133619000Y-119504380D02*
X133714238Y-119504380D01*
X133809476Y-119552000D01*
X133857095Y-119599619D01*
X133904714Y-119694857D01*
X133952333Y-119885333D01*
X133952333Y-120123428D01*
X133904714Y-120313904D01*
X133857095Y-120409142D01*
X133809476Y-120456761D01*
X133714238Y-120504380D01*
X133619000Y-120504380D01*
X133523761Y-120456761D01*
X133476142Y-120409142D01*
X133428523Y-120313904D01*
X133380904Y-120123428D01*
X133380904Y-119885333D01*
X133428523Y-119694857D01*
X133476142Y-119599619D01*
X133523761Y-119552000D01*
X133619000Y-119504380D01*
X134523761Y-119932952D02*
X134428523Y-119885333D01*
X134380904Y-119837714D01*
X134333285Y-119742476D01*
X134333285Y-119694857D01*
X134380904Y-119599619D01*
X134428523Y-119552000D01*
X134523761Y-119504380D01*
X134714238Y-119504380D01*
X134809476Y-119552000D01*
X134857095Y-119599619D01*
X134904714Y-119694857D01*
X134904714Y-119742476D01*
X134857095Y-119837714D01*
X134809476Y-119885333D01*
X134714238Y-119932952D01*
X134523761Y-119932952D01*
X134428523Y-119980571D01*
X134380904Y-120028190D01*
X134333285Y-120123428D01*
X134333285Y-120313904D01*
X134380904Y-120409142D01*
X134428523Y-120456761D01*
X134523761Y-120504380D01*
X134714238Y-120504380D01*
X134809476Y-120456761D01*
X134857095Y-120409142D01*
X134904714Y-120313904D01*
X134904714Y-120123428D01*
X134857095Y-120028190D01*
X134809476Y-119980571D01*
X134714238Y-119932952D01*
X130857095Y-109454380D02*
X130857095Y-110263904D01*
X130904714Y-110359142D01*
X130952333Y-110406761D01*
X131047571Y-110454380D01*
X131238047Y-110454380D01*
X131333285Y-110406761D01*
X131380904Y-110359142D01*
X131428523Y-110263904D01*
X131428523Y-109454380D01*
X131809476Y-109454380D02*
X132428523Y-109454380D01*
X132095190Y-109835333D01*
X132238047Y-109835333D01*
X132333285Y-109882952D01*
X132380904Y-109930571D01*
X132428523Y-110025809D01*
X132428523Y-110263904D01*
X132380904Y-110359142D01*
X132333285Y-110406761D01*
X132238047Y-110454380D01*
X131952333Y-110454380D01*
X131857095Y-110406761D01*
X131809476Y-110359142D01*
X140846571Y-82321047D02*
X140894190Y-82178190D01*
X140941809Y-82130571D01*
X141037047Y-82082952D01*
X141179904Y-82082952D01*
X141275142Y-82130571D01*
X141322761Y-82178190D01*
X141370380Y-82273428D01*
X141370380Y-82654380D01*
X140370380Y-82654380D01*
X140370380Y-82321047D01*
X140418000Y-82225809D01*
X140465619Y-82178190D01*
X140560857Y-82130571D01*
X140656095Y-82130571D01*
X140751333Y-82178190D01*
X140798952Y-82225809D01*
X140846571Y-82321047D01*
X140846571Y-82654380D01*
X141084666Y-81702000D02*
X141084666Y-81225809D01*
X141370380Y-81797238D02*
X140370380Y-81463904D01*
X141370380Y-81130571D01*
X140370380Y-80368666D02*
X140370380Y-80559142D01*
X140418000Y-80654380D01*
X140465619Y-80702000D01*
X140608476Y-80797238D01*
X140798952Y-80844857D01*
X141179904Y-80844857D01*
X141275142Y-80797238D01*
X141322761Y-80749619D01*
X141370380Y-80654380D01*
X141370380Y-80463904D01*
X141322761Y-80368666D01*
X141275142Y-80321047D01*
X141179904Y-80273428D01*
X140941809Y-80273428D01*
X140846571Y-80321047D01*
X140798952Y-80368666D01*
X140751333Y-80463904D01*
X140751333Y-80654380D01*
X140798952Y-80749619D01*
X140846571Y-80797238D01*
X140941809Y-80844857D01*
X141370380Y-79321047D02*
X141370380Y-79892476D01*
X141370380Y-79606761D02*
X140370380Y-79606761D01*
X140513238Y-79702000D01*
X140608476Y-79797238D01*
X140656095Y-79892476D01*
X140465619Y-78940095D02*
X140418000Y-78892476D01*
X140370380Y-78797238D01*
X140370380Y-78559142D01*
X140418000Y-78463904D01*
X140465619Y-78416285D01*
X140560857Y-78368666D01*
X140656095Y-78368666D01*
X140798952Y-78416285D01*
X141370380Y-78987714D01*
X141370380Y-78368666D01*
X141370380Y-77892476D02*
X141370380Y-77702000D01*
X141322761Y-77606761D01*
X141275142Y-77559142D01*
X141132285Y-77463904D01*
X140941809Y-77416285D01*
X140560857Y-77416285D01*
X140465619Y-77463904D01*
X140418000Y-77511523D01*
X140370380Y-77606761D01*
X140370380Y-77797238D01*
X140418000Y-77892476D01*
X140465619Y-77940095D01*
X140560857Y-77987714D01*
X140798952Y-77987714D01*
X140894190Y-77940095D01*
X140941809Y-77892476D01*
X140989428Y-77797238D01*
X140989428Y-77606761D01*
X140941809Y-77511523D01*
X140894190Y-77463904D01*
X140798952Y-77416285D01*
X141084666Y-77035333D02*
X141084666Y-76559142D01*
X141370380Y-77130571D02*
X140370380Y-76797238D01*
X141370380Y-76463904D01*
X140846571Y-75797238D02*
X140846571Y-76130571D01*
X141370380Y-76130571D02*
X140370380Y-76130571D01*
X140370380Y-75654380D01*
X136981333Y-79948666D02*
X137774666Y-79948666D01*
X137868000Y-79902000D01*
X137914666Y-79855333D01*
X137961333Y-79762000D01*
X137961333Y-79575333D01*
X137914666Y-79482000D01*
X137868000Y-79435333D01*
X137774666Y-79388666D01*
X136981333Y-79388666D01*
X137308000Y-78502000D02*
X137961333Y-78502000D01*
X136934666Y-78735333D02*
X137634666Y-78968666D01*
X137634666Y-78362000D01*
X151387958Y-69231231D02*
X151530815Y-69278850D01*
X151578434Y-69326469D01*
X151626053Y-69421707D01*
X151626053Y-69564564D01*
X151578434Y-69659802D01*
X151530815Y-69707421D01*
X151435577Y-69755040D01*
X151054624Y-69755040D01*
X151054624Y-68755040D01*
X151387958Y-68755040D01*
X151483196Y-68802660D01*
X151530815Y-68850279D01*
X151578434Y-68945517D01*
X151578434Y-69040755D01*
X151530815Y-69135993D01*
X151483196Y-69183612D01*
X151387958Y-69231231D01*
X151054624Y-69231231D01*
X152483196Y-69755040D02*
X152483196Y-69231231D01*
X152435577Y-69135993D01*
X152340339Y-69088374D01*
X152149862Y-69088374D01*
X152054624Y-69135993D01*
X152483196Y-69707421D02*
X152387958Y-69755040D01*
X152149862Y-69755040D01*
X152054624Y-69707421D01*
X152007005Y-69612183D01*
X152007005Y-69516945D01*
X152054624Y-69421707D01*
X152149862Y-69374088D01*
X152387958Y-69374088D01*
X152483196Y-69326469D01*
X152816529Y-69088374D02*
X153197481Y-69088374D01*
X152959386Y-68755040D02*
X152959386Y-69612183D01*
X153007005Y-69707421D01*
X153102243Y-69755040D01*
X153197481Y-69755040D01*
X153387958Y-69088374D02*
X153768910Y-69088374D01*
X153530815Y-68755040D02*
X153530815Y-69612183D01*
X153578434Y-69707421D01*
X153673672Y-69755040D01*
X153768910Y-69755040D01*
X154483196Y-69707421D02*
X154387958Y-69755040D01*
X154197481Y-69755040D01*
X154102243Y-69707421D01*
X154054624Y-69612183D01*
X154054624Y-69231231D01*
X154102243Y-69135993D01*
X154197481Y-69088374D01*
X154387958Y-69088374D01*
X154483196Y-69135993D01*
X154530815Y-69231231D01*
X154530815Y-69326469D01*
X154054624Y-69421707D01*
X154959386Y-69755040D02*
X154959386Y-69088374D01*
X154959386Y-69278850D02*
X155007005Y-69183612D01*
X155054624Y-69135993D01*
X155149862Y-69088374D01*
X155245100Y-69088374D01*
X155483196Y-69088374D02*
X155721291Y-69755040D01*
X155959386Y-69088374D02*
X155721291Y-69755040D01*
X155626053Y-69993136D01*
X155578434Y-70040755D01*
X155483196Y-70088374D01*
X156102243Y-69850279D02*
X156864148Y-69850279D01*
X157673672Y-69659802D02*
X157626053Y-69707421D01*
X157483196Y-69755040D01*
X157387958Y-69755040D01*
X157245100Y-69707421D01*
X157149862Y-69612183D01*
X157102243Y-69516945D01*
X157054624Y-69326469D01*
X157054624Y-69183612D01*
X157102243Y-68993136D01*
X157149862Y-68897898D01*
X157245100Y-68802660D01*
X157387958Y-68755040D01*
X157483196Y-68755040D01*
X157626053Y-68802660D01*
X157673672Y-68850279D01*
X158483196Y-69707421D02*
X158387958Y-69755040D01*
X158197481Y-69755040D01*
X158102243Y-69707421D01*
X158054624Y-69612183D01*
X158054624Y-69231231D01*
X158102243Y-69135993D01*
X158197481Y-69088374D01*
X158387958Y-69088374D01*
X158483196Y-69135993D01*
X158530815Y-69231231D01*
X158530815Y-69326469D01*
X158054624Y-69421707D01*
X159102243Y-69755040D02*
X159007005Y-69707421D01*
X158959386Y-69612183D01*
X158959386Y-68755040D01*
X159626053Y-69755040D02*
X159530815Y-69707421D01*
X159483196Y-69612183D01*
X159483196Y-68755040D01*
X130571380Y-93811123D02*
X129571380Y-93811123D01*
X130285666Y-93477790D01*
X129571380Y-93144457D01*
X130571380Y-93144457D01*
X130047571Y-92334933D02*
X130095190Y-92192076D01*
X130142809Y-92144457D01*
X130238047Y-92096838D01*
X130380904Y-92096838D01*
X130476142Y-92144457D01*
X130523761Y-92192076D01*
X130571380Y-92287314D01*
X130571380Y-92668266D01*
X129571380Y-92668266D01*
X129571380Y-92334933D01*
X129619000Y-92239695D01*
X129666619Y-92192076D01*
X129761857Y-92144457D01*
X129857095Y-92144457D01*
X129952333Y-92192076D01*
X129999952Y-92239695D01*
X130047571Y-92334933D01*
X130047571Y-92668266D01*
X130476142Y-91096838D02*
X130523761Y-91144457D01*
X130571380Y-91287314D01*
X130571380Y-91382552D01*
X130523761Y-91525409D01*
X130428523Y-91620647D01*
X130333285Y-91668266D01*
X130142809Y-91715885D01*
X129999952Y-91715885D01*
X129809476Y-91668266D01*
X129714238Y-91620647D01*
X129619000Y-91525409D01*
X129571380Y-91382552D01*
X129571380Y-91287314D01*
X129619000Y-91144457D01*
X129666619Y-91096838D01*
X129571380Y-90763504D02*
X129571380Y-90144457D01*
X129952333Y-90477790D01*
X129952333Y-90334933D01*
X129999952Y-90239695D01*
X130047571Y-90192076D01*
X130142809Y-90144457D01*
X130380904Y-90144457D01*
X130476142Y-90192076D01*
X130523761Y-90239695D01*
X130571380Y-90334933D01*
X130571380Y-90620647D01*
X130523761Y-90715885D01*
X130476142Y-90763504D01*
X112244741Y-69327920D02*
X112244741Y-68327920D01*
X112816170Y-69327920D01*
X112816170Y-68327920D01*
X113292360Y-69327920D02*
X113292360Y-68661254D01*
X113292360Y-68327920D02*
X113244741Y-68375540D01*
X113292360Y-68423159D01*
X113339980Y-68375540D01*
X113292360Y-68327920D01*
X113292360Y-68423159D01*
X113768551Y-68661254D02*
X113768551Y-69327920D01*
X113768551Y-68756492D02*
X113816170Y-68708873D01*
X113911408Y-68661254D01*
X114054265Y-68661254D01*
X114149503Y-68708873D01*
X114197122Y-68804111D01*
X114197122Y-69327920D01*
X114530456Y-68661254D02*
X114911408Y-68661254D01*
X114673313Y-68327920D02*
X114673313Y-69185063D01*
X114720932Y-69280301D01*
X114816170Y-69327920D01*
X114911408Y-69327920D01*
X115625694Y-69280301D02*
X115530456Y-69327920D01*
X115339980Y-69327920D01*
X115244741Y-69280301D01*
X115197122Y-69185063D01*
X115197122Y-68804111D01*
X115244741Y-68708873D01*
X115339980Y-68661254D01*
X115530456Y-68661254D01*
X115625694Y-68708873D01*
X115673313Y-68804111D01*
X115673313Y-68899349D01*
X115197122Y-68994587D01*
X116101884Y-68661254D02*
X116101884Y-69327920D01*
X116101884Y-68756492D02*
X116149503Y-68708873D01*
X116244741Y-68661254D01*
X116387599Y-68661254D01*
X116482837Y-68708873D01*
X116530456Y-68804111D01*
X116530456Y-69327920D01*
X117435218Y-69327920D02*
X117435218Y-68327920D01*
X117435218Y-69280301D02*
X117339980Y-69327920D01*
X117149503Y-69327920D01*
X117054265Y-69280301D01*
X117006646Y-69232682D01*
X116959027Y-69137444D01*
X116959027Y-68851730D01*
X117006646Y-68756492D01*
X117054265Y-68708873D01*
X117149503Y-68661254D01*
X117339980Y-68661254D01*
X117435218Y-68708873D01*
X118054265Y-69327920D02*
X117959027Y-69280301D01*
X117911408Y-69232682D01*
X117863789Y-69137444D01*
X117863789Y-68851730D01*
X117911408Y-68756492D01*
X117959027Y-68708873D01*
X118054265Y-68661254D01*
X118197122Y-68661254D01*
X118292360Y-68708873D01*
X118339980Y-68756492D01*
X118387599Y-68851730D01*
X118387599Y-69137444D01*
X118339980Y-69232682D01*
X118292360Y-69280301D01*
X118197122Y-69327920D01*
X118054265Y-69327920D01*
X118578075Y-69423159D02*
X119339980Y-69423159D01*
X119482837Y-68327920D02*
X120101884Y-68327920D01*
X119768551Y-68708873D01*
X119911408Y-68708873D01*
X120006646Y-68756492D01*
X120054265Y-68804111D01*
X120101884Y-68899349D01*
X120101884Y-69137444D01*
X120054265Y-69232682D01*
X120006646Y-69280301D01*
X119911408Y-69327920D01*
X119625694Y-69327920D01*
X119530456Y-69280301D01*
X119482837Y-69232682D01*
X120435218Y-69327920D02*
X120959027Y-68661254D01*
X120435218Y-68661254D02*
X120959027Y-69327920D01*
X121244741Y-68327920D02*
X121863789Y-68327920D01*
X121530456Y-68708873D01*
X121673313Y-68708873D01*
X121768551Y-68756492D01*
X121816170Y-68804111D01*
X121863789Y-68899349D01*
X121863789Y-69137444D01*
X121816170Y-69232682D01*
X121768551Y-69280301D01*
X121673313Y-69327920D01*
X121387599Y-69327920D01*
X121292360Y-69280301D01*
X121244741Y-69232682D01*
X122054265Y-69423159D02*
X122816170Y-69423159D01*
X123578075Y-68375540D02*
X123482837Y-68327920D01*
X123339980Y-68327920D01*
X123197122Y-68375540D01*
X123101884Y-68470778D01*
X123054265Y-68566016D01*
X123006646Y-68756492D01*
X123006646Y-68899349D01*
X123054265Y-69089825D01*
X123101884Y-69185063D01*
X123197122Y-69280301D01*
X123339980Y-69327920D01*
X123435218Y-69327920D01*
X123578075Y-69280301D01*
X123625694Y-69232682D01*
X123625694Y-68899349D01*
X123435218Y-68899349D01*
X124054265Y-69327920D02*
X124054265Y-68327920D01*
X124625694Y-69327920D01*
X124625694Y-68327920D01*
X125101884Y-69327920D02*
X125101884Y-68327920D01*
X125339980Y-68327920D01*
X125482837Y-68375540D01*
X125578075Y-68470778D01*
X125625694Y-68566016D01*
X125673313Y-68756492D01*
X125673313Y-68899349D01*
X125625694Y-69089825D01*
X125578075Y-69185063D01*
X125482837Y-69280301D01*
X125339980Y-69327920D01*
X125101884Y-69327920D01*
X126101884Y-69327920D02*
X126101884Y-68327920D01*
X126482837Y-68327920D01*
X126578075Y-68375540D01*
X126625694Y-68423159D01*
X126673313Y-68518397D01*
X126673313Y-68661254D01*
X126625694Y-68756492D01*
X126578075Y-68804111D01*
X126482837Y-68851730D01*
X126101884Y-68851730D01*
X127530456Y-69327920D02*
X127530456Y-68804111D01*
X127482837Y-68708873D01*
X127387599Y-68661254D01*
X127197122Y-68661254D01*
X127101884Y-68708873D01*
X127530456Y-69280301D02*
X127435218Y-69327920D01*
X127197122Y-69327920D01*
X127101884Y-69280301D01*
X127054265Y-69185063D01*
X127054265Y-69089825D01*
X127101884Y-68994587D01*
X127197122Y-68946968D01*
X127435218Y-68946968D01*
X127530456Y-68899349D01*
X128435218Y-69327920D02*
X128435218Y-68327920D01*
X128435218Y-69280301D02*
X128339980Y-69327920D01*
X128149503Y-69327920D01*
X128054265Y-69280301D01*
X128006646Y-69232682D01*
X127959027Y-69137444D01*
X127959027Y-68851730D01*
X128006646Y-68756492D01*
X128054265Y-68708873D01*
X128149503Y-68661254D01*
X128339980Y-68661254D01*
X128435218Y-68708873D01*
D13*
X123720000Y-102214000D02*
X123720000Y-105264000D01*
X122070000Y-102639000D02*
X122470000Y-102214000D01*
X123720000Y-102214000D02*
X122470000Y-102214000D01*
X122070000Y-102639000D02*
X122070000Y-105264000D01*
X123720000Y-105264000D02*
X122070000Y-105264000D01*
X163831000Y-97122100D02*
X163831000Y-98722100D01*
X163031000Y-98722100D02*
X163031000Y-97122100D01*
X163031000Y-97122100D02*
X163831000Y-97122100D01*
X163831000Y-98722100D02*
X163031000Y-98722100D01*
X161150000Y-116060000D02*
X162750000Y-116060000D01*
X162750000Y-116060000D02*
X162750000Y-116860000D01*
X161150000Y-116860000D02*
X161150000Y-116060000D01*
X162750000Y-116860000D02*
X161150000Y-116860000D01*
X137219000Y-99647400D02*
X137219000Y-98847400D01*
X138819000Y-99647400D02*
X137219000Y-99647400D01*
X137219000Y-98847400D02*
X138819000Y-98847400D01*
X138819000Y-98847400D02*
X138819000Y-99647400D01*
X132018000Y-81402000D02*
X132018000Y-80602000D01*
X133618000Y-81402000D02*
X132018000Y-81402000D01*
X133618000Y-80602000D02*
X133618000Y-81402000D01*
X132018000Y-80602000D02*
X133618000Y-80602000D01*
X128018000Y-80602000D02*
X129618000Y-80602000D01*
X129618000Y-80602000D02*
X129618000Y-81402000D01*
X129618000Y-81402000D02*
X128018000Y-81402000D01*
X128018000Y-81402000D02*
X128018000Y-80602000D01*
X120719000Y-88002000D02*
X120719000Y-89602000D01*
X119919000Y-89602000D02*
X119919000Y-88002000D01*
X120719000Y-89602000D02*
X119919000Y-89602000D01*
X119919000Y-88002000D02*
X120719000Y-88002000D01*
X123720000Y-107810000D02*
X123720000Y-108610000D01*
X122120000Y-107810000D02*
X123720000Y-107810000D01*
X123720000Y-108610000D02*
X122120000Y-108610000D01*
X122120000Y-108610000D02*
X122120000Y-107810000D01*
X129618000Y-83402000D02*
X129618000Y-84202000D01*
X128018000Y-84202000D02*
X128018000Y-83402000D01*
X128018000Y-83402000D02*
X129618000Y-83402000D01*
X129618000Y-84202000D02*
X128018000Y-84202000D01*
X141210000Y-99870000D02*
X141210000Y-101470000D01*
X141210000Y-101470000D02*
X140410000Y-101470000D01*
X140410000Y-101470000D02*
X140410000Y-99870000D01*
X140410000Y-99870000D02*
X141210000Y-99870000D01*
X136200000Y-85200000D02*
X137800000Y-85200000D01*
X136200000Y-86000000D02*
X136200000Y-85200000D01*
X137800000Y-86000000D02*
X136200000Y-86000000D01*
X137800000Y-85200000D02*
X137800000Y-86000000D01*
X135369000Y-118952000D02*
X127869000Y-118952000D01*
X128869000Y-101052000D02*
X135369000Y-101052000D01*
X127869000Y-118952000D02*
X127869000Y-102052000D01*
X135369000Y-101052000D02*
X135369000Y-118952000D01*
X127869000Y-102052000D02*
X128869000Y-101052000D01*
X139968000Y-77252000D02*
X139968000Y-81152000D01*
X136043000Y-81152000D02*
X135068000Y-80177000D01*
X139968000Y-81152000D02*
X136043000Y-81152000D01*
X135068000Y-77252000D02*
X139968000Y-77252000D01*
X135068000Y-80177000D02*
X135068000Y-77252000D01*
D14*
X117920000Y-128502000D02*
X117920000Y-121451944D01*
X167620000Y-121202000D02*
X167569944Y-121201944D01*
X167320000Y-128502000D02*
X167320000Y-121451944D01*
X119420000Y-130002000D02*
X165820000Y-130002000D01*
X117670000Y-121202000D02*
X117620000Y-121202000D01*
X117120000Y-120702000D02*
G75*
G03*
X117620000Y-121202000I500001J1D01*
G01*
X165820000Y-130002000D02*
G75*
G03*
X167320000Y-128502000I0J1500000D01*
G01*
X117920000Y-121451944D02*
G75*
G03*
X117670000Y-121202000I-250001J-57D01*
G01*
X117920000Y-128502000D02*
G75*
G03*
X119420000Y-130002000I1500001J1D01*
G01*
X167569944Y-121201900D02*
G75*
G03*
X167320000Y-121451944I56J-250000D01*
G01*
X167620000Y-121202000D02*
G75*
G03*
X168120000Y-120702000I0J500000D01*
G01*
D13*
X127771020Y-95765760D02*
X126771020Y-94765760D01*
X126771020Y-88765760D02*
X133771020Y-88765760D01*
X133771020Y-88765760D02*
X133771020Y-95765760D01*
X126771020Y-94765760D02*
X126771020Y-88765760D01*
X133771020Y-95765760D02*
X127771020Y-95765760D01*
M02*
