G04 #@! TF.GenerationSoftware,KiCad,Pcbnew,(6.0.8)*
G04 #@! TF.CreationDate,2023-01-17T04:08:54-05:00*
G04 #@! TF.ProjectId,DMG-KGDU-10+,444d472d-4b47-4445-952d-31302b2e6b69,rev?*
G04 #@! TF.SameCoordinates,Original*
G04 #@! TF.FileFunction,Soldermask,Bot*
G04 #@! TF.FilePolarity,Negative*
%FSLAX46Y46*%
G04 Gerber Fmt 4.6, Leading zero omitted, Abs format (unit mm)*
G04 Created by KiCad (PCBNEW (6.0.8)) date 2023-01-17 04:08:54*
%MOMM*%
%LPD*%
G01*
G04 APERTURE LIST*
%ADD10C,0.150000*%
%ADD11C,0.100000*%
%ADD12C,0.901600*%
%ADD13R,3.300000X1.800000*%
%ADD14O,2.101600X4.101600*%
G04 APERTURE END LIST*
D10*
X121543696Y-101628573D02*
X121139635Y-102032634D01*
X122048772Y-102537710D02*
X121341665Y-101830603D01*
X121611039Y-102975443D02*
X120903932Y-102268336D01*
X120634558Y-102537710D01*
X120600887Y-102638725D01*
X120600887Y-102706069D01*
X120634558Y-102807084D01*
X120735574Y-102908099D01*
X120836589Y-102941771D01*
X120903932Y-102941771D01*
X121004948Y-102908100D01*
X121274322Y-102638725D01*
X120264169Y-102908100D02*
X119826436Y-103345832D01*
X120331513Y-103379504D01*
X120230497Y-103480519D01*
X120196826Y-103581535D01*
X120196826Y-103648878D01*
X120230497Y-103749893D01*
X120398856Y-103918252D01*
X120499871Y-103951924D01*
X120567215Y-103951924D01*
X120668230Y-103918252D01*
X120870261Y-103716222D01*
X120903932Y-103615206D01*
X120903932Y-103547863D01*
X122361576Y-96096453D02*
X121957515Y-96500514D01*
X122866652Y-97005590D02*
X122159545Y-96298483D01*
X122428919Y-97443323D02*
X121721812Y-96736216D01*
X121452438Y-97005590D01*
X121418767Y-97106605D01*
X121418767Y-97173949D01*
X121452438Y-97274964D01*
X121553454Y-97375979D01*
X121654469Y-97409651D01*
X121721812Y-97409651D01*
X121822828Y-97375980D01*
X122092202Y-97106605D01*
X121115721Y-97476995D02*
X121048377Y-97476995D01*
X120947362Y-97510667D01*
X120779003Y-97679025D01*
X120745332Y-97780041D01*
X120745332Y-97847384D01*
X120779003Y-97948399D01*
X120846347Y-98015743D01*
X120981034Y-98083086D01*
X121789156Y-98083086D01*
X121351423Y-98520819D01*
X122160916Y-90317953D02*
X121756855Y-90722014D01*
X122665992Y-91227090D02*
X121958885Y-90519983D01*
X122228259Y-91664823D02*
X121521152Y-90957716D01*
X121251778Y-91227090D01*
X121218107Y-91328105D01*
X121218107Y-91395449D01*
X121251778Y-91496464D01*
X121352794Y-91597479D01*
X121453809Y-91631151D01*
X121521152Y-91631151D01*
X121622168Y-91597480D01*
X121891542Y-91328105D01*
X121150763Y-92742319D02*
X121554824Y-92338258D01*
X121352794Y-92540289D02*
X120645687Y-91833182D01*
X120814046Y-91866854D01*
X120948733Y-91866854D01*
X121049748Y-91833182D01*
D11*
X150014775Y-79617433D02*
X150014775Y-80017433D01*
X150014775Y-79817433D02*
X150814775Y-79817433D01*
X150700489Y-79884100D01*
X150624299Y-79950766D01*
X150586203Y-80017433D01*
X150738584Y-79350766D02*
X150776680Y-79317433D01*
X150814775Y-79250766D01*
X150814775Y-79084100D01*
X150776680Y-79017433D01*
X150738584Y-78984100D01*
X150662394Y-78950766D01*
X150586203Y-78950766D01*
X150471918Y-78984100D01*
X150014775Y-79384100D01*
X150014775Y-78950766D01*
X150814775Y-84681719D02*
X150814775Y-84834100D01*
X150776680Y-84910290D01*
X150738584Y-84948385D01*
X150624299Y-85024576D01*
X150471918Y-85062671D01*
X150167156Y-85062671D01*
X150090965Y-85024576D01*
X150052870Y-84986480D01*
X150014775Y-84910290D01*
X150014775Y-84757909D01*
X150052870Y-84681719D01*
X150090965Y-84643623D01*
X150167156Y-84605528D01*
X150357632Y-84605528D01*
X150433822Y-84643623D01*
X150471918Y-84681719D01*
X150510013Y-84757909D01*
X150510013Y-84910290D01*
X150471918Y-84986480D01*
X150433822Y-85024576D01*
X150357632Y-85062671D01*
X155945415Y-84605528D02*
X155945415Y-85062671D01*
X155945415Y-84834100D02*
X156745415Y-84834100D01*
X156631129Y-84910290D01*
X156554939Y-84986480D01*
X156516843Y-85062671D01*
D10*
X158123799Y-83238861D02*
X157933322Y-83334100D01*
X158028560Y-82857909D02*
X158076180Y-82810290D01*
X158123799Y-82715052D01*
X158123799Y-82476957D01*
X158076180Y-82381719D01*
X158028560Y-82334100D01*
X157933322Y-82286480D01*
X157838084Y-82286480D01*
X157695227Y-82334100D01*
X157123799Y-82905528D01*
X157123799Y-82286480D01*
X157123799Y-81334100D02*
X157123799Y-81905528D01*
X157123799Y-81619814D02*
X158123799Y-81619814D01*
X157980941Y-81715052D01*
X157885703Y-81810290D01*
X157838084Y-81905528D01*
D11*
X156745415Y-80100766D02*
X156745415Y-79567433D01*
X155945415Y-79910290D01*
D10*
X121759596Y-107435013D02*
X121355535Y-107839074D01*
X122264672Y-108344150D02*
X121557565Y-107637043D01*
X121826939Y-108781883D02*
X121119832Y-108074776D01*
X120850458Y-108344150D01*
X120816787Y-108445165D01*
X120816787Y-108512509D01*
X120850458Y-108613524D01*
X120951474Y-108714539D01*
X121052489Y-108748211D01*
X121119832Y-108748211D01*
X121220848Y-108714540D01*
X121490222Y-108445165D01*
X120345382Y-109320631D02*
X120816787Y-109792036D01*
X120244367Y-108882898D02*
X120917802Y-109219616D01*
X120480069Y-109657349D01*
G36*
X120619000Y-72802000D02*
G01*
X119619000Y-72802000D01*
X119619000Y-71802000D01*
X120619000Y-71802000D01*
X120619000Y-72802000D01*
G37*
D11*
X120619000Y-72802000D02*
X119619000Y-72802000D01*
X119619000Y-71802000D01*
X120619000Y-71802000D01*
X120619000Y-72802000D01*
D10*
X121543696Y-101628573D02*
X121139635Y-102032634D01*
X122048772Y-102537710D02*
X121341665Y-101830603D01*
X121611039Y-102975443D02*
X120903932Y-102268336D01*
X120634558Y-102537710D01*
X120600887Y-102638725D01*
X120600887Y-102706069D01*
X120634558Y-102807084D01*
X120735574Y-102908099D01*
X120836589Y-102941771D01*
X120903932Y-102941771D01*
X121004948Y-102908100D01*
X121274322Y-102638725D01*
X120264169Y-102908100D02*
X119826436Y-103345832D01*
X120331513Y-103379504D01*
X120230497Y-103480519D01*
X120196826Y-103581535D01*
X120196826Y-103648878D01*
X120230497Y-103749893D01*
X120398856Y-103918252D01*
X120499871Y-103951924D01*
X120567215Y-103951924D01*
X120668230Y-103918252D01*
X120870261Y-103716222D01*
X120903932Y-103615206D01*
X120903932Y-103547863D01*
X122361576Y-96096453D02*
X121957515Y-96500514D01*
X122866652Y-97005590D02*
X122159545Y-96298483D01*
X122428919Y-97443323D02*
X121721812Y-96736216D01*
X121452438Y-97005590D01*
X121418767Y-97106605D01*
X121418767Y-97173949D01*
X121452438Y-97274964D01*
X121553454Y-97375979D01*
X121654469Y-97409651D01*
X121721812Y-97409651D01*
X121822828Y-97375980D01*
X122092202Y-97106605D01*
X121115721Y-97476995D02*
X121048377Y-97476995D01*
X120947362Y-97510667D01*
X120779003Y-97679025D01*
X120745332Y-97780041D01*
X120745332Y-97847384D01*
X120779003Y-97948399D01*
X120846347Y-98015743D01*
X120981034Y-98083086D01*
X121789156Y-98083086D01*
X121351423Y-98520819D01*
X122160916Y-90317953D02*
X121756855Y-90722014D01*
X122665992Y-91227090D02*
X121958885Y-90519983D01*
X122228259Y-91664823D02*
X121521152Y-90957716D01*
X121251778Y-91227090D01*
X121218107Y-91328105D01*
X121218107Y-91395449D01*
X121251778Y-91496464D01*
X121352794Y-91597479D01*
X121453809Y-91631151D01*
X121521152Y-91631151D01*
X121622168Y-91597480D01*
X121891542Y-91328105D01*
X121150763Y-92742319D02*
X121554824Y-92338258D01*
X121352794Y-92540289D02*
X120645687Y-91833182D01*
X120814046Y-91866854D01*
X120948733Y-91866854D01*
X121049748Y-91833182D01*
D11*
X150014775Y-79617433D02*
X150014775Y-80017433D01*
X150014775Y-79817433D02*
X150814775Y-79817433D01*
X150700489Y-79884100D01*
X150624299Y-79950766D01*
X150586203Y-80017433D01*
X150738584Y-79350766D02*
X150776680Y-79317433D01*
X150814775Y-79250766D01*
X150814775Y-79084100D01*
X150776680Y-79017433D01*
X150738584Y-78984100D01*
X150662394Y-78950766D01*
X150586203Y-78950766D01*
X150471918Y-78984100D01*
X150014775Y-79384100D01*
X150014775Y-78950766D01*
X150814775Y-84681719D02*
X150814775Y-84834100D01*
X150776680Y-84910290D01*
X150738584Y-84948385D01*
X150624299Y-85024576D01*
X150471918Y-85062671D01*
X150167156Y-85062671D01*
X150090965Y-85024576D01*
X150052870Y-84986480D01*
X150014775Y-84910290D01*
X150014775Y-84757909D01*
X150052870Y-84681719D01*
X150090965Y-84643623D01*
X150167156Y-84605528D01*
X150357632Y-84605528D01*
X150433822Y-84643623D01*
X150471918Y-84681719D01*
X150510013Y-84757909D01*
X150510013Y-84910290D01*
X150471918Y-84986480D01*
X150433822Y-85024576D01*
X150357632Y-85062671D01*
X155945415Y-84605528D02*
X155945415Y-85062671D01*
X155945415Y-84834100D02*
X156745415Y-84834100D01*
X156631129Y-84910290D01*
X156554939Y-84986480D01*
X156516843Y-85062671D01*
D10*
X158123799Y-83238861D02*
X157933322Y-83334100D01*
X158028560Y-82857909D02*
X158076180Y-82810290D01*
X158123799Y-82715052D01*
X158123799Y-82476957D01*
X158076180Y-82381719D01*
X158028560Y-82334100D01*
X157933322Y-82286480D01*
X157838084Y-82286480D01*
X157695227Y-82334100D01*
X157123799Y-82905528D01*
X157123799Y-82286480D01*
X157123799Y-81334100D02*
X157123799Y-81905528D01*
X157123799Y-81619814D02*
X158123799Y-81619814D01*
X157980941Y-81715052D01*
X157885703Y-81810290D01*
X157838084Y-81905528D01*
D11*
X156745415Y-80100766D02*
X156745415Y-79567433D01*
X155945415Y-79910290D01*
D10*
X121759596Y-107435013D02*
X121355535Y-107839074D01*
X122264672Y-108344150D02*
X121557565Y-107637043D01*
X121826939Y-108781883D02*
X121119832Y-108074776D01*
X120850458Y-108344150D01*
X120816787Y-108445165D01*
X120816787Y-108512509D01*
X120850458Y-108613524D01*
X120951474Y-108714539D01*
X121052489Y-108748211D01*
X121119832Y-108748211D01*
X121220848Y-108714540D01*
X121490222Y-108445165D01*
X120345382Y-109320631D02*
X120816787Y-109792036D01*
X120244367Y-108882898D02*
X120917802Y-109219616D01*
X120480069Y-109657349D01*
G36*
X120619000Y-72802000D02*
G01*
X119619000Y-72802000D01*
X119619000Y-71802000D01*
X120619000Y-71802000D01*
X120619000Y-72802000D01*
G37*
D11*
X120619000Y-72802000D02*
X119619000Y-72802000D01*
X119619000Y-71802000D01*
X120619000Y-71802000D01*
X120619000Y-72802000D01*
D12*
X119120000Y-122402000D03*
X120870000Y-122402000D03*
X122370000Y-122402000D03*
X123870000Y-122402000D03*
X125370000Y-122402000D03*
X126870000Y-122402000D03*
X128370000Y-122402000D03*
X129870000Y-122402000D03*
X131370000Y-122402000D03*
X132870000Y-122402000D03*
X134370000Y-122402000D03*
X135870000Y-122402000D03*
X137370000Y-122402000D03*
X138870000Y-122402000D03*
X140370000Y-122402000D03*
X141870000Y-122402000D03*
X143370000Y-122402000D03*
X144870000Y-122402000D03*
X146370000Y-122402000D03*
X147870000Y-122402000D03*
X149370000Y-122402000D03*
X150870000Y-122402000D03*
X152370000Y-122402000D03*
X153870000Y-122402000D03*
X155370000Y-122402000D03*
X156870000Y-122402000D03*
X158370000Y-122402000D03*
X159870000Y-122402000D03*
X161370000Y-122402000D03*
X162870000Y-122402000D03*
X164370000Y-122402000D03*
X166120000Y-122402000D03*
D13*
X155192000Y-81284100D03*
X155192000Y-83384100D03*
X151492000Y-81284100D03*
X151492000Y-83384100D03*
D14*
X119319000Y-93802000D03*
X119319000Y-99802000D03*
X119319000Y-105802000D03*
X119319000Y-111802000D03*
M02*
