%TF.GenerationSoftware,KiCad,Pcbnew,(6.0.8)*%
%TF.CreationDate,2023-01-17T04:08:50-05:00*%
%TF.ProjectId,DMG-KGDU-10+,444d472d-4b47-4445-952d-31302b2e6b69,rev?*%
%TF.SameCoordinates,Original*%
%TF.FileFunction,Drillmap*%
%TF.FilePolarity,Positive*%
%FSLAX45Y45*%
G04 Gerber Fmt 4.5, Leading zero omitted, Abs format (unit mm)*
G04 Created by KiCad (PCBNEW (6.0.8)) date 2023-01-17 04:08:50*
%MOMM*%
%LPD*%
G01*
G04 APERTURE LIST*
%ADD10C,0.200000*%
G04 APERTURE END LIST*
D10*
X16762000Y-7160200D02*
X16457000Y-7160200D01*
X16307000Y-6930200D02*
X11811900Y-6930200D01*
X11942044Y-13000156D02*
X16582044Y-13000243D01*
X16407000Y-7030200D02*
X16407000Y-7110200D01*
X11711900Y-7030200D02*
X11712000Y-12070200D01*
X14372000Y-8935200D02*
G75*
G03*
X14372000Y-8935200I-110000J0D01*
G01*
X14627000Y-11435200D02*
G75*
G03*
X14627000Y-11435200I-365000J0D01*
G01*
X16812000Y-12070200D02*
X16812000Y-7210200D01*
X12096900Y-7570200D02*
X12696900Y-7570200D01*
X16757000Y-12120200D02*
G75*
G03*
X16732000Y-12145200I0J-25000D01*
G01*
X12096900Y-7570200D02*
G75*
G03*
X12071900Y-7595200I0J-25000D01*
G01*
X12721900Y-7595200D02*
G75*
G03*
X12696900Y-7570200I-25000J0D01*
G01*
X12696900Y-7760200D02*
G75*
G03*
X12721900Y-7735200I0J25000D01*
G01*
X16582044Y-13000240D02*
G75*
G03*
X16732000Y-12850200I-44J150000D01*
G01*
X16732000Y-12850200D02*
X16732000Y-12145200D01*
X16762000Y-12120200D02*
X16757000Y-12120200D01*
X11792000Y-12850200D02*
X11792000Y-12145200D01*
X11792000Y-12145200D02*
G75*
G03*
X11767000Y-12120200I-25000J0D01*
G01*
X11767000Y-12120200D02*
X11762000Y-12120200D01*
X11712000Y-12070200D02*
G75*
G03*
X11762000Y-12120200I50000J0D01*
G01*
X16407000Y-7030200D02*
G75*
G03*
X16307000Y-6930200I-100000J0D01*
G01*
X16812000Y-7210200D02*
G75*
G03*
X16762000Y-7160200I-50000J0D01*
G01*
X12071900Y-7595200D02*
X12071900Y-7735200D01*
X12071900Y-7735200D02*
G75*
G03*
X12096900Y-7760200I25000J0D01*
G01*
X13931900Y-7360200D02*
G75*
G03*
X13931900Y-7360200I-150000J0D01*
G01*
X12696900Y-7760200D02*
X12096900Y-7760200D01*
X16762000Y-12120200D02*
G75*
G03*
X16812000Y-12070200I0J50000D01*
G01*
X11811900Y-6930200D02*
G75*
G03*
X11711900Y-7030200I0J-100000D01*
G01*
X12721900Y-7595200D02*
X12721900Y-7735200D01*
X11792004Y-12850200D02*
G75*
G03*
X11942044Y-13000156I149996J40D01*
G01*
X16407000Y-7110200D02*
G75*
G03*
X16457000Y-7160200I50000J0D01*
G01*
X11959519Y-13320720D02*
X11959519Y-13120720D01*
X12007138Y-13120720D01*
X12035709Y-13130243D01*
X12054757Y-13149291D01*
X12064281Y-13168339D01*
X12073805Y-13206434D01*
X12073805Y-13235005D01*
X12064281Y-13273101D01*
X12054757Y-13292148D01*
X12035709Y-13311196D01*
X12007138Y-13320720D01*
X11959519Y-13320720D01*
X12159519Y-13320720D02*
X12159519Y-13187386D01*
X12159519Y-13225481D02*
X12169043Y-13206434D01*
X12178567Y-13196910D01*
X12197614Y-13187386D01*
X12216662Y-13187386D01*
X12283328Y-13320720D02*
X12283328Y-13187386D01*
X12283328Y-13120720D02*
X12273805Y-13130243D01*
X12283328Y-13139767D01*
X12292852Y-13130243D01*
X12283328Y-13120720D01*
X12283328Y-13139767D01*
X12407138Y-13320720D02*
X12388090Y-13311196D01*
X12378567Y-13292148D01*
X12378567Y-13120720D01*
X12511900Y-13320720D02*
X12492852Y-13311196D01*
X12483328Y-13292148D01*
X12483328Y-13120720D01*
X12740471Y-13320720D02*
X12740471Y-13120720D01*
X12807138Y-13263577D01*
X12873805Y-13120720D01*
X12873805Y-13320720D01*
X13054757Y-13320720D02*
X13054757Y-13215958D01*
X13045233Y-13196910D01*
X13026186Y-13187386D01*
X12988090Y-13187386D01*
X12969043Y-13196910D01*
X13054757Y-13311196D02*
X13035709Y-13320720D01*
X12988090Y-13320720D01*
X12969043Y-13311196D01*
X12959519Y-13292148D01*
X12959519Y-13273101D01*
X12969043Y-13254053D01*
X12988090Y-13244529D01*
X13035709Y-13244529D01*
X13054757Y-13235005D01*
X13149995Y-13187386D02*
X13149995Y-13387386D01*
X13149995Y-13196910D02*
X13169043Y-13187386D01*
X13207138Y-13187386D01*
X13226186Y-13196910D01*
X13235709Y-13206434D01*
X13245233Y-13225481D01*
X13245233Y-13282624D01*
X13235709Y-13301672D01*
X13226186Y-13311196D01*
X13207138Y-13320720D01*
X13169043Y-13320720D01*
X13149995Y-13311196D01*
X13330948Y-13301672D02*
X13340471Y-13311196D01*
X13330948Y-13320720D01*
X13321424Y-13311196D01*
X13330948Y-13301672D01*
X13330948Y-13320720D01*
X13330948Y-13196910D02*
X13340471Y-13206434D01*
X13330948Y-13215958D01*
X13321424Y-13206434D01*
X13330948Y-13196910D01*
X13330948Y-13215958D01*
M02*
