M48
; DRILL file {KiCad (6.0.8)} date Tue Jan 17 04:08:51 2023
; FORMAT={-:-/ absolute / metric / decimal}
; #@! TF.CreationDate,2023-01-17T04:08:51-05:00
; #@! TF.GenerationSoftware,Kicad,Pcbnew,(6.0.8)
; #@! TF.FileFunction,Plated,1,2,PTH
FMAT,2
METRIC
; #@! TA.AperFunction,Plated,PTH,ViaDrill
T1C0.400
; #@! TA.AperFunction,Plated,PTH,ComponentDrill
T2C0.600
; #@! TA.AperFunction,Plated,PTH,ViaDrill
T3C2.000
%
G90
G05
T1
X118.143Y-78.997
X120.167Y-91.013
X120.317Y-86.794
X120.825Y-96.3
X122.136Y-81.775
X122.18Y-113.15
X122.93Y-110.85
X123.725Y-96.575
X123.896Y-111.66
X124.771Y-112.974
X124.894Y-105.306
X125.131Y-84.127
X126.189Y-95.945
X126.857Y-86.036
X127.482Y-94.275
X127.535Y-93.261
X127.838Y-92.003
X127.951Y-76.979
X128.288Y-79.517
X128.615Y-103.017
X128.736Y-108.482
X128.952Y-101.881
X129.068Y-78.405
X129.276Y-100.733
X129.451Y-90.757
X129.472Y-99.246
X129.58Y-104.762
X130.114Y-108.531
X130.529Y-97.87
X130.8Y-80.952
X131.122Y-101.378
X131.25Y-90.05
X131.267Y-100.174
X132.45Y-90.925
X132.639Y-97.892
X133.721Y-97.847
X134.0Y-84.6
X134.31Y-104.534
X134.333Y-101.067
X134.59Y-96.852
X135.294Y-97.562
X135.4Y-79.7
X135.4Y-83.8
X136.073Y-96.935
X136.545Y-91.849
X137.073Y-96.916
X137.45Y-90.775
X137.742Y-70.447
X137.918Y-109.306
X138.0Y-105.328
X138.547Y-104.386
X138.674Y-106.069
X138.75Y-95.925
X139.675Y-105.806
X140.63Y-97.02
X140.8Y-91.35
X141.075Y-106.7
X141.185Y-78.614
X141.75Y-94.666
X142.625Y-92.825
X143.475Y-94.125
X144.2Y-92.8
X144.37Y-108.103
X145.9Y-94.5
X146.071Y-119.56
X146.125Y-101.55
X146.825Y-118.125
X146.825Y-103.899
X147.025Y-97.625
X147.6Y-104.75
X147.694Y-114.923
X147.785Y-117.1
X147.85Y-100.625
X149.025Y-94.5
X150.0Y-95.5
X150.8Y-102.425
X150.85Y-104.825
X151.025Y-100.7
X151.125Y-99.2
X151.575Y-111.075
X152.125Y-103.275
X152.425Y-112.375
X153.025Y-106.925
X153.075Y-105.325
X153.375Y-102.8
X153.925Y-115.85
X154.175Y-95.15
X154.3Y-99.725
X154.725Y-117.25
X155.025Y-97.15
X155.775Y-104.575
X156.325Y-112.85
X156.35Y-103.05
X156.575Y-108.575
X156.675Y-111.275
X156.725Y-106.05
X156.79Y-98.14
X156.925Y-94.125
X157.07Y-99.42
X157.3Y-109.775
X158.2Y-93.95
X158.225Y-95.325
X158.575Y-107.375
X158.825Y-103.325
X158.875Y-101.85
X159.45Y-114.675
X159.6Y-110.15
X159.674Y-113.0
X159.7Y-111.525
X164.501Y-100.668
X166.014Y-76.492
X166.116Y-88.227
T2
X119.12Y-122.402
X120.87Y-122.402
X122.37Y-122.402
X123.87Y-122.402
X125.37Y-122.402
X126.87Y-122.402
X128.37Y-122.402
X129.87Y-122.402
X131.37Y-122.402
X132.87Y-122.402
X134.37Y-122.402
X135.87Y-122.402
X137.37Y-122.402
X138.87Y-122.402
X140.37Y-122.402
X141.87Y-122.402
X143.37Y-122.402
X144.87Y-122.402
X146.37Y-122.402
X147.87Y-122.402
X149.37Y-122.402
X150.87Y-122.402
X152.37Y-122.402
X153.87Y-122.402
X155.37Y-122.402
X156.87Y-122.402
X158.37Y-122.402
X159.87Y-122.402
X161.37Y-122.402
X162.87Y-122.402
X164.37Y-122.402
X166.12Y-122.402
T3
X165.62Y-120.002
T0
M30
