G04 #@! TF.GenerationSoftware,KiCad,Pcbnew,(6.0.8)*
G04 #@! TF.CreationDate,2023-01-17T04:08:54-05:00*
G04 #@! TF.ProjectId,DMG-KGDU-10+,444d472d-4b47-4445-952d-31302b2e6b69,rev?*
G04 #@! TF.SameCoordinates,Original*
G04 #@! TF.FileFunction,Soldermask,Top*
G04 #@! TF.FilePolarity,Negative*
%FSLAX46Y46*%
G04 Gerber Fmt 4.6, Leading zero omitted, Abs format (unit mm)*
G04 Created by KiCad (PCBNEW (6.0.8)) date 2023-01-17 04:08:54*
%MOMM*%
%LPD*%
G01*
G04 APERTURE LIST*
G04 Aperture macros list*
%AMRoundRect*
0 Rectangle with rounded corners*
0 $1 Rounding radius*
0 $2 $3 $4 $5 $6 $7 $8 $9 X,Y pos of 4 corners*
0 Add a 4 corners polygon primitive as box body*
4,1,4,$2,$3,$4,$5,$6,$7,$8,$9,$2,$3,0*
0 Add four circle primitives for the rounded corners*
1,1,$1+$1,$2,$3*
1,1,$1+$1,$4,$5*
1,1,$1+$1,$6,$7*
1,1,$1+$1,$8,$9*
0 Add four rect primitives between the rounded corners*
20,1,$1+$1,$2,$3,$4,$5,0*
20,1,$1+$1,$4,$5,$6,$7,0*
20,1,$1+$1,$6,$7,$8,$9,0*
20,1,$1+$1,$8,$9,$2,$3,0*%
%AMFreePoly0*
4,1,14,0.285921,2.035921,0.785921,1.535921,0.800800,1.500000,0.800800,-2.000000,0.785921,-2.035921,0.750000,-2.050800,-0.750000,-2.050800,-0.785921,-2.035921,-0.800800,-2.000000,-0.800800,2.000000,-0.785921,2.035921,-0.750000,2.050800,0.250000,2.050800,0.285921,2.035921,0.285921,2.035921,$1*%
%AMFreePoly1*
4,1,14,0.785921,2.035921,0.800800,2.000000,0.800800,-2.000000,0.785921,-2.035921,0.750000,-2.050800,-0.750000,-2.050800,-0.785921,-2.035921,-0.800800,-2.000000,-0.800800,1.500000,-0.785921,1.535921,-0.285921,2.035921,-0.250000,2.050800,0.750000,2.050800,0.785921,2.035921,0.785921,2.035921,$1*%
G04 Aperture macros list end*
%ADD10C,0.150000*%
%ADD11C,0.100000*%
%ADD12FreePoly0,90.000000*%
%ADD13FreePoly1,90.000000*%
%ADD14RoundRect,0.050800X-0.350000X-0.255000X0.350000X-0.255000X0.350000X0.255000X-0.350000X0.255000X0*%
%ADD15RoundRect,0.269550X0.256250X-0.218750X0.256250X0.218750X-0.256250X0.218750X-0.256250X-0.218750X0*%
%ADD16RoundRect,0.269550X0.218750X0.256250X-0.218750X0.256250X-0.218750X-0.256250X0.218750X-0.256250X0*%
%ADD17RoundRect,0.269550X-0.218750X-0.256250X0.218750X-0.256250X0.218750X0.256250X-0.218750X0.256250X0*%
%ADD18RoundRect,0.200800X-0.875000X-0.150000X0.875000X-0.150000X0.875000X0.150000X-0.875000X0.150000X0*%
%ADD19RoundRect,0.200800X0.150000X-0.825000X0.150000X0.825000X-0.150000X0.825000X-0.150000X-0.825000X0*%
%ADD20RoundRect,0.050800X-1.395000X-2.540000X1.395000X-2.540000X1.395000X2.540000X-1.395000X2.540000X0*%
%ADD21C,12.801600*%
%ADD22C,0.901600*%
%ADD23RoundRect,0.175800X0.125000X-0.625000X0.125000X0.625000X-0.125000X0.625000X-0.125000X-0.625000X0*%
%ADD24RoundRect,0.175800X0.625000X-0.125000X0.625000X0.125000X-0.625000X0.125000X-0.625000X-0.125000X0*%
%ADD25R,1.000000X1.000000*%
%ADD26R,3.000000X1.000000*%
%ADD27RoundRect,0.063500X-0.500000X-0.212500X0.500000X-0.212500X0.500000X0.212500X-0.500000X0.212500X0*%
%ADD28RoundRect,0.063500X0.500000X0.212500X-0.500000X0.212500X-0.500000X-0.212500X0.500000X-0.212500X0*%
G04 APERTURE END LIST*
D10*
X126227840Y-80597680D02*
X126227840Y-80912640D01*
X126936500Y-80948200D02*
X126227840Y-81227600D01*
X126227840Y-80912640D02*
X126936500Y-80948200D01*
D11*
G36*
X134282044Y-83528332D02*
G01*
X133574937Y-82821225D01*
X134635597Y-82467672D01*
X134282044Y-83528332D01*
G37*
X134282044Y-83528332D02*
X133574937Y-82821225D01*
X134635597Y-82467672D01*
X134282044Y-83528332D01*
G36*
X125477801Y-101269180D02*
G01*
X124417141Y-100915627D01*
X125124248Y-100208520D01*
X125477801Y-101269180D01*
G37*
X125477801Y-101269180D02*
X124417141Y-100915627D01*
X125124248Y-100208520D01*
X125477801Y-101269180D01*
G36*
X120771920Y-102816660D02*
G01*
X119771920Y-103316660D01*
X119771920Y-102316660D01*
X120771920Y-102816660D01*
G37*
X120771920Y-102816660D02*
X119771920Y-103316660D01*
X119771920Y-102316660D01*
X120771920Y-102816660D01*
G36*
X126062722Y-98657070D02*
G01*
X125355616Y-97949963D01*
X126416276Y-97596409D01*
X126062722Y-98657070D01*
G37*
X126062722Y-98657070D02*
X125355616Y-97949963D01*
X126416276Y-97596409D01*
X126062722Y-98657070D01*
D10*
X126227840Y-80912640D02*
X126227840Y-81227600D01*
X126316740Y-81100600D02*
X126580900Y-80986300D01*
X125569980Y-80912640D02*
X126227840Y-80912640D01*
X126352300Y-80752620D02*
X126563120Y-80872000D01*
X126227840Y-80597680D02*
X126936500Y-80948200D01*
X126227840Y-80597680D02*
X126316740Y-81100600D01*
X124452380Y-79763620D02*
X125569980Y-80912640D01*
X126580900Y-80986300D02*
X126352300Y-80752620D01*
X134158095Y-71922380D02*
X134158095Y-72731904D01*
X134205714Y-72827142D01*
X134253333Y-72874761D01*
X134348571Y-72922380D01*
X134539047Y-72922380D01*
X134634285Y-72874761D01*
X134681904Y-72827142D01*
X134729523Y-72731904D01*
X134729523Y-71922380D01*
X135634285Y-72255714D02*
X135634285Y-72922380D01*
X135396190Y-71874761D02*
X135158095Y-72589047D01*
X135777142Y-72589047D01*
X150786904Y-73578571D02*
X150929761Y-73626190D01*
X150977380Y-73673809D01*
X151025000Y-73769047D01*
X151025000Y-73911904D01*
X150977380Y-74007142D01*
X150929761Y-74054761D01*
X150834523Y-74102380D01*
X150453571Y-74102380D01*
X150453571Y-73102380D01*
X150786904Y-73102380D01*
X150882142Y-73150000D01*
X150929761Y-73197619D01*
X150977380Y-73292857D01*
X150977380Y-73388095D01*
X150929761Y-73483333D01*
X150882142Y-73530952D01*
X150786904Y-73578571D01*
X150453571Y-73578571D01*
X151882142Y-74102380D02*
X151882142Y-73578571D01*
X151834523Y-73483333D01*
X151739285Y-73435714D01*
X151548809Y-73435714D01*
X151453571Y-73483333D01*
X151882142Y-74054761D02*
X151786904Y-74102380D01*
X151548809Y-74102380D01*
X151453571Y-74054761D01*
X151405952Y-73959523D01*
X151405952Y-73864285D01*
X151453571Y-73769047D01*
X151548809Y-73721428D01*
X151786904Y-73721428D01*
X151882142Y-73673809D01*
X152215476Y-73435714D02*
X152596428Y-73435714D01*
X152358333Y-73102380D02*
X152358333Y-73959523D01*
X152405952Y-74054761D01*
X152501190Y-74102380D01*
X152596428Y-74102380D01*
X152786904Y-73435714D02*
X153167857Y-73435714D01*
X152929761Y-73102380D02*
X152929761Y-73959523D01*
X152977380Y-74054761D01*
X153072619Y-74102380D01*
X153167857Y-74102380D01*
X154834523Y-74007142D02*
X154786904Y-74054761D01*
X154644047Y-74102380D01*
X154548809Y-74102380D01*
X154405952Y-74054761D01*
X154310714Y-73959523D01*
X154263095Y-73864285D01*
X154215476Y-73673809D01*
X154215476Y-73530952D01*
X154263095Y-73340476D01*
X154310714Y-73245238D01*
X154405952Y-73150000D01*
X154548809Y-73102380D01*
X154644047Y-73102380D01*
X154786904Y-73150000D01*
X154834523Y-73197619D01*
X155834523Y-74102380D02*
X155501190Y-73626190D01*
X155263095Y-74102380D02*
X155263095Y-73102380D01*
X155644047Y-73102380D01*
X155739285Y-73150000D01*
X155786904Y-73197619D01*
X155834523Y-73292857D01*
X155834523Y-73435714D01*
X155786904Y-73530952D01*
X155739285Y-73578571D01*
X155644047Y-73626190D01*
X155263095Y-73626190D01*
X156215476Y-73197619D02*
X156263095Y-73150000D01*
X156358333Y-73102380D01*
X156596428Y-73102380D01*
X156691666Y-73150000D01*
X156739285Y-73197619D01*
X156786904Y-73292857D01*
X156786904Y-73388095D01*
X156739285Y-73530952D01*
X156167857Y-74102380D01*
X156786904Y-74102380D01*
X157405952Y-73102380D02*
X157501190Y-73102380D01*
X157596428Y-73150000D01*
X157644047Y-73197619D01*
X157691666Y-73292857D01*
X157739285Y-73483333D01*
X157739285Y-73721428D01*
X157691666Y-73911904D01*
X157644047Y-74007142D01*
X157596428Y-74054761D01*
X157501190Y-74102380D01*
X157405952Y-74102380D01*
X157310714Y-74054761D01*
X157263095Y-74007142D01*
X157215476Y-73911904D01*
X157167857Y-73721428D01*
X157167857Y-73483333D01*
X157215476Y-73292857D01*
X157263095Y-73197619D01*
X157310714Y-73150000D01*
X157405952Y-73102380D01*
X158120238Y-73197619D02*
X158167857Y-73150000D01*
X158263095Y-73102380D01*
X158501190Y-73102380D01*
X158596428Y-73150000D01*
X158644047Y-73197619D01*
X158691666Y-73292857D01*
X158691666Y-73388095D01*
X158644047Y-73530952D01*
X158072619Y-74102380D01*
X158691666Y-74102380D01*
X159596428Y-73102380D02*
X159120238Y-73102380D01*
X159072619Y-73578571D01*
X159120238Y-73530952D01*
X159215476Y-73483333D01*
X159453571Y-73483333D01*
X159548809Y-73530952D01*
X159596428Y-73578571D01*
X159644047Y-73673809D01*
X159644047Y-73911904D01*
X159596428Y-74007142D01*
X159548809Y-74054761D01*
X159453571Y-74102380D01*
X159215476Y-74102380D01*
X159120238Y-74054761D01*
X159072619Y-74007142D01*
X131838095Y-85252380D02*
X131838095Y-86061904D01*
X131885714Y-86157142D01*
X131933333Y-86204761D01*
X132028571Y-86252380D01*
X132219047Y-86252380D01*
X132314285Y-86204761D01*
X132361904Y-86157142D01*
X132409523Y-86061904D01*
X132409523Y-85252380D01*
X132838095Y-85347619D02*
X132885714Y-85300000D01*
X132980952Y-85252380D01*
X133219047Y-85252380D01*
X133314285Y-85300000D01*
X133361904Y-85347619D01*
X133409523Y-85442857D01*
X133409523Y-85538095D01*
X133361904Y-85680952D01*
X132790476Y-86252380D01*
X133409523Y-86252380D01*
X159238095Y-93852380D02*
X159238095Y-94661904D01*
X159285714Y-94757142D01*
X159333333Y-94804761D01*
X159428571Y-94852380D01*
X159619047Y-94852380D01*
X159714285Y-94804761D01*
X159761904Y-94757142D01*
X159809523Y-94661904D01*
X159809523Y-93852380D01*
X160809523Y-94852380D02*
X160238095Y-94852380D01*
X160523809Y-94852380D02*
X160523809Y-93852380D01*
X160428571Y-93995238D01*
X160333333Y-94090476D01*
X160238095Y-94138095D01*
X120638095Y-100252380D02*
X120638095Y-101061904D01*
X120685714Y-101157142D01*
X120733333Y-101204761D01*
X120828571Y-101252380D01*
X121019047Y-101252380D01*
X121114285Y-101204761D01*
X121161904Y-101157142D01*
X121209523Y-101061904D01*
X121209523Y-100252380D01*
X122161904Y-100252380D02*
X121685714Y-100252380D01*
X121638095Y-100728571D01*
X121685714Y-100680952D01*
X121780952Y-100633333D01*
X122019047Y-100633333D01*
X122114285Y-100680952D01*
X122161904Y-100728571D01*
X122209523Y-100823809D01*
X122209523Y-101061904D01*
X122161904Y-101157142D01*
X122114285Y-101204761D01*
X122019047Y-101252380D01*
X121780952Y-101252380D01*
X121685714Y-101204761D01*
X121638095Y-101157142D01*
X133638095Y-98452380D02*
X133638095Y-99261904D01*
X133685714Y-99357142D01*
X133733333Y-99404761D01*
X133828571Y-99452380D01*
X134019047Y-99452380D01*
X134114285Y-99404761D01*
X134161904Y-99357142D01*
X134209523Y-99261904D01*
X134209523Y-98452380D01*
X134590476Y-98452380D02*
X135209523Y-98452380D01*
X134876190Y-98833333D01*
X135019047Y-98833333D01*
X135114285Y-98880952D01*
X135161904Y-98928571D01*
X135209523Y-99023809D01*
X135209523Y-99261904D01*
X135161904Y-99357142D01*
X135114285Y-99404761D01*
X135019047Y-99452380D01*
X134733333Y-99452380D01*
X134638095Y-99404761D01*
X134590476Y-99357142D01*
X118302380Y-117783333D02*
X119302380Y-117450000D01*
X118302380Y-117116666D01*
X119207142Y-116211904D02*
X119254761Y-116259523D01*
X119302380Y-116402380D01*
X119302380Y-116497619D01*
X119254761Y-116640476D01*
X119159523Y-116735714D01*
X119064285Y-116783333D01*
X118873809Y-116830952D01*
X118730952Y-116830952D01*
X118540476Y-116783333D01*
X118445238Y-116735714D01*
X118350000Y-116640476D01*
X118302380Y-116497619D01*
X118302380Y-116402380D01*
X118350000Y-116259523D01*
X118397619Y-116211904D01*
X119207142Y-115211904D02*
X119254761Y-115259523D01*
X119302380Y-115402380D01*
X119302380Y-115497619D01*
X119254761Y-115640476D01*
X119159523Y-115735714D01*
X119064285Y-115783333D01*
X118873809Y-115830952D01*
X118730952Y-115830952D01*
X118540476Y-115783333D01*
X118445238Y-115735714D01*
X118350000Y-115640476D01*
X118302380Y-115497619D01*
X118302380Y-115402380D01*
X118350000Y-115259523D01*
X118397619Y-115211904D01*
X165980000Y-116941904D02*
X165932380Y-117037142D01*
X165932380Y-117180000D01*
X165980000Y-117322857D01*
X166075238Y-117418095D01*
X166170476Y-117465714D01*
X166360952Y-117513333D01*
X166503809Y-117513333D01*
X166694285Y-117465714D01*
X166789523Y-117418095D01*
X166884761Y-117322857D01*
X166932380Y-117180000D01*
X166932380Y-117084761D01*
X166884761Y-116941904D01*
X166837142Y-116894285D01*
X166503809Y-116894285D01*
X166503809Y-117084761D01*
X166932380Y-116465714D02*
X165932380Y-116465714D01*
X166932380Y-115894285D01*
X165932380Y-115894285D01*
X166932380Y-115418095D02*
X165932380Y-115418095D01*
X165932380Y-115180000D01*
X165980000Y-115037142D01*
X166075238Y-114941904D01*
X166170476Y-114894285D01*
X166360952Y-114846666D01*
X166503809Y-114846666D01*
X166694285Y-114894285D01*
X166789523Y-114941904D01*
X166884761Y-115037142D01*
X166932380Y-115180000D01*
X166932380Y-115418095D01*
G36*
X167520000Y-130252000D02*
G01*
X117720000Y-130252000D01*
X117720000Y-123002000D01*
X167520000Y-123002000D01*
X167520000Y-130252000D01*
G37*
G36*
X120619000Y-72802000D02*
G01*
X119619000Y-72802000D01*
X119619000Y-71802000D01*
X120619000Y-71802000D01*
X120619000Y-72802000D01*
G37*
D11*
X120619000Y-72802000D02*
X119619000Y-72802000D01*
X119619000Y-71802000D01*
X120619000Y-71802000D01*
X120619000Y-72802000D01*
D10*
X126227840Y-80597680D02*
X126227840Y-80912640D01*
X126936500Y-80948200D02*
X126227840Y-81227600D01*
X126227840Y-80912640D02*
X126936500Y-80948200D01*
D11*
G36*
X134282044Y-83528332D02*
G01*
X133574937Y-82821225D01*
X134635597Y-82467672D01*
X134282044Y-83528332D01*
G37*
X134282044Y-83528332D02*
X133574937Y-82821225D01*
X134635597Y-82467672D01*
X134282044Y-83528332D01*
G36*
X125477801Y-101269180D02*
G01*
X124417141Y-100915627D01*
X125124248Y-100208520D01*
X125477801Y-101269180D01*
G37*
X125477801Y-101269180D02*
X124417141Y-100915627D01*
X125124248Y-100208520D01*
X125477801Y-101269180D01*
G36*
X120771920Y-102816660D02*
G01*
X119771920Y-103316660D01*
X119771920Y-102316660D01*
X120771920Y-102816660D01*
G37*
X120771920Y-102816660D02*
X119771920Y-103316660D01*
X119771920Y-102316660D01*
X120771920Y-102816660D01*
G36*
X126062722Y-98657070D02*
G01*
X125355616Y-97949963D01*
X126416276Y-97596409D01*
X126062722Y-98657070D01*
G37*
X126062722Y-98657070D02*
X125355616Y-97949963D01*
X126416276Y-97596409D01*
X126062722Y-98657070D01*
D10*
X126227840Y-80912640D02*
X126227840Y-81227600D01*
X126316740Y-81100600D02*
X126580900Y-80986300D01*
X125569980Y-80912640D02*
X126227840Y-80912640D01*
X126352300Y-80752620D02*
X126563120Y-80872000D01*
X126227840Y-80597680D02*
X126936500Y-80948200D01*
X126227840Y-80597680D02*
X126316740Y-81100600D01*
X124452380Y-79763620D02*
X125569980Y-80912640D01*
X126580900Y-80986300D02*
X126352300Y-80752620D01*
X134158095Y-71922380D02*
X134158095Y-72731904D01*
X134205714Y-72827142D01*
X134253333Y-72874761D01*
X134348571Y-72922380D01*
X134539047Y-72922380D01*
X134634285Y-72874761D01*
X134681904Y-72827142D01*
X134729523Y-72731904D01*
X134729523Y-71922380D01*
X135634285Y-72255714D02*
X135634285Y-72922380D01*
X135396190Y-71874761D02*
X135158095Y-72589047D01*
X135777142Y-72589047D01*
X150786904Y-73578571D02*
X150929761Y-73626190D01*
X150977380Y-73673809D01*
X151025000Y-73769047D01*
X151025000Y-73911904D01*
X150977380Y-74007142D01*
X150929761Y-74054761D01*
X150834523Y-74102380D01*
X150453571Y-74102380D01*
X150453571Y-73102380D01*
X150786904Y-73102380D01*
X150882142Y-73150000D01*
X150929761Y-73197619D01*
X150977380Y-73292857D01*
X150977380Y-73388095D01*
X150929761Y-73483333D01*
X150882142Y-73530952D01*
X150786904Y-73578571D01*
X150453571Y-73578571D01*
X151882142Y-74102380D02*
X151882142Y-73578571D01*
X151834523Y-73483333D01*
X151739285Y-73435714D01*
X151548809Y-73435714D01*
X151453571Y-73483333D01*
X151882142Y-74054761D02*
X151786904Y-74102380D01*
X151548809Y-74102380D01*
X151453571Y-74054761D01*
X151405952Y-73959523D01*
X151405952Y-73864285D01*
X151453571Y-73769047D01*
X151548809Y-73721428D01*
X151786904Y-73721428D01*
X151882142Y-73673809D01*
X152215476Y-73435714D02*
X152596428Y-73435714D01*
X152358333Y-73102380D02*
X152358333Y-73959523D01*
X152405952Y-74054761D01*
X152501190Y-74102380D01*
X152596428Y-74102380D01*
X152786904Y-73435714D02*
X153167857Y-73435714D01*
X152929761Y-73102380D02*
X152929761Y-73959523D01*
X152977380Y-74054761D01*
X153072619Y-74102380D01*
X153167857Y-74102380D01*
X154834523Y-74007142D02*
X154786904Y-74054761D01*
X154644047Y-74102380D01*
X154548809Y-74102380D01*
X154405952Y-74054761D01*
X154310714Y-73959523D01*
X154263095Y-73864285D01*
X154215476Y-73673809D01*
X154215476Y-73530952D01*
X154263095Y-73340476D01*
X154310714Y-73245238D01*
X154405952Y-73150000D01*
X154548809Y-73102380D01*
X154644047Y-73102380D01*
X154786904Y-73150000D01*
X154834523Y-73197619D01*
X155834523Y-74102380D02*
X155501190Y-73626190D01*
X155263095Y-74102380D02*
X155263095Y-73102380D01*
X155644047Y-73102380D01*
X155739285Y-73150000D01*
X155786904Y-73197619D01*
X155834523Y-73292857D01*
X155834523Y-73435714D01*
X155786904Y-73530952D01*
X155739285Y-73578571D01*
X155644047Y-73626190D01*
X155263095Y-73626190D01*
X156215476Y-73197619D02*
X156263095Y-73150000D01*
X156358333Y-73102380D01*
X156596428Y-73102380D01*
X156691666Y-73150000D01*
X156739285Y-73197619D01*
X156786904Y-73292857D01*
X156786904Y-73388095D01*
X156739285Y-73530952D01*
X156167857Y-74102380D01*
X156786904Y-74102380D01*
X157405952Y-73102380D02*
X157501190Y-73102380D01*
X157596428Y-73150000D01*
X157644047Y-73197619D01*
X157691666Y-73292857D01*
X157739285Y-73483333D01*
X157739285Y-73721428D01*
X157691666Y-73911904D01*
X157644047Y-74007142D01*
X157596428Y-74054761D01*
X157501190Y-74102380D01*
X157405952Y-74102380D01*
X157310714Y-74054761D01*
X157263095Y-74007142D01*
X157215476Y-73911904D01*
X157167857Y-73721428D01*
X157167857Y-73483333D01*
X157215476Y-73292857D01*
X157263095Y-73197619D01*
X157310714Y-73150000D01*
X157405952Y-73102380D01*
X158120238Y-73197619D02*
X158167857Y-73150000D01*
X158263095Y-73102380D01*
X158501190Y-73102380D01*
X158596428Y-73150000D01*
X158644047Y-73197619D01*
X158691666Y-73292857D01*
X158691666Y-73388095D01*
X158644047Y-73530952D01*
X158072619Y-74102380D01*
X158691666Y-74102380D01*
X159596428Y-73102380D02*
X159120238Y-73102380D01*
X159072619Y-73578571D01*
X159120238Y-73530952D01*
X159215476Y-73483333D01*
X159453571Y-73483333D01*
X159548809Y-73530952D01*
X159596428Y-73578571D01*
X159644047Y-73673809D01*
X159644047Y-73911904D01*
X159596428Y-74007142D01*
X159548809Y-74054761D01*
X159453571Y-74102380D01*
X159215476Y-74102380D01*
X159120238Y-74054761D01*
X159072619Y-74007142D01*
X131838095Y-85252380D02*
X131838095Y-86061904D01*
X131885714Y-86157142D01*
X131933333Y-86204761D01*
X132028571Y-86252380D01*
X132219047Y-86252380D01*
X132314285Y-86204761D01*
X132361904Y-86157142D01*
X132409523Y-86061904D01*
X132409523Y-85252380D01*
X132838095Y-85347619D02*
X132885714Y-85300000D01*
X132980952Y-85252380D01*
X133219047Y-85252380D01*
X133314285Y-85300000D01*
X133361904Y-85347619D01*
X133409523Y-85442857D01*
X133409523Y-85538095D01*
X133361904Y-85680952D01*
X132790476Y-86252380D01*
X133409523Y-86252380D01*
X159238095Y-93852380D02*
X159238095Y-94661904D01*
X159285714Y-94757142D01*
X159333333Y-94804761D01*
X159428571Y-94852380D01*
X159619047Y-94852380D01*
X159714285Y-94804761D01*
X159761904Y-94757142D01*
X159809523Y-94661904D01*
X159809523Y-93852380D01*
X160809523Y-94852380D02*
X160238095Y-94852380D01*
X160523809Y-94852380D02*
X160523809Y-93852380D01*
X160428571Y-93995238D01*
X160333333Y-94090476D01*
X160238095Y-94138095D01*
X120638095Y-100252380D02*
X120638095Y-101061904D01*
X120685714Y-101157142D01*
X120733333Y-101204761D01*
X120828571Y-101252380D01*
X121019047Y-101252380D01*
X121114285Y-101204761D01*
X121161904Y-101157142D01*
X121209523Y-101061904D01*
X121209523Y-100252380D01*
X122161904Y-100252380D02*
X121685714Y-100252380D01*
X121638095Y-100728571D01*
X121685714Y-100680952D01*
X121780952Y-100633333D01*
X122019047Y-100633333D01*
X122114285Y-100680952D01*
X122161904Y-100728571D01*
X122209523Y-100823809D01*
X122209523Y-101061904D01*
X122161904Y-101157142D01*
X122114285Y-101204761D01*
X122019047Y-101252380D01*
X121780952Y-101252380D01*
X121685714Y-101204761D01*
X121638095Y-101157142D01*
X133638095Y-98452380D02*
X133638095Y-99261904D01*
X133685714Y-99357142D01*
X133733333Y-99404761D01*
X133828571Y-99452380D01*
X134019047Y-99452380D01*
X134114285Y-99404761D01*
X134161904Y-99357142D01*
X134209523Y-99261904D01*
X134209523Y-98452380D01*
X134590476Y-98452380D02*
X135209523Y-98452380D01*
X134876190Y-98833333D01*
X135019047Y-98833333D01*
X135114285Y-98880952D01*
X135161904Y-98928571D01*
X135209523Y-99023809D01*
X135209523Y-99261904D01*
X135161904Y-99357142D01*
X135114285Y-99404761D01*
X135019047Y-99452380D01*
X134733333Y-99452380D01*
X134638095Y-99404761D01*
X134590476Y-99357142D01*
X118302380Y-117783333D02*
X119302380Y-117450000D01*
X118302380Y-117116666D01*
X119207142Y-116211904D02*
X119254761Y-116259523D01*
X119302380Y-116402380D01*
X119302380Y-116497619D01*
X119254761Y-116640476D01*
X119159523Y-116735714D01*
X119064285Y-116783333D01*
X118873809Y-116830952D01*
X118730952Y-116830952D01*
X118540476Y-116783333D01*
X118445238Y-116735714D01*
X118350000Y-116640476D01*
X118302380Y-116497619D01*
X118302380Y-116402380D01*
X118350000Y-116259523D01*
X118397619Y-116211904D01*
X119207142Y-115211904D02*
X119254761Y-115259523D01*
X119302380Y-115402380D01*
X119302380Y-115497619D01*
X119254761Y-115640476D01*
X119159523Y-115735714D01*
X119064285Y-115783333D01*
X118873809Y-115830952D01*
X118730952Y-115830952D01*
X118540476Y-115783333D01*
X118445238Y-115735714D01*
X118350000Y-115640476D01*
X118302380Y-115497619D01*
X118302380Y-115402380D01*
X118350000Y-115259523D01*
X118397619Y-115211904D01*
X165980000Y-116941904D02*
X165932380Y-117037142D01*
X165932380Y-117180000D01*
X165980000Y-117322857D01*
X166075238Y-117418095D01*
X166170476Y-117465714D01*
X166360952Y-117513333D01*
X166503809Y-117513333D01*
X166694285Y-117465714D01*
X166789523Y-117418095D01*
X166884761Y-117322857D01*
X166932380Y-117180000D01*
X166932380Y-117084761D01*
X166884761Y-116941904D01*
X166837142Y-116894285D01*
X166503809Y-116894285D01*
X166503809Y-117084761D01*
X166932380Y-116465714D02*
X165932380Y-116465714D01*
X166932380Y-115894285D01*
X165932380Y-115894285D01*
X166932380Y-115418095D02*
X165932380Y-115418095D01*
X165932380Y-115180000D01*
X165980000Y-115037142D01*
X166075238Y-114941904D01*
X166170476Y-114894285D01*
X166360952Y-114846666D01*
X166503809Y-114846666D01*
X166694285Y-114894285D01*
X166789523Y-114941904D01*
X166884761Y-115037142D01*
X166932380Y-115180000D01*
X166932380Y-115418095D01*
G36*
X167520000Y-130252000D02*
G01*
X117720000Y-130252000D01*
X117720000Y-123002000D01*
X167520000Y-123002000D01*
X167520000Y-130252000D01*
G37*
G36*
X120619000Y-72802000D02*
G01*
X119619000Y-72802000D01*
X119619000Y-71802000D01*
X120619000Y-71802000D01*
X120619000Y-72802000D01*
G37*
D11*
X120619000Y-72802000D02*
X119619000Y-72802000D01*
X119619000Y-71802000D01*
X120619000Y-71802000D01*
X120619000Y-72802000D01*
D12*
X131718000Y-77802000D03*
D13*
X131718000Y-75502000D03*
D14*
X121735000Y-102789000D03*
X121735000Y-103739000D03*
X121735000Y-104689000D03*
X124055000Y-104689000D03*
X124055000Y-102789000D03*
D15*
X163431000Y-98709600D03*
X163431000Y-97134600D03*
D16*
X162737500Y-116460000D03*
X161162500Y-116460000D03*
X138806500Y-99247400D03*
X137231500Y-99247400D03*
D17*
X132030500Y-81002000D03*
X133605500Y-81002000D03*
D16*
X129605500Y-81002000D03*
X128030500Y-81002000D03*
D15*
X120319000Y-89589500D03*
X120319000Y-88014500D03*
D17*
X122132500Y-108210000D03*
X123707500Y-108210000D03*
D16*
X129605500Y-83802000D03*
X128030500Y-83802000D03*
D15*
X140810000Y-101457500D03*
X140810000Y-99882500D03*
D16*
X137787500Y-85600000D03*
X136212500Y-85600000D03*
D18*
X126969000Y-101747000D03*
X126969000Y-103017000D03*
X126969000Y-104287000D03*
X126969000Y-105557000D03*
X126969000Y-106827000D03*
X126969000Y-108097000D03*
X126969000Y-109367000D03*
X126969000Y-110637000D03*
X126969000Y-111907000D03*
X126969000Y-113177000D03*
X126969000Y-114447000D03*
X126969000Y-115717000D03*
X126969000Y-116987000D03*
X126969000Y-118257000D03*
X136269000Y-118257000D03*
X136269000Y-116987000D03*
X136269000Y-115717000D03*
X136269000Y-114447000D03*
X136269000Y-113177000D03*
X136269000Y-111907000D03*
X136269000Y-110637000D03*
X136269000Y-109367000D03*
X136269000Y-108097000D03*
X136269000Y-106827000D03*
X136269000Y-105557000D03*
X136269000Y-104287000D03*
X136269000Y-103017000D03*
X136269000Y-101747000D03*
D19*
X135613000Y-81677000D03*
X136883000Y-81677000D03*
X138153000Y-81677000D03*
X139423000Y-81677000D03*
X139423000Y-76727000D03*
X138153000Y-76727000D03*
X136883000Y-76727000D03*
X135613000Y-76727000D03*
D20*
X166105000Y-81802000D03*
X144135000Y-81802000D03*
D21*
X155120000Y-81802000D03*
D22*
X119120000Y-122402000D03*
X120870000Y-122402000D03*
X122370000Y-122402000D03*
X123870000Y-122402000D03*
X125370000Y-122402000D03*
X126870000Y-122402000D03*
X128370000Y-122402000D03*
X129870000Y-122402000D03*
X131370000Y-122402000D03*
X132870000Y-122402000D03*
X134370000Y-122402000D03*
X135870000Y-122402000D03*
X137370000Y-122402000D03*
X138870000Y-122402000D03*
X140370000Y-122402000D03*
X141870000Y-122402000D03*
X143370000Y-122402000D03*
X144870000Y-122402000D03*
X146370000Y-122402000D03*
X147870000Y-122402000D03*
X149370000Y-122402000D03*
X150870000Y-122402000D03*
X152370000Y-122402000D03*
X153870000Y-122402000D03*
X155370000Y-122402000D03*
X156870000Y-122402000D03*
X158370000Y-122402000D03*
X159870000Y-122402000D03*
X161370000Y-122402000D03*
X162870000Y-122402000D03*
X164370000Y-122402000D03*
X166120000Y-122402000D03*
D23*
X127471020Y-96440760D03*
X128271020Y-96440760D03*
X129071020Y-96440760D03*
X129871020Y-96440760D03*
X130671020Y-96440760D03*
X131471020Y-96440760D03*
X132271020Y-96440760D03*
X133071020Y-96440760D03*
D24*
X134446020Y-95065760D03*
X134446020Y-94265760D03*
X134446020Y-93465760D03*
X134446020Y-92665760D03*
X134446020Y-91865760D03*
X134446020Y-91065760D03*
X134446020Y-90265760D03*
X134446020Y-89465760D03*
D23*
X133071020Y-88090760D03*
X132271020Y-88090760D03*
X131471020Y-88090760D03*
X130671020Y-88090760D03*
X129871020Y-88090760D03*
X129071020Y-88090760D03*
X128271020Y-88090760D03*
X127471020Y-88090760D03*
D24*
X126096020Y-89465760D03*
X126096020Y-90265760D03*
X126096020Y-91065760D03*
X126096020Y-91865760D03*
X126096020Y-92665760D03*
X126096020Y-93465760D03*
X126096020Y-94265760D03*
X126096020Y-95065760D03*
D25*
X119119000Y-72302000D03*
D26*
X120119000Y-71302000D03*
X120119000Y-73302000D03*
D25*
X121119000Y-72302000D03*
D27*
X161055000Y-96977745D03*
X161055000Y-97777840D03*
X161055000Y-98577935D03*
X161055000Y-99378030D03*
X161055000Y-100178125D03*
X161055000Y-100978220D03*
X161055000Y-101778315D03*
X161055000Y-102578410D03*
X161055000Y-103378505D03*
X161055000Y-104178600D03*
X161055000Y-104978695D03*
X161055000Y-105778790D03*
X161055000Y-106578885D03*
X161055000Y-107378980D03*
X161055000Y-108179075D03*
X161055000Y-108979170D03*
X161055000Y-109779265D03*
X161055000Y-110579360D03*
X161055000Y-111379455D03*
X161055000Y-112179550D03*
X161055000Y-112979645D03*
X161055000Y-113779745D03*
D28*
X149350000Y-113715470D03*
X149350000Y-112916423D03*
X149350000Y-112117376D03*
X149350000Y-111318329D03*
X149350000Y-110519282D03*
X149350000Y-109720235D03*
X149350000Y-108921188D03*
X149350000Y-108122141D03*
X149350000Y-107323094D03*
X149350000Y-106524047D03*
X149350000Y-105725000D03*
X149350000Y-104925953D03*
X149350000Y-104126906D03*
X149350000Y-103327859D03*
X149350000Y-102528812D03*
X149350000Y-101729765D03*
X149350000Y-100930718D03*
X149350000Y-100131671D03*
X149350000Y-99332624D03*
X149350000Y-98533577D03*
X149350000Y-97734530D03*
X149350000Y-96935470D03*
G36*
X161544411Y-113254645D02*
G01*
X161544411Y-113256645D01*
X161543069Y-113257607D01*
X161536054Y-113259002D01*
X161474422Y-113291241D01*
X161440148Y-113351426D01*
X161443855Y-113420583D01*
X161484396Y-113476808D01*
X161535997Y-113500374D01*
X161543079Y-113501783D01*
X161544583Y-113503102D01*
X161544193Y-113505064D01*
X161542689Y-113505745D01*
X160567321Y-113505745D01*
X160565589Y-113504745D01*
X160565589Y-113502745D01*
X160566931Y-113501783D01*
X160573946Y-113500388D01*
X160635578Y-113468149D01*
X160669852Y-113407964D01*
X160666145Y-113338807D01*
X160625604Y-113282582D01*
X160574003Y-113259016D01*
X160566921Y-113257607D01*
X160565417Y-113256288D01*
X160565807Y-113254326D01*
X160567311Y-113253645D01*
X161542679Y-113253645D01*
X161544411Y-113254645D01*
G37*
G36*
X149839417Y-113191423D02*
G01*
X149839417Y-113193423D01*
X149838075Y-113194385D01*
X149833700Y-113195255D01*
X149772068Y-113227494D01*
X149737795Y-113287679D01*
X149741502Y-113356836D01*
X149782044Y-113413060D01*
X149833645Y-113436626D01*
X149838078Y-113437508D01*
X149839582Y-113438827D01*
X149839192Y-113440789D01*
X149837688Y-113441470D01*
X148862315Y-113441470D01*
X148860583Y-113440470D01*
X148860583Y-113438470D01*
X148861925Y-113437508D01*
X148866300Y-113436638D01*
X148927932Y-113404399D01*
X148962205Y-113344214D01*
X148958498Y-113275057D01*
X148917956Y-113218833D01*
X148866355Y-113195267D01*
X148861922Y-113194385D01*
X148860418Y-113193066D01*
X148860808Y-113191104D01*
X148862312Y-113190423D01*
X149837685Y-113190423D01*
X149839417Y-113191423D01*
G37*
G36*
X161544418Y-112454550D02*
G01*
X161544418Y-112456550D01*
X161543076Y-112457512D01*
X161536066Y-112458906D01*
X161474434Y-112491145D01*
X161440161Y-112551330D01*
X161443868Y-112620487D01*
X161484410Y-112676711D01*
X161536011Y-112700277D01*
X161543078Y-112701683D01*
X161544582Y-112703002D01*
X161544192Y-112704964D01*
X161542688Y-112705645D01*
X160567314Y-112705645D01*
X160565582Y-112704645D01*
X160565582Y-112702645D01*
X160566924Y-112701683D01*
X160573934Y-112700289D01*
X160635566Y-112668050D01*
X160669839Y-112607865D01*
X160666132Y-112538708D01*
X160625590Y-112482484D01*
X160573989Y-112458918D01*
X160566922Y-112457512D01*
X160565418Y-112456193D01*
X160565808Y-112454231D01*
X160567312Y-112453550D01*
X161542686Y-112453550D01*
X161544418Y-112454550D01*
G37*
G36*
X149839417Y-112392376D02*
G01*
X149839417Y-112394376D01*
X149838075Y-112395338D01*
X149833700Y-112396208D01*
X149772068Y-112428447D01*
X149737795Y-112488632D01*
X149741502Y-112557789D01*
X149782044Y-112614013D01*
X149833645Y-112637579D01*
X149838078Y-112638461D01*
X149839582Y-112639780D01*
X149839192Y-112641742D01*
X149837688Y-112642423D01*
X148862315Y-112642423D01*
X148860583Y-112641423D01*
X148860583Y-112639423D01*
X148861925Y-112638461D01*
X148866300Y-112637591D01*
X148927932Y-112605352D01*
X148962205Y-112545167D01*
X148958498Y-112476010D01*
X148917956Y-112419786D01*
X148866355Y-112396220D01*
X148861922Y-112395338D01*
X148860418Y-112394019D01*
X148860808Y-112392057D01*
X148862312Y-112391376D01*
X149837685Y-112391376D01*
X149839417Y-112392376D01*
G37*
G36*
X161544418Y-111654455D02*
G01*
X161544418Y-111656455D01*
X161543076Y-111657417D01*
X161536066Y-111658811D01*
X161474434Y-111691050D01*
X161440161Y-111751235D01*
X161443868Y-111820392D01*
X161484410Y-111876616D01*
X161536011Y-111900182D01*
X161543078Y-111901588D01*
X161544582Y-111902907D01*
X161544192Y-111904869D01*
X161542688Y-111905550D01*
X160567314Y-111905550D01*
X160565582Y-111904550D01*
X160565582Y-111902550D01*
X160566924Y-111901588D01*
X160573934Y-111900194D01*
X160635566Y-111867955D01*
X160669839Y-111807770D01*
X160666132Y-111738613D01*
X160625590Y-111682389D01*
X160573989Y-111658823D01*
X160566922Y-111657417D01*
X160565418Y-111656098D01*
X160565808Y-111654136D01*
X160567312Y-111653455D01*
X161542686Y-111653455D01*
X161544418Y-111654455D01*
G37*
G36*
X149839417Y-111593329D02*
G01*
X149839417Y-111595329D01*
X149838075Y-111596291D01*
X149833700Y-111597161D01*
X149772068Y-111629400D01*
X149737795Y-111689585D01*
X149741502Y-111758742D01*
X149782044Y-111814966D01*
X149833645Y-111838532D01*
X149838078Y-111839414D01*
X149839582Y-111840733D01*
X149839192Y-111842695D01*
X149837688Y-111843376D01*
X148862315Y-111843376D01*
X148860583Y-111842376D01*
X148860583Y-111840376D01*
X148861925Y-111839414D01*
X148866300Y-111838544D01*
X148927932Y-111806305D01*
X148962205Y-111746120D01*
X148958498Y-111676963D01*
X148917956Y-111620739D01*
X148866355Y-111597173D01*
X148861922Y-111596291D01*
X148860418Y-111594972D01*
X148860808Y-111593010D01*
X148862312Y-111592329D01*
X149837685Y-111592329D01*
X149839417Y-111593329D01*
G37*
G36*
X161544418Y-110854360D02*
G01*
X161544418Y-110856360D01*
X161543076Y-110857322D01*
X161536066Y-110858716D01*
X161474434Y-110890955D01*
X161440161Y-110951140D01*
X161443868Y-111020297D01*
X161484410Y-111076521D01*
X161536011Y-111100087D01*
X161543078Y-111101493D01*
X161544582Y-111102812D01*
X161544192Y-111104774D01*
X161542688Y-111105455D01*
X160567314Y-111105455D01*
X160565582Y-111104455D01*
X160565582Y-111102455D01*
X160566924Y-111101493D01*
X160573934Y-111100099D01*
X160635566Y-111067860D01*
X160669839Y-111007675D01*
X160666132Y-110938518D01*
X160625590Y-110882294D01*
X160573989Y-110858728D01*
X160566922Y-110857322D01*
X160565418Y-110856003D01*
X160565808Y-110854041D01*
X160567312Y-110853360D01*
X161542686Y-110853360D01*
X161544418Y-110854360D01*
G37*
G36*
X149839417Y-110794282D02*
G01*
X149839417Y-110796282D01*
X149838075Y-110797244D01*
X149833700Y-110798114D01*
X149772068Y-110830353D01*
X149737795Y-110890538D01*
X149741502Y-110959695D01*
X149782044Y-111015919D01*
X149833645Y-111039485D01*
X149838078Y-111040367D01*
X149839582Y-111041686D01*
X149839192Y-111043648D01*
X149837688Y-111044329D01*
X148862315Y-111044329D01*
X148860583Y-111043329D01*
X148860583Y-111041329D01*
X148861925Y-111040367D01*
X148866300Y-111039497D01*
X148927932Y-111007258D01*
X148962205Y-110947073D01*
X148958498Y-110877916D01*
X148917956Y-110821692D01*
X148866355Y-110798126D01*
X148861922Y-110797244D01*
X148860418Y-110795925D01*
X148860808Y-110793963D01*
X148862312Y-110793282D01*
X149837685Y-110793282D01*
X149839417Y-110794282D01*
G37*
G36*
X161544418Y-110054265D02*
G01*
X161544418Y-110056265D01*
X161543076Y-110057227D01*
X161536066Y-110058621D01*
X161474434Y-110090860D01*
X161440161Y-110151045D01*
X161443868Y-110220202D01*
X161484410Y-110276426D01*
X161536011Y-110299992D01*
X161543078Y-110301398D01*
X161544582Y-110302717D01*
X161544192Y-110304679D01*
X161542688Y-110305360D01*
X160567314Y-110305360D01*
X160565582Y-110304360D01*
X160565582Y-110302360D01*
X160566924Y-110301398D01*
X160573934Y-110300004D01*
X160635566Y-110267765D01*
X160669839Y-110207580D01*
X160666132Y-110138423D01*
X160625590Y-110082199D01*
X160573989Y-110058633D01*
X160566922Y-110057227D01*
X160565418Y-110055908D01*
X160565808Y-110053946D01*
X160567312Y-110053265D01*
X161542686Y-110053265D01*
X161544418Y-110054265D01*
G37*
G36*
X149839417Y-109995235D02*
G01*
X149839417Y-109997235D01*
X149838075Y-109998197D01*
X149833700Y-109999067D01*
X149772068Y-110031306D01*
X149737795Y-110091491D01*
X149741502Y-110160648D01*
X149782044Y-110216872D01*
X149833645Y-110240438D01*
X149838078Y-110241320D01*
X149839582Y-110242639D01*
X149839192Y-110244601D01*
X149837688Y-110245282D01*
X148862315Y-110245282D01*
X148860583Y-110244282D01*
X148860583Y-110242282D01*
X148861925Y-110241320D01*
X148866300Y-110240450D01*
X148927932Y-110208211D01*
X148962205Y-110148026D01*
X148958498Y-110078869D01*
X148917956Y-110022645D01*
X148866355Y-109999079D01*
X148861922Y-109998197D01*
X148860418Y-109996878D01*
X148860808Y-109994916D01*
X148862312Y-109994235D01*
X149837685Y-109994235D01*
X149839417Y-109995235D01*
G37*
G36*
X161544418Y-109254170D02*
G01*
X161544418Y-109256170D01*
X161543076Y-109257132D01*
X161536066Y-109258526D01*
X161474434Y-109290765D01*
X161440161Y-109350950D01*
X161443868Y-109420107D01*
X161484410Y-109476331D01*
X161536011Y-109499897D01*
X161543078Y-109501303D01*
X161544582Y-109502622D01*
X161544192Y-109504584D01*
X161542688Y-109505265D01*
X160567314Y-109505265D01*
X160565582Y-109504265D01*
X160565582Y-109502265D01*
X160566924Y-109501303D01*
X160573934Y-109499909D01*
X160635566Y-109467670D01*
X160669839Y-109407485D01*
X160666132Y-109338328D01*
X160625590Y-109282104D01*
X160573989Y-109258538D01*
X160566922Y-109257132D01*
X160565418Y-109255813D01*
X160565808Y-109253851D01*
X160567312Y-109253170D01*
X161542686Y-109253170D01*
X161544418Y-109254170D01*
G37*
G36*
X149839417Y-109196188D02*
G01*
X149839417Y-109198188D01*
X149838075Y-109199150D01*
X149833700Y-109200020D01*
X149772068Y-109232259D01*
X149737795Y-109292444D01*
X149741502Y-109361601D01*
X149782044Y-109417825D01*
X149833645Y-109441391D01*
X149838078Y-109442273D01*
X149839582Y-109443592D01*
X149839192Y-109445554D01*
X149837688Y-109446235D01*
X148862315Y-109446235D01*
X148860583Y-109445235D01*
X148860583Y-109443235D01*
X148861925Y-109442273D01*
X148866300Y-109441403D01*
X148927932Y-109409164D01*
X148962205Y-109348979D01*
X148958498Y-109279822D01*
X148917956Y-109223598D01*
X148866355Y-109200032D01*
X148861922Y-109199150D01*
X148860418Y-109197831D01*
X148860808Y-109195869D01*
X148862312Y-109195188D01*
X149837685Y-109195188D01*
X149839417Y-109196188D01*
G37*
G36*
X161544418Y-108454075D02*
G01*
X161544418Y-108456075D01*
X161543076Y-108457037D01*
X161536066Y-108458431D01*
X161474434Y-108490670D01*
X161440161Y-108550855D01*
X161443868Y-108620012D01*
X161484410Y-108676236D01*
X161536011Y-108699802D01*
X161543078Y-108701208D01*
X161544582Y-108702527D01*
X161544192Y-108704489D01*
X161542688Y-108705170D01*
X160567314Y-108705170D01*
X160565582Y-108704170D01*
X160565582Y-108702170D01*
X160566924Y-108701208D01*
X160573934Y-108699814D01*
X160635566Y-108667575D01*
X160669839Y-108607390D01*
X160666132Y-108538233D01*
X160625590Y-108482009D01*
X160573989Y-108458443D01*
X160566922Y-108457037D01*
X160565418Y-108455718D01*
X160565808Y-108453756D01*
X160567312Y-108453075D01*
X161542686Y-108453075D01*
X161544418Y-108454075D01*
G37*
G36*
X149839417Y-108397141D02*
G01*
X149839417Y-108399141D01*
X149838075Y-108400103D01*
X149833700Y-108400973D01*
X149772068Y-108433212D01*
X149737795Y-108493397D01*
X149741502Y-108562554D01*
X149782044Y-108618778D01*
X149833645Y-108642344D01*
X149838078Y-108643226D01*
X149839582Y-108644545D01*
X149839192Y-108646507D01*
X149837688Y-108647188D01*
X148862315Y-108647188D01*
X148860583Y-108646188D01*
X148860583Y-108644188D01*
X148861925Y-108643226D01*
X148866300Y-108642356D01*
X148927932Y-108610117D01*
X148962205Y-108549932D01*
X148958498Y-108480775D01*
X148917956Y-108424551D01*
X148866355Y-108400985D01*
X148861922Y-108400103D01*
X148860418Y-108398784D01*
X148860808Y-108396822D01*
X148862312Y-108396141D01*
X149837685Y-108396141D01*
X149839417Y-108397141D01*
G37*
G36*
X161544418Y-107653980D02*
G01*
X161544418Y-107655980D01*
X161543076Y-107656942D01*
X161536066Y-107658336D01*
X161474434Y-107690575D01*
X161440161Y-107750760D01*
X161443868Y-107819917D01*
X161484410Y-107876141D01*
X161536011Y-107899707D01*
X161543078Y-107901113D01*
X161544582Y-107902432D01*
X161544192Y-107904394D01*
X161542688Y-107905075D01*
X160567314Y-107905075D01*
X160565582Y-107904075D01*
X160565582Y-107902075D01*
X160566924Y-107901113D01*
X160573934Y-107899719D01*
X160635566Y-107867480D01*
X160669839Y-107807295D01*
X160666132Y-107738138D01*
X160625590Y-107681914D01*
X160573989Y-107658348D01*
X160566922Y-107656942D01*
X160565418Y-107655623D01*
X160565808Y-107653661D01*
X160567312Y-107652980D01*
X161542686Y-107652980D01*
X161544418Y-107653980D01*
G37*
G36*
X149839417Y-107598094D02*
G01*
X149839417Y-107600094D01*
X149838075Y-107601056D01*
X149833700Y-107601926D01*
X149772068Y-107634165D01*
X149737795Y-107694350D01*
X149741502Y-107763507D01*
X149782044Y-107819731D01*
X149833645Y-107843297D01*
X149838078Y-107844179D01*
X149839582Y-107845498D01*
X149839192Y-107847460D01*
X149837688Y-107848141D01*
X148862315Y-107848141D01*
X148860583Y-107847141D01*
X148860583Y-107845141D01*
X148861925Y-107844179D01*
X148866300Y-107843309D01*
X148927932Y-107811070D01*
X148962205Y-107750885D01*
X148958498Y-107681728D01*
X148917956Y-107625504D01*
X148866355Y-107601938D01*
X148861922Y-107601056D01*
X148860418Y-107599737D01*
X148860808Y-107597775D01*
X148862312Y-107597094D01*
X149837685Y-107597094D01*
X149839417Y-107598094D01*
G37*
G36*
X161544418Y-106853885D02*
G01*
X161544418Y-106855885D01*
X161543076Y-106856847D01*
X161536066Y-106858241D01*
X161474434Y-106890480D01*
X161440161Y-106950665D01*
X161443868Y-107019822D01*
X161484410Y-107076046D01*
X161536011Y-107099612D01*
X161543078Y-107101018D01*
X161544582Y-107102337D01*
X161544192Y-107104299D01*
X161542688Y-107104980D01*
X160567314Y-107104980D01*
X160565582Y-107103980D01*
X160565582Y-107101980D01*
X160566924Y-107101018D01*
X160573934Y-107099624D01*
X160635566Y-107067385D01*
X160669839Y-107007200D01*
X160666132Y-106938043D01*
X160625590Y-106881819D01*
X160573989Y-106858253D01*
X160566922Y-106856847D01*
X160565418Y-106855528D01*
X160565808Y-106853566D01*
X160567312Y-106852885D01*
X161542686Y-106852885D01*
X161544418Y-106853885D01*
G37*
G36*
X149839417Y-106799047D02*
G01*
X149839417Y-106801047D01*
X149838075Y-106802009D01*
X149833700Y-106802879D01*
X149772068Y-106835118D01*
X149737795Y-106895303D01*
X149741502Y-106964460D01*
X149782044Y-107020684D01*
X149833645Y-107044250D01*
X149838078Y-107045132D01*
X149839582Y-107046451D01*
X149839192Y-107048413D01*
X149837688Y-107049094D01*
X148862315Y-107049094D01*
X148860583Y-107048094D01*
X148860583Y-107046094D01*
X148861925Y-107045132D01*
X148866300Y-107044262D01*
X148927932Y-107012023D01*
X148962205Y-106951838D01*
X148958498Y-106882681D01*
X148917956Y-106826457D01*
X148866355Y-106802891D01*
X148861922Y-106802009D01*
X148860418Y-106800690D01*
X148860808Y-106798728D01*
X148862312Y-106798047D01*
X149837685Y-106798047D01*
X149839417Y-106799047D01*
G37*
G36*
X161544418Y-106053790D02*
G01*
X161544418Y-106055790D01*
X161543076Y-106056752D01*
X161536066Y-106058146D01*
X161474434Y-106090385D01*
X161440161Y-106150570D01*
X161443868Y-106219727D01*
X161484410Y-106275951D01*
X161536011Y-106299517D01*
X161543078Y-106300923D01*
X161544582Y-106302242D01*
X161544192Y-106304204D01*
X161542688Y-106304885D01*
X160567314Y-106304885D01*
X160565582Y-106303885D01*
X160565582Y-106301885D01*
X160566924Y-106300923D01*
X160573934Y-106299529D01*
X160635566Y-106267290D01*
X160669839Y-106207105D01*
X160666132Y-106137948D01*
X160625590Y-106081724D01*
X160573989Y-106058158D01*
X160566922Y-106056752D01*
X160565418Y-106055433D01*
X160565808Y-106053471D01*
X160567312Y-106052790D01*
X161542686Y-106052790D01*
X161544418Y-106053790D01*
G37*
G36*
X149839417Y-106000000D02*
G01*
X149839417Y-106002000D01*
X149838075Y-106002962D01*
X149833700Y-106003832D01*
X149772068Y-106036071D01*
X149737795Y-106096256D01*
X149741502Y-106165413D01*
X149782044Y-106221637D01*
X149833645Y-106245203D01*
X149838078Y-106246085D01*
X149839582Y-106247404D01*
X149839192Y-106249366D01*
X149837688Y-106250047D01*
X148862315Y-106250047D01*
X148860583Y-106249047D01*
X148860583Y-106247047D01*
X148861925Y-106246085D01*
X148866300Y-106245215D01*
X148927932Y-106212976D01*
X148962205Y-106152791D01*
X148958498Y-106083634D01*
X148917956Y-106027410D01*
X148866355Y-106003844D01*
X148861922Y-106002962D01*
X148860418Y-106001643D01*
X148860808Y-105999681D01*
X148862312Y-105999000D01*
X149837685Y-105999000D01*
X149839417Y-106000000D01*
G37*
G36*
X161544418Y-105253695D02*
G01*
X161544418Y-105255695D01*
X161543076Y-105256657D01*
X161536066Y-105258051D01*
X161474434Y-105290290D01*
X161440161Y-105350475D01*
X161443868Y-105419632D01*
X161484410Y-105475856D01*
X161536011Y-105499422D01*
X161543078Y-105500828D01*
X161544582Y-105502147D01*
X161544192Y-105504109D01*
X161542688Y-105504790D01*
X160567314Y-105504790D01*
X160565582Y-105503790D01*
X160565582Y-105501790D01*
X160566924Y-105500828D01*
X160573934Y-105499434D01*
X160635566Y-105467195D01*
X160669839Y-105407010D01*
X160666132Y-105337853D01*
X160625590Y-105281629D01*
X160573989Y-105258063D01*
X160566922Y-105256657D01*
X160565418Y-105255338D01*
X160565808Y-105253376D01*
X160567312Y-105252695D01*
X161542686Y-105252695D01*
X161544418Y-105253695D01*
G37*
G36*
X149839417Y-105200953D02*
G01*
X149839417Y-105202953D01*
X149838075Y-105203915D01*
X149833700Y-105204785D01*
X149772068Y-105237024D01*
X149737795Y-105297209D01*
X149741502Y-105366366D01*
X149782044Y-105422590D01*
X149833645Y-105446156D01*
X149838078Y-105447038D01*
X149839582Y-105448357D01*
X149839192Y-105450319D01*
X149837688Y-105451000D01*
X148862315Y-105451000D01*
X148860583Y-105450000D01*
X148860583Y-105448000D01*
X148861925Y-105447038D01*
X148866300Y-105446168D01*
X148927932Y-105413929D01*
X148962205Y-105353744D01*
X148958498Y-105284587D01*
X148917956Y-105228363D01*
X148866355Y-105204797D01*
X148861922Y-105203915D01*
X148860418Y-105202596D01*
X148860808Y-105200634D01*
X148862312Y-105199953D01*
X149837685Y-105199953D01*
X149839417Y-105200953D01*
G37*
G36*
X161544418Y-104453600D02*
G01*
X161544418Y-104455600D01*
X161543076Y-104456562D01*
X161536066Y-104457956D01*
X161474434Y-104490195D01*
X161440161Y-104550380D01*
X161443868Y-104619537D01*
X161484410Y-104675761D01*
X161536011Y-104699327D01*
X161543078Y-104700733D01*
X161544582Y-104702052D01*
X161544192Y-104704014D01*
X161542688Y-104704695D01*
X160567314Y-104704695D01*
X160565582Y-104703695D01*
X160565582Y-104701695D01*
X160566924Y-104700733D01*
X160573934Y-104699339D01*
X160635566Y-104667100D01*
X160669839Y-104606915D01*
X160666132Y-104537758D01*
X160625590Y-104481534D01*
X160573989Y-104457968D01*
X160566922Y-104456562D01*
X160565418Y-104455243D01*
X160565808Y-104453281D01*
X160567312Y-104452600D01*
X161542686Y-104452600D01*
X161544418Y-104453600D01*
G37*
G36*
X149839417Y-104401906D02*
G01*
X149839417Y-104403906D01*
X149838075Y-104404868D01*
X149833700Y-104405738D01*
X149772068Y-104437977D01*
X149737795Y-104498162D01*
X149741502Y-104567319D01*
X149782044Y-104623543D01*
X149833645Y-104647109D01*
X149838078Y-104647991D01*
X149839582Y-104649310D01*
X149839192Y-104651272D01*
X149837688Y-104651953D01*
X148862315Y-104651953D01*
X148860583Y-104650953D01*
X148860583Y-104648953D01*
X148861925Y-104647991D01*
X148866300Y-104647121D01*
X148927932Y-104614882D01*
X148962205Y-104554697D01*
X148958498Y-104485540D01*
X148917956Y-104429316D01*
X148866355Y-104405750D01*
X148861922Y-104404868D01*
X148860418Y-104403549D01*
X148860808Y-104401587D01*
X148862312Y-104400906D01*
X149837685Y-104400906D01*
X149839417Y-104401906D01*
G37*
G36*
X161544418Y-103653505D02*
G01*
X161544418Y-103655505D01*
X161543076Y-103656467D01*
X161536066Y-103657861D01*
X161474434Y-103690100D01*
X161440161Y-103750285D01*
X161443868Y-103819442D01*
X161484410Y-103875666D01*
X161536011Y-103899232D01*
X161543078Y-103900638D01*
X161544582Y-103901957D01*
X161544192Y-103903919D01*
X161542688Y-103904600D01*
X160567314Y-103904600D01*
X160565582Y-103903600D01*
X160565582Y-103901600D01*
X160566924Y-103900638D01*
X160573934Y-103899244D01*
X160635566Y-103867005D01*
X160669839Y-103806820D01*
X160666132Y-103737663D01*
X160625590Y-103681439D01*
X160573989Y-103657873D01*
X160566922Y-103656467D01*
X160565418Y-103655148D01*
X160565808Y-103653186D01*
X160567312Y-103652505D01*
X161542686Y-103652505D01*
X161544418Y-103653505D01*
G37*
G36*
X149839417Y-103602859D02*
G01*
X149839417Y-103604859D01*
X149838075Y-103605821D01*
X149833700Y-103606691D01*
X149772068Y-103638930D01*
X149737795Y-103699115D01*
X149741502Y-103768272D01*
X149782044Y-103824496D01*
X149833645Y-103848062D01*
X149838078Y-103848944D01*
X149839582Y-103850263D01*
X149839192Y-103852225D01*
X149837688Y-103852906D01*
X148862315Y-103852906D01*
X148860583Y-103851906D01*
X148860583Y-103849906D01*
X148861925Y-103848944D01*
X148866300Y-103848074D01*
X148927932Y-103815835D01*
X148962205Y-103755650D01*
X148958498Y-103686493D01*
X148917956Y-103630269D01*
X148866355Y-103606703D01*
X148861922Y-103605821D01*
X148860418Y-103604502D01*
X148860808Y-103602540D01*
X148862312Y-103601859D01*
X149837685Y-103601859D01*
X149839417Y-103602859D01*
G37*
G36*
X161544418Y-102853410D02*
G01*
X161544418Y-102855410D01*
X161543076Y-102856372D01*
X161536066Y-102857766D01*
X161474434Y-102890005D01*
X161440161Y-102950190D01*
X161443868Y-103019347D01*
X161484410Y-103075571D01*
X161536011Y-103099137D01*
X161543078Y-103100543D01*
X161544582Y-103101862D01*
X161544192Y-103103824D01*
X161542688Y-103104505D01*
X160567314Y-103104505D01*
X160565582Y-103103505D01*
X160565582Y-103101505D01*
X160566924Y-103100543D01*
X160573934Y-103099149D01*
X160635566Y-103066910D01*
X160669839Y-103006725D01*
X160666132Y-102937568D01*
X160625590Y-102881344D01*
X160573989Y-102857778D01*
X160566922Y-102856372D01*
X160565418Y-102855053D01*
X160565808Y-102853091D01*
X160567312Y-102852410D01*
X161542686Y-102852410D01*
X161544418Y-102853410D01*
G37*
G36*
X149839417Y-102803812D02*
G01*
X149839417Y-102805812D01*
X149838075Y-102806774D01*
X149833700Y-102807644D01*
X149772068Y-102839883D01*
X149737795Y-102900068D01*
X149741502Y-102969225D01*
X149782044Y-103025449D01*
X149833645Y-103049015D01*
X149838078Y-103049897D01*
X149839582Y-103051216D01*
X149839192Y-103053178D01*
X149837688Y-103053859D01*
X148862315Y-103053859D01*
X148860583Y-103052859D01*
X148860583Y-103050859D01*
X148861925Y-103049897D01*
X148866300Y-103049027D01*
X148927932Y-103016788D01*
X148962205Y-102956603D01*
X148958498Y-102887446D01*
X148917956Y-102831222D01*
X148866355Y-102807656D01*
X148861922Y-102806774D01*
X148860418Y-102805455D01*
X148860808Y-102803493D01*
X148862312Y-102802812D01*
X149837685Y-102802812D01*
X149839417Y-102803812D01*
G37*
G36*
X161544418Y-102053315D02*
G01*
X161544418Y-102055315D01*
X161543076Y-102056277D01*
X161536066Y-102057671D01*
X161474434Y-102089910D01*
X161440161Y-102150095D01*
X161443868Y-102219252D01*
X161484410Y-102275476D01*
X161536011Y-102299042D01*
X161543078Y-102300448D01*
X161544582Y-102301767D01*
X161544192Y-102303729D01*
X161542688Y-102304410D01*
X160567314Y-102304410D01*
X160565582Y-102303410D01*
X160565582Y-102301410D01*
X160566924Y-102300448D01*
X160573934Y-102299054D01*
X160635566Y-102266815D01*
X160669839Y-102206630D01*
X160666132Y-102137473D01*
X160625590Y-102081249D01*
X160573989Y-102057683D01*
X160566922Y-102056277D01*
X160565418Y-102054958D01*
X160565808Y-102052996D01*
X160567312Y-102052315D01*
X161542686Y-102052315D01*
X161544418Y-102053315D01*
G37*
G36*
X149839417Y-102004765D02*
G01*
X149839417Y-102006765D01*
X149838075Y-102007727D01*
X149833700Y-102008597D01*
X149772068Y-102040836D01*
X149737795Y-102101021D01*
X149741502Y-102170178D01*
X149782044Y-102226402D01*
X149833645Y-102249968D01*
X149838078Y-102250850D01*
X149839582Y-102252169D01*
X149839192Y-102254131D01*
X149837688Y-102254812D01*
X148862315Y-102254812D01*
X148860583Y-102253812D01*
X148860583Y-102251812D01*
X148861925Y-102250850D01*
X148866300Y-102249980D01*
X148927932Y-102217741D01*
X148962205Y-102157556D01*
X148958498Y-102088399D01*
X148917956Y-102032175D01*
X148866355Y-102008609D01*
X148861922Y-102007727D01*
X148860418Y-102006408D01*
X148860808Y-102004446D01*
X148862312Y-102003765D01*
X149837685Y-102003765D01*
X149839417Y-102004765D01*
G37*
G36*
X161544418Y-101253220D02*
G01*
X161544418Y-101255220D01*
X161543076Y-101256182D01*
X161536066Y-101257576D01*
X161474434Y-101289815D01*
X161440161Y-101350000D01*
X161443868Y-101419157D01*
X161484410Y-101475381D01*
X161536011Y-101498947D01*
X161543078Y-101500353D01*
X161544582Y-101501672D01*
X161544192Y-101503634D01*
X161542688Y-101504315D01*
X160567314Y-101504315D01*
X160565582Y-101503315D01*
X160565582Y-101501315D01*
X160566924Y-101500353D01*
X160573934Y-101498959D01*
X160635566Y-101466720D01*
X160669839Y-101406535D01*
X160666132Y-101337378D01*
X160625590Y-101281154D01*
X160573989Y-101257588D01*
X160566922Y-101256182D01*
X160565418Y-101254863D01*
X160565808Y-101252901D01*
X160567312Y-101252220D01*
X161542686Y-101252220D01*
X161544418Y-101253220D01*
G37*
G36*
X149839417Y-101205718D02*
G01*
X149839417Y-101207718D01*
X149838075Y-101208680D01*
X149833700Y-101209550D01*
X149772068Y-101241789D01*
X149737795Y-101301974D01*
X149741502Y-101371131D01*
X149782044Y-101427355D01*
X149833645Y-101450921D01*
X149838078Y-101451803D01*
X149839582Y-101453122D01*
X149839192Y-101455084D01*
X149837688Y-101455765D01*
X148862315Y-101455765D01*
X148860583Y-101454765D01*
X148860583Y-101452765D01*
X148861925Y-101451803D01*
X148866300Y-101450933D01*
X148927932Y-101418694D01*
X148962205Y-101358509D01*
X148958498Y-101289352D01*
X148917956Y-101233128D01*
X148866355Y-101209562D01*
X148861922Y-101208680D01*
X148860418Y-101207361D01*
X148860808Y-101205399D01*
X148862312Y-101204718D01*
X149837685Y-101204718D01*
X149839417Y-101205718D01*
G37*
G36*
X161544418Y-100453125D02*
G01*
X161544418Y-100455125D01*
X161543076Y-100456087D01*
X161536066Y-100457481D01*
X161474434Y-100489720D01*
X161440161Y-100549905D01*
X161443868Y-100619062D01*
X161484410Y-100675286D01*
X161536011Y-100698852D01*
X161543078Y-100700258D01*
X161544582Y-100701577D01*
X161544192Y-100703539D01*
X161542688Y-100704220D01*
X160567314Y-100704220D01*
X160565582Y-100703220D01*
X160565582Y-100701220D01*
X160566924Y-100700258D01*
X160573934Y-100698864D01*
X160635566Y-100666625D01*
X160669839Y-100606440D01*
X160666132Y-100537283D01*
X160625590Y-100481059D01*
X160573989Y-100457493D01*
X160566922Y-100456087D01*
X160565418Y-100454768D01*
X160565808Y-100452806D01*
X160567312Y-100452125D01*
X161542686Y-100452125D01*
X161544418Y-100453125D01*
G37*
G36*
X149839417Y-100406671D02*
G01*
X149839417Y-100408671D01*
X149838075Y-100409633D01*
X149833700Y-100410503D01*
X149772068Y-100442742D01*
X149737795Y-100502927D01*
X149741502Y-100572084D01*
X149782044Y-100628308D01*
X149833645Y-100651874D01*
X149838078Y-100652756D01*
X149839582Y-100654075D01*
X149839192Y-100656037D01*
X149837688Y-100656718D01*
X148862315Y-100656718D01*
X148860583Y-100655718D01*
X148860583Y-100653718D01*
X148861925Y-100652756D01*
X148866300Y-100651886D01*
X148927932Y-100619647D01*
X148962205Y-100559462D01*
X148958498Y-100490305D01*
X148917956Y-100434081D01*
X148866355Y-100410515D01*
X148861922Y-100409633D01*
X148860418Y-100408314D01*
X148860808Y-100406352D01*
X148862312Y-100405671D01*
X149837685Y-100405671D01*
X149839417Y-100406671D01*
G37*
G36*
X161544418Y-99653030D02*
G01*
X161544418Y-99655030D01*
X161543076Y-99655992D01*
X161536066Y-99657386D01*
X161474434Y-99689625D01*
X161440161Y-99749810D01*
X161443868Y-99818967D01*
X161484410Y-99875191D01*
X161536011Y-99898757D01*
X161543078Y-99900163D01*
X161544582Y-99901482D01*
X161544192Y-99903444D01*
X161542688Y-99904125D01*
X160567314Y-99904125D01*
X160565582Y-99903125D01*
X160565582Y-99901125D01*
X160566924Y-99900163D01*
X160573934Y-99898769D01*
X160635566Y-99866530D01*
X160669839Y-99806345D01*
X160666132Y-99737188D01*
X160625590Y-99680964D01*
X160573989Y-99657398D01*
X160566922Y-99655992D01*
X160565418Y-99654673D01*
X160565808Y-99652711D01*
X160567312Y-99652030D01*
X161542686Y-99652030D01*
X161544418Y-99653030D01*
G37*
G36*
X149839417Y-99607624D02*
G01*
X149839417Y-99609624D01*
X149838075Y-99610586D01*
X149833700Y-99611456D01*
X149772068Y-99643695D01*
X149737795Y-99703880D01*
X149741502Y-99773037D01*
X149782044Y-99829261D01*
X149833645Y-99852827D01*
X149838078Y-99853709D01*
X149839582Y-99855028D01*
X149839192Y-99856990D01*
X149837688Y-99857671D01*
X148862315Y-99857671D01*
X148860583Y-99856671D01*
X148860583Y-99854671D01*
X148861925Y-99853709D01*
X148866300Y-99852839D01*
X148927932Y-99820600D01*
X148962205Y-99760415D01*
X148958498Y-99691258D01*
X148917956Y-99635034D01*
X148866355Y-99611468D01*
X148861922Y-99610586D01*
X148860418Y-99609267D01*
X148860808Y-99607305D01*
X148862312Y-99606624D01*
X149837685Y-99606624D01*
X149839417Y-99607624D01*
G37*
G36*
X161544418Y-98852935D02*
G01*
X161544418Y-98854935D01*
X161543076Y-98855897D01*
X161536066Y-98857291D01*
X161474434Y-98889530D01*
X161440161Y-98949715D01*
X161443868Y-99018872D01*
X161484410Y-99075096D01*
X161536011Y-99098662D01*
X161543078Y-99100068D01*
X161544582Y-99101387D01*
X161544192Y-99103349D01*
X161542688Y-99104030D01*
X160567314Y-99104030D01*
X160565582Y-99103030D01*
X160565582Y-99101030D01*
X160566924Y-99100068D01*
X160573934Y-99098674D01*
X160635566Y-99066435D01*
X160669839Y-99006250D01*
X160666132Y-98937093D01*
X160625590Y-98880869D01*
X160573989Y-98857303D01*
X160566922Y-98855897D01*
X160565418Y-98854578D01*
X160565808Y-98852616D01*
X160567312Y-98851935D01*
X161542686Y-98851935D01*
X161544418Y-98852935D01*
G37*
G36*
X149839417Y-98808577D02*
G01*
X149839417Y-98810577D01*
X149838075Y-98811539D01*
X149833700Y-98812409D01*
X149772068Y-98844648D01*
X149737795Y-98904833D01*
X149741502Y-98973990D01*
X149782044Y-99030214D01*
X149833645Y-99053780D01*
X149838078Y-99054662D01*
X149839582Y-99055981D01*
X149839192Y-99057943D01*
X149837688Y-99058624D01*
X148862315Y-99058624D01*
X148860583Y-99057624D01*
X148860583Y-99055624D01*
X148861925Y-99054662D01*
X148866300Y-99053792D01*
X148927932Y-99021553D01*
X148962205Y-98961368D01*
X148958498Y-98892211D01*
X148917956Y-98835987D01*
X148866355Y-98812421D01*
X148861922Y-98811539D01*
X148860418Y-98810220D01*
X148860808Y-98808258D01*
X148862312Y-98807577D01*
X149837685Y-98807577D01*
X149839417Y-98808577D01*
G37*
G36*
X161544418Y-98052840D02*
G01*
X161544418Y-98054840D01*
X161543076Y-98055802D01*
X161536066Y-98057196D01*
X161474434Y-98089435D01*
X161440161Y-98149620D01*
X161443868Y-98218777D01*
X161484410Y-98275001D01*
X161536011Y-98298567D01*
X161543078Y-98299973D01*
X161544582Y-98301292D01*
X161544192Y-98303254D01*
X161542688Y-98303935D01*
X160567314Y-98303935D01*
X160565582Y-98302935D01*
X160565582Y-98300935D01*
X160566924Y-98299973D01*
X160573934Y-98298579D01*
X160635566Y-98266340D01*
X160669839Y-98206155D01*
X160666132Y-98136998D01*
X160625590Y-98080774D01*
X160573989Y-98057208D01*
X160566922Y-98055802D01*
X160565418Y-98054483D01*
X160565808Y-98052521D01*
X160567312Y-98051840D01*
X161542686Y-98051840D01*
X161544418Y-98052840D01*
G37*
G36*
X149839417Y-98009530D02*
G01*
X149839417Y-98011530D01*
X149838075Y-98012492D01*
X149833700Y-98013362D01*
X149772068Y-98045601D01*
X149737795Y-98105786D01*
X149741502Y-98174943D01*
X149782044Y-98231167D01*
X149833645Y-98254733D01*
X149838078Y-98255615D01*
X149839582Y-98256934D01*
X149839192Y-98258896D01*
X149837688Y-98259577D01*
X148862315Y-98259577D01*
X148860583Y-98258577D01*
X148860583Y-98256577D01*
X148861925Y-98255615D01*
X148866300Y-98254745D01*
X148927932Y-98222506D01*
X148962205Y-98162321D01*
X148958498Y-98093164D01*
X148917956Y-98036940D01*
X148866355Y-98013374D01*
X148861922Y-98012492D01*
X148860418Y-98011173D01*
X148860808Y-98009211D01*
X148862312Y-98008530D01*
X149837685Y-98008530D01*
X149839417Y-98009530D01*
G37*
G36*
X161544418Y-97252745D02*
G01*
X161544418Y-97254745D01*
X161543076Y-97255707D01*
X161536066Y-97257101D01*
X161474434Y-97289340D01*
X161440161Y-97349525D01*
X161443868Y-97418682D01*
X161484410Y-97474906D01*
X161536011Y-97498472D01*
X161543078Y-97499878D01*
X161544582Y-97501197D01*
X161544192Y-97503159D01*
X161542688Y-97503840D01*
X160567314Y-97503840D01*
X160565582Y-97502840D01*
X160565582Y-97500840D01*
X160566924Y-97499878D01*
X160573934Y-97498484D01*
X160635566Y-97466245D01*
X160669839Y-97406060D01*
X160666132Y-97336903D01*
X160625590Y-97280679D01*
X160573989Y-97257113D01*
X160566922Y-97255707D01*
X160565418Y-97254388D01*
X160565808Y-97252426D01*
X160567312Y-97251745D01*
X161542686Y-97251745D01*
X161544418Y-97252745D01*
G37*
G36*
X149839411Y-97210470D02*
G01*
X149839411Y-97212470D01*
X149838069Y-97213432D01*
X149833668Y-97214307D01*
X149772036Y-97246546D01*
X149737762Y-97306731D01*
X149741468Y-97375888D01*
X149782010Y-97432113D01*
X149833611Y-97455679D01*
X149838079Y-97456568D01*
X149839583Y-97457887D01*
X149839193Y-97459849D01*
X149837689Y-97460530D01*
X148862321Y-97460530D01*
X148860589Y-97459530D01*
X148860589Y-97457530D01*
X148861931Y-97456568D01*
X148866332Y-97455693D01*
X148927964Y-97423454D01*
X148962238Y-97363269D01*
X148958532Y-97294112D01*
X148917990Y-97237887D01*
X148866389Y-97214321D01*
X148861921Y-97213432D01*
X148860417Y-97212113D01*
X148860807Y-97210151D01*
X148862311Y-97209470D01*
X149837679Y-97209470D01*
X149839411Y-97210470D01*
G37*
G36*
X131982775Y-95761484D02*
G01*
X131982848Y-95762530D01*
X131972220Y-95815959D01*
X131972220Y-97065561D01*
X131982804Y-97118768D01*
X131982161Y-97120662D01*
X131980199Y-97121052D01*
X131979317Y-97120452D01*
X131938532Y-97072384D01*
X131872286Y-97052183D01*
X131805645Y-97071001D01*
X131762667Y-97120688D01*
X131760777Y-97121344D01*
X131759265Y-97120036D01*
X131759192Y-97118990D01*
X131769820Y-97065561D01*
X131769820Y-95815959D01*
X131759236Y-95762752D01*
X131759879Y-95760858D01*
X131761841Y-95760468D01*
X131762723Y-95761068D01*
X131803508Y-95809136D01*
X131869754Y-95829337D01*
X131936395Y-95810519D01*
X131979373Y-95760832D01*
X131981263Y-95760176D01*
X131982775Y-95761484D01*
G37*
G36*
X131182775Y-95761484D02*
G01*
X131182848Y-95762530D01*
X131172220Y-95815959D01*
X131172220Y-97065561D01*
X131182804Y-97118768D01*
X131182161Y-97120662D01*
X131180199Y-97121052D01*
X131179317Y-97120452D01*
X131138532Y-97072384D01*
X131072286Y-97052183D01*
X131005645Y-97071001D01*
X130962667Y-97120688D01*
X130960777Y-97121344D01*
X130959265Y-97120036D01*
X130959192Y-97118990D01*
X130969820Y-97065561D01*
X130969820Y-95815959D01*
X130959236Y-95762752D01*
X130959879Y-95760858D01*
X130961841Y-95760468D01*
X130962723Y-95761068D01*
X131003508Y-95809136D01*
X131069754Y-95829337D01*
X131136395Y-95810519D01*
X131179373Y-95760832D01*
X131181263Y-95760176D01*
X131182775Y-95761484D01*
G37*
G36*
X127982775Y-95761484D02*
G01*
X127982848Y-95762530D01*
X127972220Y-95815959D01*
X127972220Y-97065561D01*
X127982804Y-97118768D01*
X127982161Y-97120662D01*
X127980199Y-97121052D01*
X127979317Y-97120452D01*
X127938532Y-97072384D01*
X127872286Y-97052183D01*
X127805645Y-97071001D01*
X127762667Y-97120688D01*
X127760777Y-97121344D01*
X127759265Y-97120036D01*
X127759192Y-97118990D01*
X127769820Y-97065561D01*
X127769820Y-95815959D01*
X127759236Y-95762752D01*
X127759879Y-95760858D01*
X127761841Y-95760468D01*
X127762723Y-95761068D01*
X127803508Y-95809136D01*
X127869754Y-95829337D01*
X127936395Y-95810519D01*
X127979373Y-95760832D01*
X127981263Y-95760176D01*
X127982775Y-95761484D01*
G37*
G36*
X132782775Y-95761484D02*
G01*
X132782848Y-95762530D01*
X132772220Y-95815959D01*
X132772220Y-97065561D01*
X132782804Y-97118768D01*
X132782161Y-97120662D01*
X132780199Y-97121052D01*
X132779317Y-97120452D01*
X132738532Y-97072384D01*
X132672286Y-97052183D01*
X132605645Y-97071001D01*
X132562667Y-97120688D01*
X132560777Y-97121344D01*
X132559265Y-97120036D01*
X132559192Y-97118990D01*
X132569820Y-97065561D01*
X132569820Y-95815959D01*
X132559236Y-95762752D01*
X132559879Y-95760858D01*
X132561841Y-95760468D01*
X132562723Y-95761068D01*
X132603508Y-95809136D01*
X132669754Y-95829337D01*
X132736395Y-95810519D01*
X132779373Y-95760832D01*
X132781263Y-95760176D01*
X132782775Y-95761484D01*
G37*
G36*
X129582775Y-95761484D02*
G01*
X129582848Y-95762530D01*
X129572220Y-95815959D01*
X129572220Y-97065561D01*
X129582804Y-97118768D01*
X129582161Y-97120662D01*
X129580199Y-97121052D01*
X129579317Y-97120452D01*
X129538532Y-97072384D01*
X129472286Y-97052183D01*
X129405645Y-97071001D01*
X129362667Y-97120688D01*
X129360777Y-97121344D01*
X129359265Y-97120036D01*
X129359192Y-97118990D01*
X129369820Y-97065561D01*
X129369820Y-95815959D01*
X129359236Y-95762752D01*
X129359879Y-95760858D01*
X129361841Y-95760468D01*
X129362723Y-95761068D01*
X129403508Y-95809136D01*
X129469754Y-95829337D01*
X129536395Y-95810519D01*
X129579373Y-95760832D01*
X129581263Y-95760176D01*
X129582775Y-95761484D01*
G37*
G36*
X130382775Y-95761484D02*
G01*
X130382848Y-95762530D01*
X130372220Y-95815959D01*
X130372220Y-97065561D01*
X130382804Y-97118768D01*
X130382161Y-97120662D01*
X130380199Y-97121052D01*
X130379317Y-97120452D01*
X130338532Y-97072384D01*
X130272286Y-97052183D01*
X130205645Y-97071001D01*
X130162667Y-97120688D01*
X130160777Y-97121344D01*
X130159265Y-97120036D01*
X130159192Y-97118990D01*
X130169820Y-97065561D01*
X130169820Y-95815959D01*
X130159236Y-95762752D01*
X130159879Y-95760858D01*
X130161841Y-95760468D01*
X130162723Y-95761068D01*
X130203508Y-95809136D01*
X130269754Y-95829337D01*
X130336395Y-95810519D01*
X130379373Y-95760832D01*
X130381263Y-95760176D01*
X130382775Y-95761484D01*
G37*
G36*
X128782775Y-95761484D02*
G01*
X128782848Y-95762530D01*
X128772220Y-95815959D01*
X128772220Y-97065561D01*
X128782804Y-97118768D01*
X128782161Y-97120662D01*
X128780199Y-97121052D01*
X128779317Y-97120452D01*
X128738532Y-97072384D01*
X128672286Y-97052183D01*
X128605645Y-97071001D01*
X128562667Y-97120688D01*
X128560777Y-97121344D01*
X128559265Y-97120036D01*
X128559192Y-97118990D01*
X128569820Y-97065561D01*
X128569820Y-95815959D01*
X128559236Y-95762752D01*
X128559879Y-95760858D01*
X128561841Y-95760468D01*
X128562723Y-95761068D01*
X128603508Y-95809136D01*
X128669754Y-95829337D01*
X128736395Y-95810519D01*
X128779373Y-95760832D01*
X128781263Y-95760176D01*
X128782775Y-95761484D01*
G37*
G36*
X125471219Y-94564560D02*
G01*
X126720821Y-94564560D01*
X126774028Y-94553976D01*
X126775922Y-94554619D01*
X126776312Y-94556581D01*
X126775712Y-94557463D01*
X126727644Y-94598248D01*
X126707443Y-94664494D01*
X126726261Y-94731135D01*
X126775948Y-94774113D01*
X126776604Y-94776003D01*
X126775296Y-94777515D01*
X126774250Y-94777588D01*
X126720821Y-94766960D01*
X125471219Y-94766960D01*
X125418012Y-94777544D01*
X125416118Y-94776901D01*
X125415728Y-94774939D01*
X125416328Y-94774057D01*
X125464396Y-94733272D01*
X125484597Y-94667026D01*
X125465779Y-94600385D01*
X125416092Y-94557407D01*
X125415436Y-94555517D01*
X125416744Y-94554005D01*
X125417790Y-94553932D01*
X125471219Y-94564560D01*
G37*
G36*
X133821219Y-94564560D02*
G01*
X135070821Y-94564560D01*
X135124028Y-94553976D01*
X135125922Y-94554619D01*
X135126312Y-94556581D01*
X135125712Y-94557463D01*
X135077644Y-94598248D01*
X135057443Y-94664494D01*
X135076261Y-94731135D01*
X135125948Y-94774113D01*
X135126604Y-94776003D01*
X135125296Y-94777515D01*
X135124250Y-94777588D01*
X135070821Y-94766960D01*
X133821219Y-94766960D01*
X133768012Y-94777544D01*
X133766118Y-94776901D01*
X133765728Y-94774939D01*
X133766328Y-94774057D01*
X133814396Y-94733272D01*
X133834597Y-94667026D01*
X133815779Y-94600385D01*
X133766092Y-94557407D01*
X133765436Y-94555517D01*
X133766744Y-94554005D01*
X133767790Y-94553932D01*
X133821219Y-94564560D01*
G37*
G36*
X133821219Y-93764560D02*
G01*
X135070821Y-93764560D01*
X135124028Y-93753976D01*
X135125922Y-93754619D01*
X135126312Y-93756581D01*
X135125712Y-93757463D01*
X135077644Y-93798248D01*
X135057443Y-93864494D01*
X135076261Y-93931135D01*
X135125948Y-93974113D01*
X135126604Y-93976003D01*
X135125296Y-93977515D01*
X135124250Y-93977588D01*
X135070821Y-93966960D01*
X133821219Y-93966960D01*
X133768012Y-93977544D01*
X133766118Y-93976901D01*
X133765728Y-93974939D01*
X133766328Y-93974057D01*
X133814396Y-93933272D01*
X133834597Y-93867026D01*
X133815779Y-93800385D01*
X133766092Y-93757407D01*
X133765436Y-93755517D01*
X133766744Y-93754005D01*
X133767790Y-93753932D01*
X133821219Y-93764560D01*
G37*
G36*
X125471219Y-93764560D02*
G01*
X126720821Y-93764560D01*
X126774028Y-93753976D01*
X126775922Y-93754619D01*
X126776312Y-93756581D01*
X126775712Y-93757463D01*
X126727644Y-93798248D01*
X126707443Y-93864494D01*
X126726261Y-93931135D01*
X126775948Y-93974113D01*
X126776604Y-93976003D01*
X126775296Y-93977515D01*
X126774250Y-93977588D01*
X126720821Y-93966960D01*
X125471219Y-93966960D01*
X125418012Y-93977544D01*
X125416118Y-93976901D01*
X125415728Y-93974939D01*
X125416328Y-93974057D01*
X125464396Y-93933272D01*
X125484597Y-93867026D01*
X125465779Y-93800385D01*
X125416092Y-93757407D01*
X125415436Y-93755517D01*
X125416744Y-93754005D01*
X125417790Y-93753932D01*
X125471219Y-93764560D01*
G37*
G36*
X125471219Y-92964560D02*
G01*
X126720821Y-92964560D01*
X126774028Y-92953976D01*
X126775922Y-92954619D01*
X126776312Y-92956581D01*
X126775712Y-92957463D01*
X126727644Y-92998248D01*
X126707443Y-93064494D01*
X126726261Y-93131135D01*
X126775948Y-93174113D01*
X126776604Y-93176003D01*
X126775296Y-93177515D01*
X126774250Y-93177588D01*
X126720821Y-93166960D01*
X125471219Y-93166960D01*
X125418012Y-93177544D01*
X125416118Y-93176901D01*
X125415728Y-93174939D01*
X125416328Y-93174057D01*
X125464396Y-93133272D01*
X125484597Y-93067026D01*
X125465779Y-93000385D01*
X125416092Y-92957407D01*
X125415436Y-92955517D01*
X125416744Y-92954005D01*
X125417790Y-92953932D01*
X125471219Y-92964560D01*
G37*
G36*
X133821219Y-92964560D02*
G01*
X135070821Y-92964560D01*
X135124028Y-92953976D01*
X135125922Y-92954619D01*
X135126312Y-92956581D01*
X135125712Y-92957463D01*
X135077644Y-92998248D01*
X135057443Y-93064494D01*
X135076261Y-93131135D01*
X135125948Y-93174113D01*
X135126604Y-93176003D01*
X135125296Y-93177515D01*
X135124250Y-93177588D01*
X135070821Y-93166960D01*
X133821219Y-93166960D01*
X133768012Y-93177544D01*
X133766118Y-93176901D01*
X133765728Y-93174939D01*
X133766328Y-93174057D01*
X133814396Y-93133272D01*
X133834597Y-93067026D01*
X133815779Y-93000385D01*
X133766092Y-92957407D01*
X133765436Y-92955517D01*
X133766744Y-92954005D01*
X133767790Y-92953932D01*
X133821219Y-92964560D01*
G37*
G36*
X133821219Y-92164560D02*
G01*
X135070821Y-92164560D01*
X135124028Y-92153976D01*
X135125922Y-92154619D01*
X135126312Y-92156581D01*
X135125712Y-92157463D01*
X135077644Y-92198248D01*
X135057443Y-92264494D01*
X135076261Y-92331135D01*
X135125948Y-92374113D01*
X135126604Y-92376003D01*
X135125296Y-92377515D01*
X135124250Y-92377588D01*
X135070821Y-92366960D01*
X133821219Y-92366960D01*
X133768012Y-92377544D01*
X133766118Y-92376901D01*
X133765728Y-92374939D01*
X133766328Y-92374057D01*
X133814396Y-92333272D01*
X133834597Y-92267026D01*
X133815779Y-92200385D01*
X133766092Y-92157407D01*
X133765436Y-92155517D01*
X133766744Y-92154005D01*
X133767790Y-92153932D01*
X133821219Y-92164560D01*
G37*
G36*
X125471219Y-92164560D02*
G01*
X126720821Y-92164560D01*
X126774028Y-92153976D01*
X126775922Y-92154619D01*
X126776312Y-92156581D01*
X126775712Y-92157463D01*
X126727644Y-92198248D01*
X126707443Y-92264494D01*
X126726261Y-92331135D01*
X126775948Y-92374113D01*
X126776604Y-92376003D01*
X126775296Y-92377515D01*
X126774250Y-92377588D01*
X126720821Y-92366960D01*
X125471219Y-92366960D01*
X125418012Y-92377544D01*
X125416118Y-92376901D01*
X125415728Y-92374939D01*
X125416328Y-92374057D01*
X125464396Y-92333272D01*
X125484597Y-92267026D01*
X125465779Y-92200385D01*
X125416092Y-92157407D01*
X125415436Y-92155517D01*
X125416744Y-92154005D01*
X125417790Y-92153932D01*
X125471219Y-92164560D01*
G37*
G36*
X133821219Y-91364560D02*
G01*
X135070821Y-91364560D01*
X135124028Y-91353976D01*
X135125922Y-91354619D01*
X135126312Y-91356581D01*
X135125712Y-91357463D01*
X135077644Y-91398248D01*
X135057443Y-91464494D01*
X135076261Y-91531135D01*
X135125948Y-91574113D01*
X135126604Y-91576003D01*
X135125296Y-91577515D01*
X135124250Y-91577588D01*
X135070821Y-91566960D01*
X133821219Y-91566960D01*
X133768012Y-91577544D01*
X133766118Y-91576901D01*
X133765728Y-91574939D01*
X133766328Y-91574057D01*
X133814396Y-91533272D01*
X133834597Y-91467026D01*
X133815779Y-91400385D01*
X133766092Y-91357407D01*
X133765436Y-91355517D01*
X133766744Y-91354005D01*
X133767790Y-91353932D01*
X133821219Y-91364560D01*
G37*
G36*
X125471219Y-91364560D02*
G01*
X126720821Y-91364560D01*
X126774028Y-91353976D01*
X126775922Y-91354619D01*
X126776312Y-91356581D01*
X126775712Y-91357463D01*
X126727644Y-91398248D01*
X126707443Y-91464494D01*
X126726261Y-91531135D01*
X126775948Y-91574113D01*
X126776604Y-91576003D01*
X126775296Y-91577515D01*
X126774250Y-91577588D01*
X126720821Y-91566960D01*
X125471219Y-91566960D01*
X125418012Y-91577544D01*
X125416118Y-91576901D01*
X125415728Y-91574939D01*
X125416328Y-91574057D01*
X125464396Y-91533272D01*
X125484597Y-91467026D01*
X125465779Y-91400385D01*
X125416092Y-91357407D01*
X125415436Y-91355517D01*
X125416744Y-91354005D01*
X125417790Y-91353932D01*
X125471219Y-91364560D01*
G37*
G36*
X125471219Y-90564560D02*
G01*
X126720821Y-90564560D01*
X126774028Y-90553976D01*
X126775922Y-90554619D01*
X126776312Y-90556581D01*
X126775712Y-90557463D01*
X126727644Y-90598248D01*
X126707443Y-90664494D01*
X126726261Y-90731135D01*
X126775948Y-90774113D01*
X126776604Y-90776003D01*
X126775296Y-90777515D01*
X126774250Y-90777588D01*
X126720821Y-90766960D01*
X125471219Y-90766960D01*
X125418012Y-90777544D01*
X125416118Y-90776901D01*
X125415728Y-90774939D01*
X125416328Y-90774057D01*
X125464396Y-90733272D01*
X125484597Y-90667026D01*
X125465779Y-90600385D01*
X125416092Y-90557407D01*
X125415436Y-90555517D01*
X125416744Y-90554005D01*
X125417790Y-90553932D01*
X125471219Y-90564560D01*
G37*
G36*
X133821219Y-90564560D02*
G01*
X135070821Y-90564560D01*
X135124028Y-90553976D01*
X135125922Y-90554619D01*
X135126312Y-90556581D01*
X135125712Y-90557463D01*
X135077644Y-90598248D01*
X135057443Y-90664494D01*
X135076261Y-90731135D01*
X135125948Y-90774113D01*
X135126604Y-90776003D01*
X135125296Y-90777515D01*
X135124250Y-90777588D01*
X135070821Y-90766960D01*
X133821219Y-90766960D01*
X133768012Y-90777544D01*
X133766118Y-90776901D01*
X133765728Y-90774939D01*
X133766328Y-90774057D01*
X133814396Y-90733272D01*
X133834597Y-90667026D01*
X133815779Y-90600385D01*
X133766092Y-90557407D01*
X133765436Y-90555517D01*
X133766744Y-90554005D01*
X133767790Y-90553932D01*
X133821219Y-90564560D01*
G37*
G36*
X125471219Y-89764560D02*
G01*
X126720821Y-89764560D01*
X126774028Y-89753976D01*
X126775922Y-89754619D01*
X126776312Y-89756581D01*
X126775712Y-89757463D01*
X126727644Y-89798248D01*
X126707443Y-89864494D01*
X126726261Y-89931135D01*
X126775948Y-89974113D01*
X126776604Y-89976003D01*
X126775296Y-89977515D01*
X126774250Y-89977588D01*
X126720821Y-89966960D01*
X125471219Y-89966960D01*
X125418012Y-89977544D01*
X125416118Y-89976901D01*
X125415728Y-89974939D01*
X125416328Y-89974057D01*
X125464396Y-89933272D01*
X125484597Y-89867026D01*
X125465779Y-89800385D01*
X125416092Y-89757407D01*
X125415436Y-89755517D01*
X125416744Y-89754005D01*
X125417790Y-89753932D01*
X125471219Y-89764560D01*
G37*
G36*
X133821219Y-89764560D02*
G01*
X135070821Y-89764560D01*
X135124028Y-89753976D01*
X135125922Y-89754619D01*
X135126312Y-89756581D01*
X135125712Y-89757463D01*
X135077644Y-89798248D01*
X135057443Y-89864494D01*
X135076261Y-89931135D01*
X135125948Y-89974113D01*
X135126604Y-89976003D01*
X135125296Y-89977515D01*
X135124250Y-89977588D01*
X135070821Y-89966960D01*
X133821219Y-89966960D01*
X133768012Y-89977544D01*
X133766118Y-89976901D01*
X133765728Y-89974939D01*
X133766328Y-89974057D01*
X133814396Y-89933272D01*
X133834597Y-89867026D01*
X133815779Y-89800385D01*
X133766092Y-89757407D01*
X133765436Y-89755517D01*
X133766744Y-89754005D01*
X133767790Y-89753932D01*
X133821219Y-89764560D01*
G37*
G36*
X127982775Y-87411484D02*
G01*
X127982848Y-87412530D01*
X127972220Y-87465959D01*
X127972220Y-88715561D01*
X127982804Y-88768768D01*
X127982161Y-88770662D01*
X127980199Y-88771052D01*
X127979317Y-88770452D01*
X127938532Y-88722384D01*
X127872286Y-88702183D01*
X127805645Y-88721001D01*
X127762667Y-88770688D01*
X127760777Y-88771344D01*
X127759265Y-88770036D01*
X127759192Y-88768990D01*
X127769820Y-88715561D01*
X127769820Y-87465959D01*
X127759236Y-87412752D01*
X127759879Y-87410858D01*
X127761841Y-87410468D01*
X127762723Y-87411068D01*
X127803508Y-87459136D01*
X127869754Y-87479337D01*
X127936395Y-87460519D01*
X127979373Y-87410832D01*
X127981263Y-87410176D01*
X127982775Y-87411484D01*
G37*
G36*
X128782775Y-87411484D02*
G01*
X128782848Y-87412530D01*
X128772220Y-87465959D01*
X128772220Y-88715561D01*
X128782804Y-88768768D01*
X128782161Y-88770662D01*
X128780199Y-88771052D01*
X128779317Y-88770452D01*
X128738532Y-88722384D01*
X128672286Y-88702183D01*
X128605645Y-88721001D01*
X128562667Y-88770688D01*
X128560777Y-88771344D01*
X128559265Y-88770036D01*
X128559192Y-88768990D01*
X128569820Y-88715561D01*
X128569820Y-87465959D01*
X128559236Y-87412752D01*
X128559879Y-87410858D01*
X128561841Y-87410468D01*
X128562723Y-87411068D01*
X128603508Y-87459136D01*
X128669754Y-87479337D01*
X128736395Y-87460519D01*
X128779373Y-87410832D01*
X128781263Y-87410176D01*
X128782775Y-87411484D01*
G37*
G36*
X131982775Y-87411484D02*
G01*
X131982848Y-87412530D01*
X131972220Y-87465959D01*
X131972220Y-88715561D01*
X131982804Y-88768768D01*
X131982161Y-88770662D01*
X131980199Y-88771052D01*
X131979317Y-88770452D01*
X131938532Y-88722384D01*
X131872286Y-88702183D01*
X131805645Y-88721001D01*
X131762667Y-88770688D01*
X131760777Y-88771344D01*
X131759265Y-88770036D01*
X131759192Y-88768990D01*
X131769820Y-88715561D01*
X131769820Y-87465959D01*
X131759236Y-87412752D01*
X131759879Y-87410858D01*
X131761841Y-87410468D01*
X131762723Y-87411068D01*
X131803508Y-87459136D01*
X131869754Y-87479337D01*
X131936395Y-87460519D01*
X131979373Y-87410832D01*
X131981263Y-87410176D01*
X131982775Y-87411484D01*
G37*
G36*
X131182775Y-87411484D02*
G01*
X131182848Y-87412530D01*
X131172220Y-87465959D01*
X131172220Y-88715561D01*
X131182804Y-88768768D01*
X131182161Y-88770662D01*
X131180199Y-88771052D01*
X131179317Y-88770452D01*
X131138532Y-88722384D01*
X131072286Y-88702183D01*
X131005645Y-88721001D01*
X130962667Y-88770688D01*
X130960777Y-88771344D01*
X130959265Y-88770036D01*
X130959192Y-88768990D01*
X130969820Y-88715561D01*
X130969820Y-87465959D01*
X130959236Y-87412752D01*
X130959879Y-87410858D01*
X130961841Y-87410468D01*
X130962723Y-87411068D01*
X131003508Y-87459136D01*
X131069754Y-87479337D01*
X131136395Y-87460519D01*
X131179373Y-87410832D01*
X131181263Y-87410176D01*
X131182775Y-87411484D01*
G37*
G36*
X130382775Y-87411484D02*
G01*
X130382848Y-87412530D01*
X130372220Y-87465959D01*
X130372220Y-88715561D01*
X130382804Y-88768768D01*
X130382161Y-88770662D01*
X130380199Y-88771052D01*
X130379317Y-88770452D01*
X130338532Y-88722384D01*
X130272286Y-88702183D01*
X130205645Y-88721001D01*
X130162667Y-88770688D01*
X130160777Y-88771344D01*
X130159265Y-88770036D01*
X130159192Y-88768990D01*
X130169820Y-88715561D01*
X130169820Y-87465959D01*
X130159236Y-87412752D01*
X130159879Y-87410858D01*
X130161841Y-87410468D01*
X130162723Y-87411068D01*
X130203508Y-87459136D01*
X130269754Y-87479337D01*
X130336395Y-87460519D01*
X130379373Y-87410832D01*
X130381263Y-87410176D01*
X130382775Y-87411484D01*
G37*
G36*
X132782775Y-87411484D02*
G01*
X132782848Y-87412530D01*
X132772220Y-87465959D01*
X132772220Y-88715561D01*
X132782804Y-88768768D01*
X132782161Y-88770662D01*
X132780199Y-88771052D01*
X132779317Y-88770452D01*
X132738532Y-88722384D01*
X132672286Y-88702183D01*
X132605645Y-88721001D01*
X132562667Y-88770688D01*
X132560777Y-88771344D01*
X132559265Y-88770036D01*
X132559192Y-88768990D01*
X132569820Y-88715561D01*
X132569820Y-87465959D01*
X132559236Y-87412752D01*
X132559879Y-87410858D01*
X132561841Y-87410468D01*
X132562723Y-87411068D01*
X132603508Y-87459136D01*
X132669754Y-87479337D01*
X132736395Y-87460519D01*
X132779373Y-87410832D01*
X132781263Y-87410176D01*
X132782775Y-87411484D01*
G37*
G36*
X129582775Y-87411484D02*
G01*
X129582848Y-87412530D01*
X129572220Y-87465959D01*
X129572220Y-88715561D01*
X129582804Y-88768768D01*
X129582161Y-88770662D01*
X129580199Y-88771052D01*
X129579317Y-88770452D01*
X129538532Y-88722384D01*
X129472286Y-88702183D01*
X129405645Y-88721001D01*
X129362667Y-88770688D01*
X129360777Y-88771344D01*
X129359265Y-88770036D01*
X129359192Y-88768990D01*
X129369820Y-88715561D01*
X129369820Y-87465959D01*
X129359236Y-87412752D01*
X129359879Y-87410858D01*
X129361841Y-87410468D01*
X129362723Y-87411068D01*
X129403508Y-87459136D01*
X129469754Y-87479337D01*
X129536395Y-87460519D01*
X129579373Y-87410832D01*
X129581263Y-87410176D01*
X129582775Y-87411484D01*
G37*
M02*
