G04 #@! TF.GenerationSoftware,KiCad,Pcbnew,(6.0.8)*
G04 #@! TF.CreationDate,2023-01-17T04:08:54-05:00*
G04 #@! TF.ProjectId,DMG-KGDU-10+,444d472d-4b47-4445-952d-31302b2e6b69,rev?*
G04 #@! TF.SameCoordinates,Original*
G04 #@! TF.FileFunction,Copper,L2,Bot*
G04 #@! TF.FilePolarity,Positive*
%FSLAX46Y46*%
G04 Gerber Fmt 4.6, Leading zero omitted, Abs format (unit mm)*
G04 Created by KiCad (PCBNEW (6.0.8)) date 2023-01-17 04:08:54*
%MOMM*%
%LPD*%
G01*
G04 APERTURE LIST*
%ADD10C,0.150000*%
G04 #@! TA.AperFunction,NonConductor*
%ADD11C,0.150000*%
G04 #@! TD*
G04 #@! TA.AperFunction,ComponentPad*
%ADD12C,0.800000*%
G04 #@! TD*
G04 #@! TA.AperFunction,SMDPad,CuDef*
%ADD13O,2.000000X4.000000*%
G04 #@! TD*
G04 #@! TA.AperFunction,ViaPad*
%ADD14C,2.050000*%
G04 #@! TD*
G04 #@! TA.AperFunction,ViaPad*
%ADD15C,0.800000*%
G04 #@! TD*
G04 #@! TA.AperFunction,Conductor*
%ADD16C,0.200000*%
G04 #@! TD*
G04 #@! TA.AperFunction,Conductor*
%ADD17C,1.500000*%
G04 #@! TD*
G04 APERTURE END LIST*
D10*
D11*
X121543696Y-101628573D02*
X121139635Y-102032634D01*
X122048772Y-102537710D02*
X121341665Y-101830603D01*
X121611039Y-102975443D02*
X120903932Y-102268336D01*
X120634558Y-102537710D01*
X120600887Y-102638725D01*
X120600887Y-102706069D01*
X120634558Y-102807084D01*
X120735574Y-102908099D01*
X120836589Y-102941771D01*
X120903932Y-102941771D01*
X121004948Y-102908100D01*
X121274322Y-102638725D01*
X120264169Y-102908100D02*
X119826436Y-103345832D01*
X120331513Y-103379504D01*
X120230497Y-103480519D01*
X120196826Y-103581535D01*
X120196826Y-103648878D01*
X120230497Y-103749893D01*
X120398856Y-103918252D01*
X120499871Y-103951924D01*
X120567215Y-103951924D01*
X120668230Y-103918252D01*
X120870261Y-103716222D01*
X120903932Y-103615206D01*
X120903932Y-103547863D01*
D10*
D11*
X122361576Y-96096453D02*
X121957515Y-96500514D01*
X122866652Y-97005590D02*
X122159545Y-96298483D01*
X122428919Y-97443323D02*
X121721812Y-96736216D01*
X121452438Y-97005590D01*
X121418767Y-97106605D01*
X121418767Y-97173949D01*
X121452438Y-97274964D01*
X121553454Y-97375979D01*
X121654469Y-97409651D01*
X121721812Y-97409651D01*
X121822828Y-97375980D01*
X122092202Y-97106605D01*
X121115721Y-97476995D02*
X121048377Y-97476995D01*
X120947362Y-97510667D01*
X120779003Y-97679025D01*
X120745332Y-97780041D01*
X120745332Y-97847384D01*
X120779003Y-97948399D01*
X120846347Y-98015743D01*
X120981034Y-98083086D01*
X121789156Y-98083086D01*
X121351423Y-98520819D01*
D10*
D11*
X122160916Y-90317953D02*
X121756855Y-90722014D01*
X122665992Y-91227090D02*
X121958885Y-90519983D01*
X122228259Y-91664823D02*
X121521152Y-90957716D01*
X121251778Y-91227090D01*
X121218107Y-91328105D01*
X121218107Y-91395449D01*
X121251778Y-91496464D01*
X121352794Y-91597479D01*
X121453809Y-91631151D01*
X121521152Y-91631151D01*
X121622168Y-91597480D01*
X121891542Y-91328105D01*
X121150763Y-92742319D02*
X121554824Y-92338258D01*
X121352794Y-92540289D02*
X120645687Y-91833182D01*
X120814046Y-91866854D01*
X120948733Y-91866854D01*
X121049748Y-91833182D01*
D10*
D11*
X121759596Y-107435013D02*
X121355535Y-107839074D01*
X122264672Y-108344150D02*
X121557565Y-107637043D01*
X121826939Y-108781883D02*
X121119832Y-108074776D01*
X120850458Y-108344150D01*
X120816787Y-108445165D01*
X120816787Y-108512509D01*
X120850458Y-108613524D01*
X120951474Y-108714539D01*
X121052489Y-108748211D01*
X121119832Y-108748211D01*
X121220848Y-108714540D01*
X121490222Y-108445165D01*
X120345382Y-109320631D02*
X120816787Y-109792036D01*
X120244367Y-108882898D02*
X120917802Y-109219616D01*
X120480069Y-109657349D01*
G36*
X137570000Y-130152000D02*
G01*
X137170000Y-130152000D01*
X137170000Y-122702000D01*
X137570000Y-122702000D01*
X137570000Y-130152000D01*
G37*
G36*
X139070000Y-130152000D02*
G01*
X138670000Y-130152000D01*
X138670000Y-122702000D01*
X139070000Y-122702000D01*
X139070000Y-130152000D01*
G37*
G36*
X143570000Y-130152000D02*
G01*
X143170000Y-130152000D01*
X143170000Y-122702000D01*
X143570000Y-122702000D01*
X143570000Y-130152000D01*
G37*
G36*
X161570000Y-130152000D02*
G01*
X161170000Y-130152000D01*
X161170000Y-122702000D01*
X161570000Y-122702000D01*
X161570000Y-130152000D01*
G37*
G36*
X166320000Y-130152000D02*
G01*
X165920000Y-130152000D01*
X165920000Y-122702000D01*
X166320000Y-122702000D01*
X166320000Y-130152000D01*
G37*
G36*
X149570000Y-130152000D02*
G01*
X149170000Y-130152000D01*
X149170000Y-122702000D01*
X149570000Y-122702000D01*
X149570000Y-130152000D01*
G37*
G36*
X145070000Y-130152000D02*
G01*
X144670000Y-130152000D01*
X144670000Y-122702000D01*
X145070000Y-122702000D01*
X145070000Y-130152000D01*
G37*
G36*
X157070000Y-130152000D02*
G01*
X156670000Y-130152000D01*
X156670000Y-122702000D01*
X157070000Y-122702000D01*
X157070000Y-130152000D01*
G37*
G36*
X155570000Y-130152000D02*
G01*
X155170000Y-130152000D01*
X155170000Y-122702000D01*
X155570000Y-122702000D01*
X155570000Y-130152000D01*
G37*
G36*
X128570000Y-130152000D02*
G01*
X128170000Y-130152000D01*
X128170000Y-122702000D01*
X128570000Y-122702000D01*
X128570000Y-130152000D01*
G37*
G36*
X121070000Y-130152000D02*
G01*
X120670000Y-130152000D01*
X120670000Y-122702000D01*
X121070000Y-122702000D01*
X121070000Y-130152000D01*
G37*
G36*
X151070000Y-130152000D02*
G01*
X150670000Y-130152000D01*
X150670000Y-122702000D01*
X151070000Y-122702000D01*
X151070000Y-130152000D01*
G37*
G36*
X164570000Y-130152000D02*
G01*
X164170000Y-130152000D01*
X164170000Y-122702000D01*
X164570000Y-122702000D01*
X164570000Y-130152000D01*
G37*
G36*
X124070000Y-130152000D02*
G01*
X123670000Y-130152000D01*
X123670000Y-122702000D01*
X124070000Y-122702000D01*
X124070000Y-130152000D01*
G37*
G36*
X125570000Y-130152000D02*
G01*
X125170000Y-130152000D01*
X125170000Y-122702000D01*
X125570000Y-122702000D01*
X125570000Y-130152000D01*
G37*
G36*
X146570000Y-130152000D02*
G01*
X146170000Y-130152000D01*
X146170000Y-122702000D01*
X146570000Y-122702000D01*
X146570000Y-130152000D01*
G37*
G36*
X152570000Y-130152000D02*
G01*
X152170000Y-130152000D01*
X152170000Y-122702000D01*
X152570000Y-122702000D01*
X152570000Y-130152000D01*
G37*
G36*
X136070000Y-130152000D02*
G01*
X135670000Y-130152000D01*
X135670000Y-122702000D01*
X136070000Y-122702000D01*
X136070000Y-130152000D01*
G37*
G36*
X160070000Y-130152000D02*
G01*
X159670000Y-130152000D01*
X159670000Y-122702000D01*
X160070000Y-122702000D01*
X160070000Y-130152000D01*
G37*
G36*
X131570000Y-130152000D02*
G01*
X131170000Y-130152000D01*
X131170000Y-122702000D01*
X131570000Y-122702000D01*
X131570000Y-130152000D01*
G37*
G36*
X127070000Y-130152000D02*
G01*
X126670000Y-130152000D01*
X126670000Y-122702000D01*
X127070000Y-122702000D01*
X127070000Y-130152000D01*
G37*
G36*
X130070000Y-130152000D02*
G01*
X129670000Y-130152000D01*
X129670000Y-122702000D01*
X130070000Y-122702000D01*
X130070000Y-130152000D01*
G37*
G36*
X154070000Y-130152000D02*
G01*
X153670000Y-130152000D01*
X153670000Y-122702000D01*
X154070000Y-122702000D01*
X154070000Y-130152000D01*
G37*
G36*
X133070000Y-130152000D02*
G01*
X132670000Y-130152000D01*
X132670000Y-122702000D01*
X133070000Y-122702000D01*
X133070000Y-130152000D01*
G37*
G36*
X122570000Y-130152000D02*
G01*
X122170000Y-130152000D01*
X122170000Y-122702000D01*
X122570000Y-122702000D01*
X122570000Y-130152000D01*
G37*
G36*
X140570000Y-130152000D02*
G01*
X140170000Y-130152000D01*
X140170000Y-122702000D01*
X140570000Y-122702000D01*
X140570000Y-130152000D01*
G37*
G36*
X158570000Y-130152000D02*
G01*
X158170000Y-130152000D01*
X158170000Y-122702000D01*
X158570000Y-122702000D01*
X158570000Y-130152000D01*
G37*
G36*
X134570000Y-130152000D02*
G01*
X134170000Y-130152000D01*
X134170000Y-122702000D01*
X134570000Y-122702000D01*
X134570000Y-130152000D01*
G37*
G36*
X163070000Y-130152000D02*
G01*
X162670000Y-130152000D01*
X162670000Y-122702000D01*
X163070000Y-122702000D01*
X163070000Y-130152000D01*
G37*
G36*
X148070000Y-130152000D02*
G01*
X147670000Y-130152000D01*
X147670000Y-122702000D01*
X148070000Y-122702000D01*
X148070000Y-130152000D01*
G37*
G36*
X119320000Y-130152000D02*
G01*
X118920000Y-130152000D01*
X118920000Y-122702000D01*
X119320000Y-122702000D01*
X119320000Y-130152000D01*
G37*
G36*
X142070000Y-130152000D02*
G01*
X141670000Y-130152000D01*
X141670000Y-122702000D01*
X142070000Y-122702000D01*
X142070000Y-130152000D01*
G37*
D12*
X119120000Y-122402000D03*
X120870000Y-122402000D03*
X122370000Y-122402000D03*
X123870000Y-122402000D03*
X125370000Y-122402000D03*
X126870000Y-122402000D03*
X128370000Y-122402000D03*
X129870000Y-122402000D03*
X131370000Y-122402000D03*
X132870000Y-122402000D03*
X134370000Y-122402000D03*
X135870000Y-122402000D03*
X137370000Y-122402000D03*
X138870000Y-122402000D03*
X140370000Y-122402000D03*
X141870000Y-122402000D03*
X143370000Y-122402000D03*
X144870000Y-122402000D03*
X146370000Y-122402000D03*
X147870000Y-122402000D03*
X149370000Y-122402000D03*
X150870000Y-122402000D03*
X152370000Y-122402000D03*
X153870000Y-122402000D03*
X155370000Y-122402000D03*
X156870000Y-122402000D03*
X158370000Y-122402000D03*
X159870000Y-122402000D03*
X161370000Y-122402000D03*
X162870000Y-122402000D03*
X164370000Y-122402000D03*
X166120000Y-122402000D03*
D13*
X119319000Y-93802000D03*
X119319000Y-99802000D03*
X119319000Y-105802000D03*
X119319000Y-111802000D03*
D14*
X165620000Y-120002000D03*
D15*
X138750000Y-95925000D03*
X153075000Y-105325000D03*
X129067560Y-78404720D03*
X159450000Y-114675000D03*
X130799840Y-80952340D03*
X156575000Y-108575000D03*
X122180000Y-113150000D03*
X120825000Y-96300000D03*
X166116000Y-88226900D03*
X166014400Y-76492100D03*
X164500560Y-100667820D03*
X118143020Y-78996540D03*
X123725000Y-96575000D03*
X137741660Y-70446900D03*
X125130560Y-84127340D03*
X120317260Y-86794340D03*
X122930000Y-110850000D03*
X127950990Y-76978660D03*
X140630000Y-97020000D03*
X122135900Y-81775300D03*
X120167400Y-91013280D03*
X128287780Y-79517240D03*
X126857100Y-86035540D03*
X128614800Y-103017000D03*
X152125000Y-103275000D03*
X141750500Y-94665734D03*
X138547500Y-104386500D03*
X151025000Y-100700000D03*
X144200000Y-92800000D03*
X139674700Y-105806100D03*
X130113635Y-108530605D03*
X138000100Y-105328500D03*
X146125000Y-101550000D03*
X142625000Y-92825000D03*
X150800000Y-102425000D03*
X143475000Y-94125000D03*
X128736090Y-108482130D03*
X138674300Y-106069100D03*
X146070700Y-119560300D03*
X150850000Y-104825000D03*
X147600000Y-104750000D03*
X147785300Y-117100000D03*
X146825000Y-118125000D03*
X147693800Y-114923000D03*
X158575000Y-107375000D03*
X146825125Y-103899500D03*
X151575000Y-111075000D03*
X131121900Y-101378200D03*
X131267300Y-100174500D03*
X152425000Y-112375000D03*
X124771100Y-112973600D03*
X132639100Y-97892000D03*
X153925000Y-115850000D03*
X123896400Y-111660000D03*
X154725000Y-117250000D03*
X133720852Y-97846504D03*
X159674500Y-113000000D03*
X156325000Y-112850000D03*
X134590321Y-96851708D03*
X156675000Y-111275000D03*
X135293935Y-97562306D03*
X159700000Y-111525000D03*
X159600000Y-110150000D03*
X136072970Y-96935306D03*
X157300000Y-109775000D03*
X137072788Y-96915588D03*
X124894300Y-105306000D03*
X134310100Y-104533700D03*
X157070000Y-99420000D03*
X150000000Y-95500000D03*
X130528600Y-97869500D03*
X153025000Y-106925000D03*
X137918100Y-109305800D03*
X129580200Y-104762072D03*
X156790000Y-98140000D03*
X149025000Y-94500000D03*
X141075000Y-106700000D03*
X145900000Y-94500000D03*
X151125000Y-99200000D03*
X136545320Y-91848940D03*
X127838100Y-92002600D03*
X129471800Y-99246100D03*
X134332573Y-101067317D03*
X158875000Y-101850000D03*
X158225000Y-95325000D03*
X128951800Y-101881100D03*
X129275900Y-100732500D03*
X144369900Y-108102700D03*
X147850000Y-100625000D03*
X153375000Y-102800000D03*
X135400000Y-83800000D03*
X134000000Y-84600000D03*
X129451100Y-90756740D03*
X156925000Y-94125000D03*
X158825000Y-103325000D03*
X156725000Y-106050000D03*
X158200000Y-93950000D03*
X137450000Y-90775000D03*
X147025000Y-97625000D03*
X140800000Y-91350000D03*
X132450000Y-90925000D03*
X154175000Y-95150000D03*
X131250000Y-90050000D03*
X127534900Y-93261500D03*
X155025000Y-97150000D03*
X127482100Y-94275400D03*
X154300000Y-99725000D03*
X155775000Y-104575000D03*
X156350000Y-103050000D03*
X126189400Y-95944900D03*
X141185204Y-78614190D03*
X135400000Y-79700000D03*
D16*
X159450000Y-114675000D02*
X160825000Y-113300000D01*
X122180000Y-113150000D02*
X122180000Y-112393560D01*
X135265456Y-95359439D02*
X135257701Y-95351684D01*
X129067560Y-78404720D02*
X130799840Y-80137000D01*
X133922941Y-95351684D02*
X133840225Y-95434400D01*
X135257701Y-95351684D02*
X133922941Y-95351684D01*
X119319000Y-109235670D02*
X119319000Y-111802000D01*
X130799840Y-80137000D02*
X130799840Y-80952340D01*
X121921900Y-103550000D02*
X121875000Y-103550000D01*
X122180000Y-112393560D02*
X121588440Y-111802000D01*
X122921453Y-95771453D02*
X121353547Y-95771453D01*
X123725000Y-96575000D02*
X122921453Y-95771453D01*
X121353547Y-95771453D02*
X120825000Y-96300000D01*
X121875000Y-103550000D02*
X121485800Y-103939200D01*
X156325000Y-108575000D02*
X156575000Y-108575000D01*
X153075000Y-105325000D02*
X156325000Y-108575000D01*
X160825000Y-113300000D02*
X160825000Y-109525000D01*
X138184439Y-95359439D02*
X135265456Y-95359439D01*
X121485800Y-103939200D02*
X121485800Y-107068870D01*
X130037500Y-95434400D02*
X121921900Y-103550000D01*
D17*
X166120000Y-122402000D02*
X166120000Y-120502000D01*
D16*
X138750000Y-95925000D02*
X138184439Y-95359439D01*
X166120000Y-120502000D02*
X165620000Y-120002000D01*
X159875000Y-108575000D02*
X156575000Y-108575000D01*
X121588440Y-111802000D02*
X119319000Y-111802000D01*
X133840225Y-95434400D02*
X130037500Y-95434400D01*
X160825000Y-109525000D02*
X159875000Y-108575000D01*
X121485800Y-107068870D02*
X119319000Y-109235670D01*
X135099767Y-95759450D02*
X137473150Y-95759450D01*
X122841401Y-115496959D02*
X119120000Y-119218360D01*
X138842500Y-97128800D02*
X140521200Y-97128800D01*
X119120000Y-119218360D02*
X119120000Y-122402000D01*
X127950990Y-78618749D02*
X127950990Y-76978660D01*
X134088630Y-95751695D02*
X135092012Y-95751695D01*
X122930000Y-110850000D02*
X122930000Y-108549858D01*
X122135900Y-81775300D02*
X124794439Y-81775300D01*
X122576901Y-104562799D02*
X131305000Y-95834700D01*
X124794439Y-81775300D02*
X127950990Y-78618749D01*
X122576901Y-108196759D02*
X122576901Y-104562799D01*
X122841401Y-110938599D02*
X122841401Y-115496959D01*
X140630000Y-97020000D02*
X140512946Y-97137054D01*
X140521200Y-97128800D02*
X140630000Y-97020000D01*
X134005625Y-95834700D02*
X134088630Y-95751695D01*
X140512946Y-97137054D02*
X140313446Y-97137054D01*
X135092012Y-95751695D02*
X135099767Y-95759450D01*
X131305000Y-95834700D02*
X134005625Y-95834700D01*
X122930000Y-110850000D02*
X122841401Y-110938599D01*
X137473150Y-95759450D02*
X138842500Y-97128800D01*
X122930000Y-108549858D02*
X122576901Y-108196759D01*
X119319000Y-93802000D02*
X119319000Y-91861680D01*
X126857100Y-80947920D02*
X126857100Y-86035540D01*
X119319000Y-91861680D02*
X120167400Y-91013280D01*
X128287780Y-79517240D02*
X126857100Y-80947920D01*
X145036200Y-122402000D02*
X145792200Y-121646000D01*
X139111100Y-103686000D02*
X130038600Y-103686000D01*
X149850200Y-112100000D02*
X147890078Y-112100000D01*
X145792200Y-121646000D02*
X146673700Y-121646000D01*
X144870000Y-122402000D02*
X145036200Y-122402000D01*
X130038600Y-103686000D02*
X129369600Y-103017000D01*
X129369600Y-103017000D02*
X128614800Y-103017000D01*
X144993378Y-109203300D02*
X143914100Y-109203300D01*
X149850200Y-118469500D02*
X149850200Y-112100000D01*
X147890078Y-112100000D02*
X144993378Y-109203300D01*
X143914100Y-109203300D02*
X142799100Y-108088300D01*
X142799100Y-108088300D02*
X142799100Y-107374000D01*
X142799100Y-107374000D02*
X139111100Y-103686000D01*
X146673700Y-121646000D02*
X149850200Y-118469500D01*
X137370000Y-122402000D02*
X138643100Y-121128900D01*
X140325000Y-107325000D02*
X140325000Y-105466000D01*
X138643100Y-121128900D02*
X145177100Y-121128900D01*
X144804030Y-110003900D02*
X143603900Y-110003900D01*
X139245500Y-104386500D02*
X138547500Y-104386500D01*
X146342100Y-120845400D02*
X148880400Y-118307100D01*
X148880400Y-118307100D02*
X148880400Y-112800000D01*
X140325000Y-105466000D02*
X139245500Y-104386500D01*
X145177100Y-121128900D02*
X145460600Y-120845400D01*
X149925000Y-103275000D02*
X149550000Y-102900000D01*
X145460600Y-120845400D02*
X146342100Y-120845400D01*
X141750500Y-98350500D02*
X141750500Y-94665734D01*
X149550000Y-102900000D02*
X146300000Y-102900000D01*
X143603900Y-110003900D02*
X140950000Y-107350000D01*
X148880400Y-112800000D02*
X147600130Y-112800000D01*
X147600130Y-112800000D02*
X144804030Y-110003900D01*
X146300000Y-102900000D02*
X141750500Y-98350500D01*
X152125000Y-103275000D02*
X149925000Y-103275000D01*
X140350000Y-107350000D02*
X140325000Y-107325000D01*
X140950000Y-107350000D02*
X140350000Y-107350000D01*
X144200000Y-92800000D02*
X144750000Y-93350000D01*
X147455156Y-113150000D02*
X144709356Y-110404200D01*
X146360800Y-120260600D02*
X148434800Y-118186600D01*
X144709356Y-110404200D02*
X143304200Y-110404200D01*
X140900000Y-108000000D02*
X139700000Y-108000000D01*
X145479300Y-120260600D02*
X146360800Y-120260600D01*
X137743600Y-120528400D02*
X145211500Y-120528400D01*
X135870000Y-122402000D02*
X137743600Y-120528400D01*
X139674700Y-107974700D02*
X139674700Y-105806100D01*
X148434800Y-113150000D02*
X147455156Y-113150000D01*
X144750000Y-93350000D02*
X144750000Y-97525000D01*
X146975000Y-99750000D02*
X150075000Y-99750000D01*
X145211500Y-120528400D02*
X145479300Y-120260600D01*
X148434800Y-118186600D02*
X148434800Y-113150000D01*
X144750000Y-97525000D02*
X146975000Y-99750000D01*
X139700000Y-108000000D02*
X139674700Y-107974700D01*
X143304200Y-110404200D02*
X140900000Y-108000000D01*
X150075000Y-99750000D02*
X151025000Y-100700000D01*
X142625000Y-92825000D02*
X142575000Y-92875000D01*
X142575000Y-92875000D02*
X142575000Y-97725000D01*
X134797995Y-108530605D02*
X135287100Y-108041500D01*
X146125000Y-101275000D02*
X146125000Y-101550000D01*
X135287100Y-108041500D02*
X138000100Y-105328500D01*
X130113635Y-108530605D02*
X134797995Y-108530605D01*
X142575000Y-97725000D02*
X146125000Y-101275000D01*
X135973700Y-108769700D02*
X138674300Y-106069100D01*
X148025000Y-102300000D02*
X150675000Y-102300000D01*
X128736090Y-108482130D02*
X130065780Y-109811820D01*
X143475000Y-94125000D02*
X144025000Y-94675000D01*
X144025000Y-98300000D02*
X148025000Y-102300000D01*
X134931580Y-109811820D02*
X135973700Y-108769700D01*
X144025000Y-94675000D02*
X144025000Y-98300000D01*
X130065780Y-109811820D02*
X134931580Y-109811820D01*
X150675000Y-102300000D02*
X150800000Y-102425000D01*
X133644000Y-120128000D02*
X144987100Y-120128000D01*
X145554800Y-119560300D02*
X146070700Y-119560300D01*
X144987100Y-120128000D02*
X145554800Y-119560300D01*
X131370000Y-122402000D02*
X133644000Y-120128000D01*
X147785300Y-117100000D02*
X147785300Y-118289700D01*
X147675000Y-104825000D02*
X150850000Y-104825000D01*
X145294100Y-118859900D02*
X144426400Y-119727600D01*
X147600000Y-104750000D02*
X147675000Y-104825000D01*
X132544400Y-119727600D02*
X129870000Y-122402000D01*
X144426400Y-119727600D02*
X132544400Y-119727600D01*
X147785300Y-118289700D02*
X147215100Y-118859900D01*
X147215100Y-118859900D02*
X145294100Y-118859900D01*
X145462700Y-118125000D02*
X144343700Y-119244000D01*
X131528000Y-119244000D02*
X128370000Y-122402000D01*
X146825000Y-118125000D02*
X145462700Y-118125000D01*
X144343700Y-119244000D02*
X131528000Y-119244000D01*
X126870000Y-122402000D02*
X130794900Y-118477100D01*
X158575000Y-107375000D02*
X158377000Y-107375000D01*
X147693800Y-115406200D02*
X147693800Y-114923000D01*
X147000625Y-104075000D02*
X146825125Y-103899500D01*
X153250000Y-104075000D02*
X147000625Y-104075000D01*
X145317726Y-117775000D02*
X145325000Y-117775000D01*
X158125000Y-107375000D02*
X158575000Y-107375000D01*
X145325000Y-117775000D02*
X147693800Y-115406200D01*
X130794900Y-118477100D02*
X144615626Y-118477100D01*
X158575000Y-107375000D02*
X156550000Y-107375000D01*
X144615626Y-118477100D02*
X145317726Y-117775000D01*
X156550000Y-107375000D02*
X153250000Y-104075000D01*
X131911030Y-102167330D02*
X131121900Y-101378200D01*
X151475000Y-111175000D02*
X151475000Y-121797000D01*
X134882294Y-102119300D02*
X134834264Y-102167330D01*
X139394300Y-102119300D02*
X134882294Y-102119300D01*
X151450000Y-110950000D02*
X148225000Y-110950000D01*
X151575000Y-111075000D02*
X151450000Y-110950000D01*
X151475000Y-121797000D02*
X150870000Y-122402000D01*
X148225000Y-110950000D02*
X139394300Y-102119300D01*
X134834264Y-102167330D02*
X131911030Y-102167330D01*
X151575000Y-111075000D02*
X151475000Y-111175000D01*
X124946400Y-112798300D02*
X124946400Y-106411700D01*
X152370000Y-112430000D02*
X152370000Y-122402000D01*
X152425000Y-112375000D02*
X152400000Y-112350000D01*
X124175300Y-105640600D02*
X124175300Y-104825600D01*
X124175300Y-104825600D02*
X128968800Y-100032100D01*
X124771100Y-112973600D02*
X124946400Y-112798300D01*
X148075000Y-110250000D02*
X139486200Y-101661200D01*
X134774694Y-101661200D02*
X134668575Y-101767319D01*
X151825000Y-110250000D02*
X148075000Y-110250000D01*
X128968800Y-100032100D02*
X131124900Y-100032100D01*
X152425000Y-112375000D02*
X152370000Y-112430000D01*
X152400000Y-112350000D02*
X152400000Y-110825000D01*
X152400000Y-110825000D02*
X151825000Y-110250000D01*
X124946400Y-106411700D02*
X124175300Y-105640600D01*
X139486200Y-101661200D02*
X134774694Y-101661200D01*
X134668575Y-101767319D02*
X132860119Y-101767319D01*
X131124900Y-100032100D02*
X131267300Y-100174500D01*
X132860119Y-101767319D02*
X131267300Y-100174500D01*
X123838100Y-106635600D02*
X123374700Y-106172200D01*
X147944974Y-109625000D02*
X139438474Y-101118500D01*
X132337600Y-98569800D02*
X132639100Y-98268300D01*
X129213900Y-98494400D02*
X130163200Y-98494400D01*
X123896400Y-111660000D02*
X123838100Y-111601700D01*
X123838100Y-111601700D02*
X123838100Y-106635600D01*
X123374700Y-104333600D02*
X129213900Y-98494400D01*
X153925000Y-115850000D02*
X153869900Y-115905100D01*
X123374700Y-106172200D02*
X123374700Y-104333600D01*
X153925000Y-115850000D02*
X153175000Y-115100000D01*
X130163200Y-98494400D02*
X130238600Y-98569800D01*
X132639100Y-98268300D02*
X132639100Y-97892000D01*
X153175000Y-110650000D02*
X152150000Y-109625000D01*
X153869900Y-115905100D02*
X153869900Y-122402000D01*
X130238600Y-98569800D02*
X132337600Y-98569800D01*
X139438474Y-101118500D02*
X135489300Y-101118500D01*
X153175000Y-115100000D02*
X153175000Y-110650000D01*
X135489300Y-101118500D02*
X132639100Y-98268300D01*
X152150000Y-109625000D02*
X147944974Y-109625000D01*
X153869900Y-122402000D02*
X153870000Y-122402000D01*
X154725000Y-117250000D02*
X154725000Y-114775000D01*
X152350000Y-109125000D02*
X147939948Y-109125000D01*
X139533048Y-100718100D02*
X136592448Y-100718100D01*
X136592448Y-100718100D02*
X133720852Y-97846504D01*
X154725000Y-114775000D02*
X153675000Y-113725000D01*
X153675000Y-113725000D02*
X153675000Y-110450000D01*
X154725000Y-117250000D02*
X154825000Y-117350000D01*
X154825000Y-121857000D02*
X155370000Y-122402000D01*
X153675000Y-110450000D02*
X152350000Y-109125000D01*
X147939948Y-109125000D02*
X139533048Y-100718100D01*
X154825000Y-117350000D02*
X154825000Y-121857000D01*
X138896422Y-99586500D02*
X136301632Y-99586500D01*
X156870000Y-122402000D02*
X156870000Y-116274161D01*
X156325000Y-112850000D02*
X156575000Y-113100000D01*
X154150000Y-110200000D02*
X152725000Y-108775000D01*
X152725000Y-108775000D02*
X148084922Y-108775000D01*
X156870000Y-116274161D02*
X154150000Y-113554161D01*
X156575000Y-113100000D02*
X159574500Y-113100000D01*
X148084922Y-108775000D02*
X138896422Y-99586500D01*
X154150000Y-113554161D02*
X154150000Y-110200000D01*
X136301632Y-99586500D02*
X134590321Y-97875189D01*
X159574500Y-113100000D02*
X159674500Y-113000000D01*
X134590321Y-97875189D02*
X134590321Y-96851708D01*
X156925000Y-111525000D02*
X159700000Y-111525000D01*
X156675000Y-111275000D02*
X156925000Y-111525000D01*
X148229896Y-108425000D02*
X138991096Y-99186200D01*
X158370000Y-122402000D02*
X158370000Y-117195000D01*
X153125000Y-108425000D02*
X148229896Y-108425000D01*
X154600000Y-109900000D02*
X153125000Y-108425000D01*
X138991096Y-99186200D02*
X136917829Y-99186200D01*
X136917829Y-99186200D02*
X135293935Y-97562306D01*
X154600000Y-113425000D02*
X154600000Y-109900000D01*
X158370000Y-117195000D02*
X154600000Y-113425000D01*
X155100000Y-109750000D02*
X153425000Y-108075000D01*
X138685470Y-98385600D02*
X137523264Y-98385600D01*
X155100000Y-113375000D02*
X155100000Y-109750000D01*
X137523264Y-98385600D02*
X136072970Y-96935306D01*
X153425000Y-108075000D02*
X148374870Y-108075000D01*
X148374870Y-108075000D02*
X138685470Y-98385600D01*
X159870000Y-118145000D02*
X155100000Y-113375000D01*
X159600000Y-110150000D02*
X157675000Y-110150000D01*
X157675000Y-110150000D02*
X157300000Y-109775000D01*
X159870000Y-122402000D02*
X159870000Y-118145000D01*
X161370000Y-118920000D02*
X155575000Y-113125000D01*
X155575000Y-109450000D02*
X153850000Y-107725000D01*
X138142500Y-97985300D02*
X137072788Y-96915588D01*
X153850000Y-107725000D02*
X148519844Y-107725000D01*
X148519844Y-107725000D02*
X138780144Y-97985300D01*
X138780144Y-97985300D02*
X138142500Y-97985300D01*
X155575000Y-113125000D02*
X155575000Y-109450000D01*
X161370000Y-122402000D02*
X161370000Y-118920000D01*
X129872911Y-104086010D02*
X129655121Y-103868220D01*
X126116200Y-104084100D02*
X124894300Y-105306000D01*
X133862410Y-104086010D02*
X129872911Y-104086010D01*
X126332080Y-103868220D02*
X126116200Y-104084100D01*
X134310100Y-104533700D02*
X133862410Y-104086010D01*
X129655121Y-103868220D02*
X126332080Y-103868220D01*
X157070000Y-99420000D02*
X155145000Y-99420000D01*
X153025000Y-97300000D02*
X151800000Y-97300000D01*
X155145000Y-99420000D02*
X153025000Y-97300000D01*
X151800000Y-97300000D02*
X150000000Y-95500000D01*
X132163100Y-96235000D02*
X130528600Y-97869500D01*
X129193964Y-105170936D02*
X129098860Y-105266040D01*
X137918100Y-109305800D02*
X137753900Y-109470000D01*
X129193964Y-105148308D02*
X129580200Y-104762072D01*
X134171025Y-96235000D02*
X132163100Y-96235000D01*
X127955200Y-109470000D02*
X127955200Y-118316800D01*
X129193964Y-105170936D02*
X129193964Y-105148308D01*
X128810100Y-110324900D02*
X127955200Y-109470000D01*
X152200000Y-106100000D02*
X147389818Y-106100000D01*
X136899000Y-110324900D02*
X128810100Y-110324900D01*
X153025000Y-106925000D02*
X152200000Y-106100000D01*
X127735500Y-106629400D02*
X129098860Y-105266040D01*
X137918100Y-109305800D02*
X136899000Y-110324900D01*
X138626400Y-97478800D02*
X137307061Y-96159461D01*
X127735500Y-109250300D02*
X127735500Y-106629400D01*
X134934078Y-96159461D02*
X134926323Y-96151706D01*
X134926323Y-96151706D02*
X134254319Y-96151706D01*
X147389818Y-106100000D02*
X138768618Y-97478800D01*
X137307061Y-96159461D02*
X134934078Y-96159461D01*
X134254319Y-96151706D02*
X134171025Y-96235000D01*
X138768618Y-97478800D02*
X138626400Y-97478800D01*
X127955200Y-109470000D02*
X127735500Y-109250300D01*
X127955200Y-118316800D02*
X123870000Y-122402000D01*
X149358000Y-112450000D02*
X149358000Y-118395600D01*
X141075000Y-106930300D02*
X143748300Y-109603600D01*
X145342900Y-121529200D02*
X141242800Y-121529200D01*
X144898704Y-109603600D02*
X147745104Y-112450000D01*
X154825000Y-98150000D02*
X151175000Y-94500000D01*
X141242800Y-121529200D02*
X140370000Y-122402000D01*
X156790000Y-98140000D02*
X156780000Y-98150000D01*
X149358000Y-118395600D02*
X146507900Y-121245700D01*
X143748300Y-109603600D02*
X144898704Y-109603600D01*
X141075000Y-106700000D02*
X141075000Y-106930300D01*
X151175000Y-94500000D02*
X149025000Y-94500000D01*
X156780000Y-98150000D02*
X154825000Y-98150000D01*
X147745104Y-112450000D02*
X149358000Y-112450000D01*
X145626400Y-121245700D02*
X145342900Y-121529200D01*
X146507900Y-121245700D02*
X145626400Y-121245700D01*
X147425000Y-99200000D02*
X151125000Y-99200000D01*
X145425000Y-94975000D02*
X145425000Y-97200000D01*
X145425000Y-97200000D02*
X147425000Y-99200000D01*
X145900000Y-94500000D02*
X145425000Y-94975000D01*
X127991760Y-91848940D02*
X127838100Y-92002600D01*
X136545320Y-91848940D02*
X127991760Y-91848940D01*
X129188700Y-99246100D02*
X123775000Y-104659800D01*
X129471800Y-99246100D02*
X132511356Y-99246100D01*
X129471800Y-99246100D02*
X129188700Y-99246100D01*
X123775000Y-104659800D02*
X123775000Y-106006300D01*
X124545900Y-106777200D02*
X124545900Y-112208500D01*
X124070800Y-120701200D02*
X122370000Y-122402000D01*
X132511356Y-99246100D02*
X134332573Y-101067317D01*
X124545900Y-112208500D02*
X124070800Y-112683600D01*
X123775000Y-106006300D02*
X124545900Y-106777200D01*
X124070800Y-112683600D02*
X124070800Y-120701200D01*
X158860000Y-101835000D02*
X158875000Y-101850000D01*
X158860000Y-95960000D02*
X158860000Y-101835000D01*
X158225000Y-95325000D02*
X158860000Y-95960000D01*
X143669600Y-107678400D02*
X139276800Y-103285600D01*
X148035052Y-111750000D02*
X145088052Y-108803000D01*
X150288300Y-119983700D02*
X150288300Y-111750000D01*
X144079900Y-108803000D02*
X143669600Y-108392700D01*
X147870000Y-122402000D02*
X150288300Y-119983700D01*
X150288300Y-111750000D02*
X148035052Y-111750000D01*
X139276800Y-103285600D02*
X130356300Y-103285600D01*
X143669600Y-108392700D02*
X143669600Y-107678400D01*
X130356300Y-103285600D02*
X128951800Y-101881100D01*
X145088052Y-108803000D02*
X144079900Y-108803000D01*
X144440700Y-107883400D02*
X139277000Y-102719700D01*
X144440700Y-108031900D02*
X144369900Y-108102700D01*
X150688700Y-111463700D02*
X150550000Y-111325000D01*
X151900000Y-101600000D02*
X149325000Y-101600000D01*
X150688700Y-121083300D02*
X150688700Y-111463700D01*
X148105026Y-111325000D02*
X144811926Y-108031900D01*
X153100000Y-102800000D02*
X151900000Y-101600000D01*
X149370000Y-122402000D02*
X150688700Y-121083300D01*
X149325000Y-101600000D02*
X148350000Y-100625000D01*
X150550000Y-111325000D02*
X148105026Y-111325000D01*
X144811926Y-108031900D02*
X144440700Y-108031900D01*
X148350000Y-100625000D02*
X147850000Y-100625000D01*
X131263100Y-102719700D02*
X129275900Y-100732500D01*
X139277000Y-102719700D02*
X131263100Y-102719700D01*
X153375000Y-102800000D02*
X153100000Y-102800000D01*
X144440700Y-108031900D02*
X144440700Y-107883400D01*
X145019974Y-84850000D02*
X153039974Y-92870000D01*
X159040000Y-92870000D02*
X162870000Y-96700000D01*
X135400000Y-83800000D02*
X139650000Y-83800000D01*
X140700000Y-84850000D02*
X145019974Y-84850000D01*
X153039974Y-92870000D02*
X159040000Y-92870000D01*
X139650000Y-83800000D02*
X140700000Y-84850000D01*
X162870000Y-96700000D02*
X162870000Y-122402000D01*
X129451100Y-87823900D02*
X129451100Y-90756740D01*
X134000000Y-84600000D02*
X132675000Y-84600000D01*
X132675000Y-84600000D02*
X129451100Y-87823900D01*
X158825000Y-103325000D02*
X157925000Y-102425000D01*
X157925000Y-96750000D02*
X156925000Y-95750000D01*
X157925000Y-102425000D02*
X157925000Y-96750000D01*
X156925000Y-95750000D02*
X156925000Y-94125000D01*
X158200000Y-93950000D02*
X159925000Y-95675000D01*
X159925000Y-95675000D02*
X159925000Y-103850000D01*
X157725000Y-106050000D02*
X156725000Y-106050000D01*
X159925000Y-103850000D02*
X157725000Y-106050000D01*
X140825000Y-91375000D02*
X140800000Y-91350000D01*
X132450000Y-90925000D02*
X132675000Y-90700000D01*
X147025000Y-92630761D02*
X145769239Y-91375000D01*
X145769239Y-91375000D02*
X140825000Y-91375000D01*
X147025000Y-97625000D02*
X147025000Y-92630761D01*
X137375000Y-90700000D02*
X137450000Y-90775000D01*
X132675000Y-90700000D02*
X137375000Y-90700000D01*
X154175000Y-94975000D02*
X144725000Y-85525000D01*
X132700000Y-85575000D02*
X132700000Y-88600000D01*
X144725000Y-85525000D02*
X132750000Y-85525000D01*
X132700000Y-88600000D02*
X131250000Y-90050000D01*
X132750000Y-85525000D02*
X132700000Y-85575000D01*
X154175000Y-95150000D02*
X154175000Y-94975000D01*
X139225000Y-93261500D02*
X127534900Y-93261500D01*
X133350000Y-89775000D02*
X139150000Y-89775000D01*
X143850000Y-86250000D02*
X133350000Y-86250000D01*
X155025000Y-97150000D02*
X154750000Y-97150000D01*
X154750000Y-97150000D02*
X143850000Y-86250000D01*
X133350000Y-86250000D02*
X133350000Y-89775000D01*
X139150000Y-89775000D02*
X139225000Y-89850000D01*
X139225000Y-89850000D02*
X139225000Y-93261500D01*
X154300000Y-99725000D02*
X152425000Y-97850000D01*
X148150000Y-91375000D02*
X148150000Y-93575000D01*
X133925000Y-87075000D02*
X134025000Y-86975000D01*
X150250000Y-97850000D02*
X148150000Y-95750000D01*
X139575000Y-89444974D02*
X139205026Y-89075000D01*
X134050000Y-89075000D02*
X133925000Y-88950000D01*
X155775000Y-104575000D02*
X157275000Y-104575000D01*
X152425000Y-97850000D02*
X150250000Y-97850000D01*
X157580000Y-104270000D02*
X157580000Y-102960761D01*
X134025000Y-86975000D02*
X143750000Y-86975000D01*
X127482100Y-94275400D02*
X139575000Y-94275400D01*
X148150000Y-95750000D02*
X148150000Y-93275000D01*
X139575000Y-94275400D02*
X139575000Y-89444974D01*
X143750000Y-86975000D02*
X148150000Y-91375000D01*
X157580000Y-102960761D02*
X154344239Y-99725000D01*
X139205026Y-89075000D02*
X134050000Y-89075000D01*
X133925000Y-88950000D02*
X133925000Y-87075000D01*
X154344239Y-99725000D02*
X154300000Y-99725000D01*
X127482100Y-94275500D02*
X127482100Y-94275400D01*
X157275000Y-104575000D02*
X157580000Y-104270000D01*
X147575000Y-96700000D02*
X147575000Y-91900000D01*
X143275000Y-87600000D02*
X139925000Y-87600000D01*
X133757252Y-94951673D02*
X135323327Y-94951673D01*
X139925000Y-94500000D02*
X139473327Y-94951673D01*
X139473327Y-94951673D02*
X135323327Y-94951673D01*
X139925000Y-87600000D02*
X139925000Y-94500000D01*
X156325000Y-103050000D02*
X151825000Y-98550000D01*
X135323327Y-94951673D02*
X135423390Y-94951673D01*
X135423390Y-94951673D02*
X135431145Y-94959428D01*
X147575000Y-91900000D02*
X143275000Y-87600000D01*
X149425000Y-98550000D02*
X147575000Y-96700000D01*
X126189400Y-95944900D02*
X126755085Y-95944900D01*
X133744200Y-94964725D02*
X133757252Y-94951673D01*
X127735260Y-94964725D02*
X133744200Y-94964725D01*
X156350000Y-103050000D02*
X156325000Y-103050000D01*
X126755085Y-95944900D02*
X127735260Y-94964725D01*
X151825000Y-98550000D02*
X149425000Y-98550000D01*
X138660810Y-78614190D02*
X136890000Y-80385000D01*
X134340000Y-82230000D02*
X134346900Y-82223100D01*
X136890000Y-82223100D02*
X136626500Y-82223100D01*
X124725000Y-91850000D02*
X134340000Y-82235000D01*
X136890000Y-80385000D02*
X136890000Y-82223100D01*
X134340000Y-82235000D02*
X134340000Y-82230000D01*
X119319000Y-105802000D02*
X119319000Y-103080860D01*
X124725000Y-97674860D02*
X124725000Y-91850000D01*
X141185204Y-78614190D02*
X138660810Y-78614190D01*
X119319000Y-103080860D02*
X124725000Y-97674860D01*
X134346900Y-82223100D02*
X136890000Y-82223100D01*
X119319000Y-96569767D02*
X119319000Y-99802000D01*
X132009760Y-81840240D02*
X132009760Y-83519760D01*
X135400000Y-79700000D02*
X134150000Y-79700000D01*
X132009760Y-83519760D02*
X132010000Y-83520000D01*
X134150000Y-79700000D02*
X132009760Y-81840240D01*
X132010000Y-83878767D02*
X119319000Y-96569767D01*
X132010000Y-83520000D02*
X132010000Y-83878767D01*
G04 #@! TA.AperFunction,Conductor*
G36*
X121890925Y-80221760D02*
G01*
X121914912Y-80226531D01*
X121932570Y-80233846D01*
X121952898Y-80247429D01*
X121960323Y-80253523D01*
X123098877Y-81392077D01*
X123104971Y-81399502D01*
X123118554Y-81419830D01*
X123125869Y-81437488D01*
X123130640Y-81461475D01*
X123131580Y-81471024D01*
X123131580Y-82412314D01*
X123127850Y-82431065D01*
X123110058Y-82474019D01*
X123083539Y-82500538D01*
X123040585Y-82518330D01*
X123021834Y-82522060D01*
X119171720Y-82522060D01*
X119171720Y-91618565D01*
X119157368Y-91653213D01*
X119131019Y-91666856D01*
X119019953Y-91685941D01*
X119017849Y-91686717D01*
X119017846Y-91686718D01*
X118823683Y-91758349D01*
X118823680Y-91758350D01*
X118821575Y-91759127D01*
X118819647Y-91760274D01*
X118819645Y-91760275D01*
X118641786Y-91866089D01*
X118641780Y-91866093D01*
X118639856Y-91867238D01*
X118480881Y-92006655D01*
X118479493Y-92008416D01*
X118351366Y-92170944D01*
X118351363Y-92170948D01*
X118349976Y-92172708D01*
X118251523Y-92359836D01*
X118188820Y-92561773D01*
X118168500Y-92733455D01*
X118168500Y-94855641D01*
X118182919Y-95012560D01*
X118240314Y-95216069D01*
X118333835Y-95405710D01*
X118460349Y-95575133D01*
X118615619Y-95718663D01*
X118794446Y-95831495D01*
X118796534Y-95832328D01*
X118988756Y-95909017D01*
X118988760Y-95909018D01*
X118990840Y-95909848D01*
X118993041Y-95910286D01*
X118993045Y-95910287D01*
X119132279Y-95937982D01*
X119163462Y-95958817D01*
X119171720Y-95986040D01*
X119171720Y-96340711D01*
X119157368Y-96375359D01*
X119149946Y-96381451D01*
X119138399Y-96389166D01*
X119102943Y-96442231D01*
X119083034Y-96472026D01*
X119063592Y-96569767D01*
X119064534Y-96574502D01*
X119067558Y-96589704D01*
X119068500Y-96599264D01*
X119068500Y-97636301D01*
X119054148Y-97670949D01*
X119027798Y-97684593D01*
X119019953Y-97685941D01*
X119017849Y-97686717D01*
X119017846Y-97686718D01*
X118823683Y-97758349D01*
X118823680Y-97758350D01*
X118821575Y-97759127D01*
X118819647Y-97760274D01*
X118819645Y-97760275D01*
X118641786Y-97866089D01*
X118641780Y-97866093D01*
X118639856Y-97867238D01*
X118480881Y-98006655D01*
X118479493Y-98008416D01*
X118351366Y-98170944D01*
X118351363Y-98170948D01*
X118349976Y-98172708D01*
X118251523Y-98359836D01*
X118188820Y-98561773D01*
X118188556Y-98564005D01*
X118188555Y-98564009D01*
X118185226Y-98592140D01*
X118168500Y-98733455D01*
X118168500Y-100855641D01*
X118182919Y-101012560D01*
X118240314Y-101216069D01*
X118333835Y-101405710D01*
X118460349Y-101575133D01*
X118615619Y-101718663D01*
X118794446Y-101831495D01*
X118796534Y-101832328D01*
X118988756Y-101909017D01*
X118988760Y-101909018D01*
X118990840Y-101909848D01*
X118993041Y-101910286D01*
X118993045Y-101910287D01*
X119132279Y-101937982D01*
X119163462Y-101958817D01*
X119171720Y-101986040D01*
X119171720Y-102851804D01*
X119157368Y-102886452D01*
X119149946Y-102892544D01*
X119138399Y-102900259D01*
X119102943Y-102953324D01*
X119083034Y-102983119D01*
X119063592Y-103080860D01*
X119064534Y-103085595D01*
X119067558Y-103100797D01*
X119068500Y-103110357D01*
X119068500Y-103636301D01*
X119054148Y-103670949D01*
X119027798Y-103684593D01*
X119019953Y-103685941D01*
X119017849Y-103686717D01*
X119017846Y-103686718D01*
X118823683Y-103758349D01*
X118823680Y-103758350D01*
X118821575Y-103759127D01*
X118819647Y-103760274D01*
X118819645Y-103760275D01*
X118641786Y-103866089D01*
X118641780Y-103866093D01*
X118639856Y-103867238D01*
X118480881Y-104006655D01*
X118479493Y-104008416D01*
X118351366Y-104170944D01*
X118351363Y-104170948D01*
X118349976Y-104172708D01*
X118251523Y-104359836D01*
X118188820Y-104561773D01*
X118188556Y-104564005D01*
X118188555Y-104564009D01*
X118179798Y-104638001D01*
X118168500Y-104733455D01*
X118168500Y-106855641D01*
X118182919Y-107012560D01*
X118240314Y-107216069D01*
X118333835Y-107405710D01*
X118460349Y-107575133D01*
X118615619Y-107718663D01*
X118794446Y-107831495D01*
X118796534Y-107832328D01*
X118988756Y-107909017D01*
X118988760Y-107909018D01*
X118990840Y-107909848D01*
X119198225Y-107951099D01*
X119298993Y-107952418D01*
X119407406Y-107953838D01*
X119407411Y-107953838D01*
X119409654Y-107953867D01*
X119411871Y-107953486D01*
X119411872Y-107953486D01*
X119475561Y-107942542D01*
X119618047Y-107918059D01*
X119620151Y-107917283D01*
X119620154Y-107917282D01*
X119814317Y-107845651D01*
X119814320Y-107845650D01*
X119816425Y-107844873D01*
X119818355Y-107843725D01*
X119964889Y-107756547D01*
X120002004Y-107751166D01*
X120024590Y-107764010D01*
X120025477Y-107764897D01*
X120031571Y-107772322D01*
X120045154Y-107792650D01*
X120052469Y-107810308D01*
X120057240Y-107834295D01*
X120058180Y-107843844D01*
X120058180Y-108121934D01*
X120043828Y-108156582D01*
X119162733Y-109037677D01*
X119155308Y-109043771D01*
X119138399Y-109055069D01*
X119102943Y-109108134D01*
X119083034Y-109137929D01*
X119063592Y-109235670D01*
X119064534Y-109240405D01*
X119067558Y-109255607D01*
X119068500Y-109265167D01*
X119068500Y-109636301D01*
X119054148Y-109670949D01*
X119027798Y-109684593D01*
X119019953Y-109685941D01*
X119017849Y-109686717D01*
X119017846Y-109686718D01*
X118823683Y-109758349D01*
X118823680Y-109758350D01*
X118821575Y-109759127D01*
X118819647Y-109760274D01*
X118819645Y-109760275D01*
X118641786Y-109866089D01*
X118641780Y-109866093D01*
X118639856Y-109867238D01*
X118480881Y-110006655D01*
X118479493Y-110008416D01*
X118351366Y-110170944D01*
X118351363Y-110170948D01*
X118349976Y-110172708D01*
X118251523Y-110359836D01*
X118188820Y-110561773D01*
X118188556Y-110564005D01*
X118188555Y-110564009D01*
X118179798Y-110638001D01*
X118168500Y-110733455D01*
X118168500Y-112855641D01*
X118182919Y-113012560D01*
X118240314Y-113216069D01*
X118333835Y-113405710D01*
X118460349Y-113575133D01*
X118615619Y-113718663D01*
X118794446Y-113831495D01*
X118796534Y-113832328D01*
X118988756Y-113909017D01*
X118988760Y-113909018D01*
X118990840Y-113909848D01*
X119198225Y-113951099D01*
X119298993Y-113952418D01*
X119407406Y-113953838D01*
X119407411Y-113953838D01*
X119409654Y-113953867D01*
X119411871Y-113953486D01*
X119411872Y-113953486D01*
X119475561Y-113942542D01*
X119618047Y-113918059D01*
X119620151Y-113917283D01*
X119620154Y-113917282D01*
X119814317Y-113845651D01*
X119814320Y-113845650D01*
X119816425Y-113844873D01*
X119837512Y-113832328D01*
X119984127Y-113745101D01*
X120021242Y-113739720D01*
X120051291Y-113762159D01*
X120058180Y-113787212D01*
X120058180Y-118697922D01*
X120043828Y-118732570D01*
X120039139Y-118736696D01*
X119377460Y-119247920D01*
X119334280Y-121869200D01*
X119439407Y-122402000D01*
X119461036Y-122511622D01*
X119453663Y-122548393D01*
X119422448Y-122569180D01*
X119398407Y-122565191D01*
X119397905Y-122567065D01*
X119326233Y-122547861D01*
X119320000Y-122546191D01*
X119313767Y-122547861D01*
X119306419Y-122549830D01*
X119293737Y-122551500D01*
X118946263Y-122551500D01*
X118933581Y-122549830D01*
X118926233Y-122547861D01*
X118920000Y-122546191D01*
X118900186Y-122551500D01*
X118842096Y-122567065D01*
X118785065Y-122624095D01*
X118764191Y-122702000D01*
X118765861Y-122708233D01*
X118767830Y-122715581D01*
X118769500Y-122728263D01*
X118769500Y-122832284D01*
X118755148Y-122866932D01*
X118721078Y-122881281D01*
X118070075Y-122888946D01*
X118035262Y-122875004D01*
X118020500Y-122839950D01*
X118020500Y-121475680D01*
X118022898Y-121460537D01*
X118023274Y-121459380D01*
X118025672Y-121452000D01*
X118023274Y-121444619D01*
X118023274Y-121444380D01*
X118021474Y-121436424D01*
X118011897Y-121363685D01*
X118011478Y-121360501D01*
X117976161Y-121275238D01*
X117919979Y-121202021D01*
X117846762Y-121145839D01*
X117761499Y-121110522D01*
X117736689Y-121107256D01*
X117685576Y-121100526D01*
X117677620Y-121098726D01*
X117677381Y-121098726D01*
X117670000Y-121096328D01*
X117662620Y-121098726D01*
X117661463Y-121099102D01*
X117646320Y-121101500D01*
X117643680Y-121101500D01*
X117628537Y-121099102D01*
X117627381Y-121098726D01*
X117627380Y-121098726D01*
X117620000Y-121096328D01*
X117612618Y-121098727D01*
X117604859Y-121098727D01*
X117604859Y-121097901D01*
X117597681Y-121098562D01*
X117522995Y-121088729D01*
X117510641Y-121085418D01*
X117426208Y-121050445D01*
X117415132Y-121044050D01*
X117342629Y-120988416D01*
X117333584Y-120979371D01*
X117277950Y-120906868D01*
X117271554Y-120895790D01*
X117236582Y-120811359D01*
X117233271Y-120799004D01*
X117223438Y-120724320D01*
X117224098Y-120717143D01*
X117223273Y-120717143D01*
X117223273Y-120709383D01*
X117225672Y-120702000D01*
X117222896Y-120693458D01*
X117220499Y-120678321D01*
X117219698Y-80269821D01*
X117234049Y-80235172D01*
X117268698Y-80220820D01*
X121881376Y-80220820D01*
X121890925Y-80221760D01*
G37*
G04 #@! TD.AperFunction*
G04 #@! TA.AperFunction,Conductor*
G36*
X163042289Y-69703103D02*
G01*
X163070000Y-69707492D01*
X163081864Y-69705613D01*
X163095012Y-69705318D01*
X163189048Y-69715914D01*
X163197916Y-69716913D01*
X163208613Y-69719355D01*
X163324902Y-69760046D01*
X163334788Y-69764806D01*
X163439110Y-69830356D01*
X163447686Y-69837196D01*
X163534804Y-69924314D01*
X163541644Y-69932890D01*
X163593718Y-70015765D01*
X163607194Y-70037213D01*
X163611954Y-70047098D01*
X163652645Y-70163387D01*
X163655087Y-70174084D01*
X163666682Y-70276986D01*
X163666387Y-70290136D01*
X163664508Y-70302000D01*
X163665111Y-70305807D01*
X163668897Y-70329712D01*
X163669500Y-70337377D01*
X163669500Y-71066623D01*
X163668897Y-71074288D01*
X163664508Y-71102000D01*
X163665111Y-71105806D01*
X163665962Y-71111179D01*
X163666327Y-71114029D01*
X163682530Y-71278529D01*
X163683228Y-71280830D01*
X163733320Y-71445965D01*
X163733322Y-71445970D01*
X163734021Y-71448274D01*
X163817639Y-71604712D01*
X163930169Y-71741831D01*
X164067288Y-71854361D01*
X164069412Y-71855496D01*
X164069413Y-71855497D01*
X164200325Y-71925471D01*
X164223726Y-71937979D01*
X164226030Y-71938678D01*
X164226035Y-71938680D01*
X164353740Y-71977418D01*
X164393471Y-71989470D01*
X164395859Y-71989705D01*
X164395863Y-71989706D01*
X164480646Y-71998056D01*
X164557971Y-72005673D01*
X164560805Y-72006036D01*
X164570000Y-72007492D01*
X164573807Y-72006889D01*
X164573814Y-72006888D01*
X164597711Y-72003103D01*
X164605377Y-72002500D01*
X167584623Y-72002500D01*
X167592288Y-72003103D01*
X167616191Y-72006889D01*
X167616193Y-72006889D01*
X167620000Y-72007492D01*
X167623810Y-72006888D01*
X167627664Y-72006888D01*
X167627664Y-72007593D01*
X167641770Y-72008333D01*
X167657068Y-72012432D01*
X167679034Y-72025114D01*
X167696886Y-72042966D01*
X167709568Y-72064932D01*
X167713667Y-72080230D01*
X167714407Y-72094336D01*
X167715112Y-72094336D01*
X167715112Y-72098190D01*
X167714508Y-72102000D01*
X167715111Y-72105807D01*
X167715111Y-72105809D01*
X167718897Y-72129712D01*
X167719500Y-72137377D01*
X167719500Y-120666623D01*
X167718897Y-120674288D01*
X167714508Y-120702000D01*
X167715112Y-120705810D01*
X167715112Y-120709664D01*
X167714407Y-120709664D01*
X167713667Y-120723770D01*
X167709568Y-120739068D01*
X167696886Y-120761034D01*
X167679034Y-120778886D01*
X167657068Y-120791568D01*
X167641770Y-120795667D01*
X167627664Y-120796407D01*
X167627664Y-120797112D01*
X167623810Y-120797112D01*
X167620000Y-120796508D01*
X167616193Y-120797111D01*
X167616187Y-120797111D01*
X167602667Y-120799253D01*
X167587333Y-120799253D01*
X167573812Y-120797111D01*
X167573807Y-120797111D01*
X167570000Y-120796508D01*
X167551904Y-120799374D01*
X167549753Y-120799665D01*
X167516550Y-120803406D01*
X167427072Y-120813488D01*
X167427068Y-120813489D01*
X167424334Y-120813797D01*
X167329004Y-120847154D01*
X167288573Y-120861301D01*
X167288571Y-120861302D01*
X167285973Y-120862211D01*
X167161854Y-120940201D01*
X167058201Y-121043854D01*
X166980211Y-121167973D01*
X166931797Y-121306334D01*
X166931489Y-121309068D01*
X166931488Y-121309072D01*
X166917666Y-121431745D01*
X166917374Y-121433904D01*
X166914508Y-121452000D01*
X166915111Y-121455807D01*
X166918897Y-121479712D01*
X166919500Y-121487377D01*
X166919500Y-122839289D01*
X166905148Y-122873937D01*
X166876896Y-122887870D01*
X166834995Y-122893386D01*
X166823182Y-122894941D01*
X166816787Y-122895360D01*
X166769500Y-122895360D01*
X166734852Y-122881008D01*
X166720500Y-122846360D01*
X166720500Y-122737377D01*
X166721103Y-122729712D01*
X166724889Y-122705807D01*
X166725492Y-122702000D01*
X166705646Y-122576696D01*
X166648050Y-122463658D01*
X166558342Y-122373950D01*
X166554909Y-122372201D01*
X166554908Y-122372200D01*
X166498316Y-122343365D01*
X166445304Y-122316354D01*
X166441499Y-122315751D01*
X166441498Y-122315751D01*
X166351519Y-122301500D01*
X166323807Y-122297111D01*
X166320000Y-122296508D01*
X166316193Y-122297111D01*
X166292288Y-122300897D01*
X166284623Y-122301500D01*
X165955377Y-122301500D01*
X165947712Y-122300897D01*
X165923807Y-122297111D01*
X165920000Y-122296508D01*
X165916193Y-122297111D01*
X165888481Y-122301500D01*
X165798502Y-122315751D01*
X165798501Y-122315751D01*
X165794696Y-122316354D01*
X165741684Y-122343365D01*
X165685092Y-122372200D01*
X165685091Y-122372201D01*
X165681658Y-122373950D01*
X165591950Y-122463658D01*
X165534354Y-122576696D01*
X165514508Y-122702000D01*
X165515111Y-122705807D01*
X165518897Y-122729712D01*
X165519500Y-122737377D01*
X165519500Y-122810519D01*
X165505148Y-122845167D01*
X165470500Y-122859519D01*
X165451749Y-122855789D01*
X165424718Y-122844593D01*
X165391519Y-122830841D01*
X165380445Y-122824448D01*
X165287122Y-122752838D01*
X165278080Y-122743795D01*
X165206474Y-122650477D01*
X165200078Y-122639400D01*
X165164101Y-122552544D01*
X165160848Y-122526974D01*
X165170405Y-122458974D01*
X165175036Y-122426025D01*
X165175036Y-122426020D01*
X165175251Y-122424493D01*
X165175565Y-122402000D01*
X165155546Y-122223528D01*
X165138286Y-122173964D01*
X165135560Y-122157850D01*
X165135560Y-121442480D01*
X164852264Y-121303732D01*
X164692463Y-121225468D01*
X164239809Y-121003776D01*
X163930259Y-120852170D01*
X163924371Y-120848758D01*
X163817791Y-120776646D01*
X163807684Y-120767523D01*
X163806999Y-120766705D01*
X163727293Y-120671518D01*
X163720086Y-120659964D01*
X163669227Y-120545541D01*
X163665478Y-120532449D01*
X163647595Y-120405019D01*
X163647120Y-120398209D01*
X163647120Y-119086033D01*
X163647543Y-119079605D01*
X163663478Y-118959184D01*
X163666822Y-118946772D01*
X163712273Y-118837651D01*
X163718730Y-118826534D01*
X163792990Y-118730412D01*
X163797255Y-118725584D01*
X164468413Y-118059697D01*
X164469557Y-118058562D01*
X164617400Y-117911880D01*
X164617400Y-117141760D01*
X164617819Y-117135364D01*
X164633595Y-117015531D01*
X164636906Y-117003176D01*
X164681918Y-116894507D01*
X164688314Y-116883429D01*
X164761891Y-116787542D01*
X164766117Y-116782723D01*
X165112700Y-116436140D01*
X165112700Y-114195860D01*
X164364797Y-113447957D01*
X164360571Y-113443138D01*
X164286994Y-113347251D01*
X164280598Y-113336173D01*
X164235586Y-113227504D01*
X164232275Y-113215149D01*
X164216499Y-113095316D01*
X164216080Y-113088920D01*
X164216080Y-101729540D01*
X163384852Y-100898312D01*
X163370500Y-100863664D01*
X163370500Y-99351651D01*
X163384852Y-99317003D01*
X163419569Y-99302652D01*
X163639987Y-99302966D01*
X163749326Y-99303123D01*
X163749330Y-99303123D01*
X163750926Y-99303125D01*
X163750928Y-99303125D01*
X164251640Y-99303840D01*
X164251640Y-95702120D01*
X163671024Y-95702120D01*
X163664655Y-95701704D01*
X163545323Y-95686061D01*
X163533021Y-95682780D01*
X163478876Y-95660458D01*
X163424733Y-95638137D01*
X163413688Y-95631793D01*
X163318002Y-95558793D01*
X163313191Y-95554600D01*
X160892317Y-93149850D01*
X160892316Y-93149849D01*
X160891132Y-93148673D01*
X160792160Y-93050360D01*
X159664992Y-92777049D01*
X159641892Y-92764078D01*
X159437450Y-92559636D01*
X159430657Y-92551135D01*
X159426931Y-92545230D01*
X159425070Y-92542280D01*
X159383619Y-92505672D01*
X159381407Y-92503593D01*
X159368494Y-92490680D01*
X159367103Y-92489637D01*
X159367092Y-92489628D01*
X159357842Y-92482696D01*
X159354792Y-92480213D01*
X159320231Y-92449690D01*
X159317612Y-92447377D01*
X159314452Y-92445893D01*
X159314450Y-92445892D01*
X159303689Y-92440840D01*
X159295135Y-92435700D01*
X159282824Y-92426474D01*
X159279558Y-92425250D01*
X159279557Y-92425249D01*
X159236371Y-92409059D01*
X159232748Y-92407532D01*
X159190996Y-92387930D01*
X159190995Y-92387930D01*
X159187837Y-92386447D01*
X159178682Y-92385022D01*
X159172642Y-92384081D01*
X159162982Y-92381546D01*
X159151852Y-92377374D01*
X159151848Y-92377373D01*
X159148580Y-92376148D01*
X159145103Y-92375890D01*
X159145100Y-92375889D01*
X159099103Y-92372471D01*
X159095198Y-92372023D01*
X159078991Y-92369500D01*
X159060929Y-92369500D01*
X159057298Y-92369365D01*
X159009095Y-92365783D01*
X159009094Y-92365783D01*
X159005608Y-92365524D01*
X159002188Y-92366254D01*
X158992041Y-92368420D01*
X158981812Y-92369500D01*
X157990060Y-92369500D01*
X157978515Y-92368120D01*
X151902164Y-90894754D01*
X151895791Y-90892739D01*
X151822993Y-90864104D01*
X151778209Y-90846487D01*
X151766550Y-90839940D01*
X151665856Y-90763628D01*
X151660804Y-90759224D01*
X146112357Y-85210777D01*
X146108131Y-85205958D01*
X146034554Y-85110071D01*
X146028158Y-85098993D01*
X145983146Y-84990324D01*
X145979835Y-84977969D01*
X145964059Y-84858136D01*
X145963640Y-84851740D01*
X145963640Y-81284100D01*
X150192000Y-81284100D01*
X150193444Y-81313506D01*
X150197764Y-81342628D01*
X150204917Y-81371186D01*
X150214836Y-81398906D01*
X150227423Y-81425520D01*
X150228039Y-81426548D01*
X150228044Y-81426557D01*
X150240096Y-81446663D01*
X150242559Y-81450772D01*
X150260096Y-81474418D01*
X150279867Y-81496233D01*
X150301682Y-81516004D01*
X150325328Y-81533541D01*
X150326364Y-81534162D01*
X150326367Y-81534164D01*
X150349543Y-81548056D01*
X150349552Y-81548061D01*
X150350580Y-81548677D01*
X150377194Y-81561264D01*
X150404914Y-81571183D01*
X150406074Y-81571473D01*
X150406082Y-81571476D01*
X150432314Y-81578046D01*
X150433472Y-81578336D01*
X150434653Y-81578511D01*
X150434652Y-81578511D01*
X150461400Y-81582479D01*
X150461402Y-81582479D01*
X150462594Y-81582656D01*
X150492000Y-81584100D01*
X150521405Y-81582656D01*
X150522597Y-81582479D01*
X150522599Y-81582479D01*
X150549347Y-81578511D01*
X150549346Y-81578511D01*
X150550527Y-81578336D01*
X150551685Y-81578046D01*
X150577917Y-81571476D01*
X150577925Y-81571473D01*
X150579085Y-81571183D01*
X150606805Y-81561264D01*
X150633419Y-81548677D01*
X150634447Y-81548061D01*
X150634456Y-81548056D01*
X150657632Y-81534164D01*
X150657635Y-81534162D01*
X150658671Y-81533541D01*
X150682317Y-81516004D01*
X150704132Y-81496233D01*
X150723903Y-81474418D01*
X150741440Y-81450772D01*
X150743903Y-81446663D01*
X150755955Y-81426557D01*
X150755960Y-81426548D01*
X150756576Y-81425520D01*
X150769163Y-81398906D01*
X150779082Y-81371186D01*
X150786235Y-81342628D01*
X150790555Y-81313506D01*
X150790615Y-81312296D01*
X150791941Y-81285301D01*
X150792000Y-81284100D01*
X151192000Y-81284100D01*
X151193444Y-81313506D01*
X151197764Y-81342628D01*
X151204917Y-81371186D01*
X151214836Y-81398906D01*
X151227423Y-81425520D01*
X151228039Y-81426548D01*
X151228044Y-81426557D01*
X151240096Y-81446663D01*
X151242559Y-81450772D01*
X151260096Y-81474418D01*
X151279867Y-81496233D01*
X151301682Y-81516004D01*
X151325328Y-81533541D01*
X151326364Y-81534162D01*
X151326367Y-81534164D01*
X151349543Y-81548056D01*
X151349552Y-81548061D01*
X151350580Y-81548677D01*
X151377194Y-81561264D01*
X151404914Y-81571183D01*
X151406074Y-81571473D01*
X151406082Y-81571476D01*
X151432314Y-81578046D01*
X151433472Y-81578336D01*
X151434653Y-81578511D01*
X151434652Y-81578511D01*
X151461400Y-81582479D01*
X151461402Y-81582479D01*
X151462594Y-81582656D01*
X151492000Y-81584100D01*
X151521405Y-81582656D01*
X151522597Y-81582479D01*
X151522599Y-81582479D01*
X151549347Y-81578511D01*
X151549346Y-81578511D01*
X151550527Y-81578336D01*
X151551685Y-81578046D01*
X151577917Y-81571476D01*
X151577925Y-81571473D01*
X151579085Y-81571183D01*
X151606805Y-81561264D01*
X151633419Y-81548677D01*
X151634447Y-81548061D01*
X151634456Y-81548056D01*
X151657632Y-81534164D01*
X151657635Y-81534162D01*
X151658671Y-81533541D01*
X151682317Y-81516004D01*
X151704132Y-81496233D01*
X151723903Y-81474418D01*
X151741440Y-81450772D01*
X151743903Y-81446663D01*
X151755955Y-81426557D01*
X151755960Y-81426548D01*
X151756576Y-81425520D01*
X151769163Y-81398906D01*
X151779082Y-81371186D01*
X151786235Y-81342628D01*
X151790555Y-81313506D01*
X151790615Y-81312296D01*
X151791941Y-81285301D01*
X151792000Y-81284100D01*
X152192000Y-81284100D01*
X152193444Y-81313506D01*
X152197764Y-81342628D01*
X152204917Y-81371186D01*
X152214836Y-81398906D01*
X152227423Y-81425520D01*
X152228039Y-81426548D01*
X152228044Y-81426557D01*
X152240096Y-81446663D01*
X152242559Y-81450772D01*
X152260096Y-81474418D01*
X152279867Y-81496233D01*
X152301682Y-81516004D01*
X152325328Y-81533541D01*
X152326364Y-81534162D01*
X152326367Y-81534164D01*
X152349543Y-81548056D01*
X152349552Y-81548061D01*
X152350580Y-81548677D01*
X152377194Y-81561264D01*
X152404914Y-81571183D01*
X152406074Y-81571473D01*
X152406082Y-81571476D01*
X152432314Y-81578046D01*
X152433472Y-81578336D01*
X152434653Y-81578511D01*
X152434652Y-81578511D01*
X152461400Y-81582479D01*
X152461402Y-81582479D01*
X152462594Y-81582656D01*
X152492000Y-81584100D01*
X152521405Y-81582656D01*
X152522597Y-81582479D01*
X152522599Y-81582479D01*
X152549347Y-81578511D01*
X152549346Y-81578511D01*
X152550527Y-81578336D01*
X152551685Y-81578046D01*
X152577917Y-81571476D01*
X152577925Y-81571473D01*
X152579085Y-81571183D01*
X152606805Y-81561264D01*
X152633419Y-81548677D01*
X152634447Y-81548061D01*
X152634456Y-81548056D01*
X152657632Y-81534164D01*
X152657635Y-81534162D01*
X152658671Y-81533541D01*
X152682317Y-81516004D01*
X152704132Y-81496233D01*
X152723903Y-81474418D01*
X152741440Y-81450772D01*
X152743903Y-81446663D01*
X152755955Y-81426557D01*
X152755960Y-81426548D01*
X152756576Y-81425520D01*
X152769163Y-81398906D01*
X152779082Y-81371186D01*
X152786235Y-81342628D01*
X152790555Y-81313506D01*
X152790615Y-81312296D01*
X152791941Y-81285301D01*
X152792000Y-81284100D01*
X153892000Y-81284100D01*
X153893444Y-81313506D01*
X153897764Y-81342628D01*
X153904917Y-81371186D01*
X153914836Y-81398906D01*
X153927423Y-81425520D01*
X153928039Y-81426548D01*
X153928044Y-81426557D01*
X153940096Y-81446663D01*
X153942559Y-81450772D01*
X153960096Y-81474418D01*
X153979867Y-81496233D01*
X154001682Y-81516004D01*
X154025328Y-81533541D01*
X154026364Y-81534162D01*
X154026367Y-81534164D01*
X154049543Y-81548056D01*
X154049552Y-81548061D01*
X154050580Y-81548677D01*
X154077194Y-81561264D01*
X154104914Y-81571183D01*
X154106074Y-81571473D01*
X154106082Y-81571476D01*
X154132314Y-81578046D01*
X154133472Y-81578336D01*
X154134653Y-81578511D01*
X154134652Y-81578511D01*
X154161400Y-81582479D01*
X154161402Y-81582479D01*
X154162594Y-81582656D01*
X154192000Y-81584100D01*
X154221405Y-81582656D01*
X154222597Y-81582479D01*
X154222599Y-81582479D01*
X154249347Y-81578511D01*
X154249346Y-81578511D01*
X154250527Y-81578336D01*
X154251685Y-81578046D01*
X154277917Y-81571476D01*
X154277925Y-81571473D01*
X154279085Y-81571183D01*
X154306805Y-81561264D01*
X154333419Y-81548677D01*
X154334447Y-81548061D01*
X154334456Y-81548056D01*
X154357632Y-81534164D01*
X154357635Y-81534162D01*
X154358671Y-81533541D01*
X154382317Y-81516004D01*
X154404132Y-81496233D01*
X154423903Y-81474418D01*
X154441440Y-81450772D01*
X154443903Y-81446663D01*
X154455955Y-81426557D01*
X154455960Y-81426548D01*
X154456576Y-81425520D01*
X154469163Y-81398906D01*
X154479082Y-81371186D01*
X154486235Y-81342628D01*
X154490555Y-81313506D01*
X154490615Y-81312296D01*
X154491941Y-81285301D01*
X154492000Y-81284100D01*
X154892000Y-81284100D01*
X154893444Y-81313506D01*
X154897764Y-81342628D01*
X154904917Y-81371186D01*
X154914836Y-81398906D01*
X154927423Y-81425520D01*
X154928039Y-81426548D01*
X154928044Y-81426557D01*
X154940096Y-81446663D01*
X154942559Y-81450772D01*
X154960096Y-81474418D01*
X154979867Y-81496233D01*
X155001682Y-81516004D01*
X155025328Y-81533541D01*
X155026364Y-81534162D01*
X155026367Y-81534164D01*
X155049543Y-81548056D01*
X155049552Y-81548061D01*
X155050580Y-81548677D01*
X155077194Y-81561264D01*
X155104914Y-81571183D01*
X155106074Y-81571473D01*
X155106082Y-81571476D01*
X155132314Y-81578046D01*
X155133472Y-81578336D01*
X155134653Y-81578511D01*
X155134652Y-81578511D01*
X155161400Y-81582479D01*
X155161402Y-81582479D01*
X155162594Y-81582656D01*
X155192000Y-81584100D01*
X155221405Y-81582656D01*
X155222597Y-81582479D01*
X155222599Y-81582479D01*
X155249347Y-81578511D01*
X155249346Y-81578511D01*
X155250527Y-81578336D01*
X155251685Y-81578046D01*
X155277917Y-81571476D01*
X155277925Y-81571473D01*
X155279085Y-81571183D01*
X155306805Y-81561264D01*
X155333419Y-81548677D01*
X155334447Y-81548061D01*
X155334456Y-81548056D01*
X155357632Y-81534164D01*
X155357635Y-81534162D01*
X155358671Y-81533541D01*
X155382317Y-81516004D01*
X155404132Y-81496233D01*
X155423903Y-81474418D01*
X155441440Y-81450772D01*
X155443903Y-81446663D01*
X155455955Y-81426557D01*
X155455960Y-81426548D01*
X155456576Y-81425520D01*
X155469163Y-81398906D01*
X155479082Y-81371186D01*
X155486235Y-81342628D01*
X155490555Y-81313506D01*
X155490615Y-81312296D01*
X155491941Y-81285301D01*
X155492000Y-81284100D01*
X155491543Y-81274800D01*
X155490614Y-81255887D01*
X155490613Y-81255878D01*
X155490555Y-81254695D01*
X155486235Y-81225573D01*
X155479082Y-81197015D01*
X155469163Y-81169295D01*
X155456576Y-81142681D01*
X155455960Y-81141653D01*
X155455955Y-81141644D01*
X155442063Y-81118468D01*
X155442061Y-81118465D01*
X155441440Y-81117429D01*
X155423903Y-81093783D01*
X155404132Y-81071968D01*
X155382317Y-81052197D01*
X155358671Y-81034660D01*
X155357632Y-81034037D01*
X155334456Y-81020145D01*
X155334447Y-81020140D01*
X155333419Y-81019524D01*
X155306805Y-81006937D01*
X155279085Y-80997018D01*
X155277925Y-80996728D01*
X155277917Y-80996725D01*
X155251685Y-80990155D01*
X155251684Y-80990155D01*
X155250527Y-80989865D01*
X155221405Y-80985545D01*
X155220222Y-80985487D01*
X155220213Y-80985486D01*
X155193201Y-80984159D01*
X155192000Y-80984100D01*
X155190799Y-80984159D01*
X155163786Y-80985486D01*
X155163777Y-80985487D01*
X155162594Y-80985545D01*
X155133472Y-80989865D01*
X155132315Y-80990155D01*
X155132314Y-80990155D01*
X155106082Y-80996725D01*
X155106074Y-80996728D01*
X155104914Y-80997018D01*
X155077194Y-81006937D01*
X155050580Y-81019524D01*
X155049552Y-81020140D01*
X155049543Y-81020145D01*
X155026367Y-81034037D01*
X155025328Y-81034660D01*
X155001682Y-81052197D01*
X154979867Y-81071968D01*
X154960096Y-81093783D01*
X154942559Y-81117429D01*
X154941938Y-81118465D01*
X154941936Y-81118468D01*
X154928044Y-81141644D01*
X154928039Y-81141653D01*
X154927423Y-81142681D01*
X154914836Y-81169295D01*
X154904917Y-81197015D01*
X154897764Y-81225573D01*
X154893444Y-81254695D01*
X154892000Y-81284100D01*
X154492000Y-81284100D01*
X154491543Y-81274800D01*
X154490614Y-81255887D01*
X154490613Y-81255878D01*
X154490555Y-81254695D01*
X154486235Y-81225573D01*
X154479082Y-81197015D01*
X154469163Y-81169295D01*
X154456576Y-81142681D01*
X154455960Y-81141653D01*
X154455955Y-81141644D01*
X154442063Y-81118468D01*
X154442061Y-81118465D01*
X154441440Y-81117429D01*
X154423903Y-81093783D01*
X154404132Y-81071968D01*
X154382317Y-81052197D01*
X154358671Y-81034660D01*
X154357632Y-81034037D01*
X154334456Y-81020145D01*
X154334447Y-81020140D01*
X154333419Y-81019524D01*
X154306805Y-81006937D01*
X154279085Y-80997018D01*
X154277925Y-80996728D01*
X154277917Y-80996725D01*
X154251685Y-80990155D01*
X154251684Y-80990155D01*
X154250527Y-80989865D01*
X154221405Y-80985545D01*
X154220222Y-80985487D01*
X154220213Y-80985486D01*
X154193201Y-80984159D01*
X154192000Y-80984100D01*
X154190799Y-80984159D01*
X154163786Y-80985486D01*
X154163777Y-80985487D01*
X154162594Y-80985545D01*
X154133472Y-80989865D01*
X154132315Y-80990155D01*
X154132314Y-80990155D01*
X154106082Y-80996725D01*
X154106074Y-80996728D01*
X154104914Y-80997018D01*
X154077194Y-81006937D01*
X154050580Y-81019524D01*
X154049552Y-81020140D01*
X154049543Y-81020145D01*
X154026367Y-81034037D01*
X154025328Y-81034660D01*
X154001682Y-81052197D01*
X153979867Y-81071968D01*
X153960096Y-81093783D01*
X153942559Y-81117429D01*
X153941938Y-81118465D01*
X153941936Y-81118468D01*
X153928044Y-81141644D01*
X153928039Y-81141653D01*
X153927423Y-81142681D01*
X153914836Y-81169295D01*
X153904917Y-81197015D01*
X153897764Y-81225573D01*
X153893444Y-81254695D01*
X153892000Y-81284100D01*
X152792000Y-81284100D01*
X152791543Y-81274800D01*
X152790614Y-81255887D01*
X152790613Y-81255878D01*
X152790555Y-81254695D01*
X152786235Y-81225573D01*
X152779082Y-81197015D01*
X152769163Y-81169295D01*
X152756576Y-81142681D01*
X152755960Y-81141653D01*
X152755955Y-81141644D01*
X152742063Y-81118468D01*
X152742061Y-81118465D01*
X152741440Y-81117429D01*
X152723903Y-81093783D01*
X152704132Y-81071968D01*
X152682317Y-81052197D01*
X152658671Y-81034660D01*
X152657632Y-81034037D01*
X152634456Y-81020145D01*
X152634447Y-81020140D01*
X152633419Y-81019524D01*
X152606805Y-81006937D01*
X152579085Y-80997018D01*
X152577925Y-80996728D01*
X152577917Y-80996725D01*
X152551685Y-80990155D01*
X152551684Y-80990155D01*
X152550527Y-80989865D01*
X152521405Y-80985545D01*
X152520222Y-80985487D01*
X152520213Y-80985486D01*
X152493201Y-80984159D01*
X152492000Y-80984100D01*
X152490799Y-80984159D01*
X152463786Y-80985486D01*
X152463777Y-80985487D01*
X152462594Y-80985545D01*
X152433472Y-80989865D01*
X152432315Y-80990155D01*
X152432314Y-80990155D01*
X152406082Y-80996725D01*
X152406074Y-80996728D01*
X152404914Y-80997018D01*
X152377194Y-81006937D01*
X152350580Y-81019524D01*
X152349552Y-81020140D01*
X152349543Y-81020145D01*
X152326367Y-81034037D01*
X152325328Y-81034660D01*
X152301682Y-81052197D01*
X152279867Y-81071968D01*
X152260096Y-81093783D01*
X152242559Y-81117429D01*
X152241938Y-81118465D01*
X152241936Y-81118468D01*
X152228044Y-81141644D01*
X152228039Y-81141653D01*
X152227423Y-81142681D01*
X152214836Y-81169295D01*
X152204917Y-81197015D01*
X152197764Y-81225573D01*
X152193444Y-81254695D01*
X152192000Y-81284100D01*
X151792000Y-81284100D01*
X151791543Y-81274800D01*
X151790614Y-81255887D01*
X151790613Y-81255878D01*
X151790555Y-81254695D01*
X151786235Y-81225573D01*
X151779082Y-81197015D01*
X151769163Y-81169295D01*
X151756576Y-81142681D01*
X151755960Y-81141653D01*
X151755955Y-81141644D01*
X151742063Y-81118468D01*
X151742061Y-81118465D01*
X151741440Y-81117429D01*
X151723903Y-81093783D01*
X151704132Y-81071968D01*
X151682317Y-81052197D01*
X151658671Y-81034660D01*
X151657632Y-81034037D01*
X151634456Y-81020145D01*
X151634447Y-81020140D01*
X151633419Y-81019524D01*
X151606805Y-81006937D01*
X151579085Y-80997018D01*
X151577925Y-80996728D01*
X151577917Y-80996725D01*
X151551685Y-80990155D01*
X151551684Y-80990155D01*
X151550527Y-80989865D01*
X151521405Y-80985545D01*
X151520222Y-80985487D01*
X151520213Y-80985486D01*
X151493201Y-80984159D01*
X151492000Y-80984100D01*
X151490799Y-80984159D01*
X151463786Y-80985486D01*
X151463777Y-80985487D01*
X151462594Y-80985545D01*
X151433472Y-80989865D01*
X151432315Y-80990155D01*
X151432314Y-80990155D01*
X151406082Y-80996725D01*
X151406074Y-80996728D01*
X151404914Y-80997018D01*
X151377194Y-81006937D01*
X151350580Y-81019524D01*
X151349552Y-81020140D01*
X151349543Y-81020145D01*
X151326367Y-81034037D01*
X151325328Y-81034660D01*
X151301682Y-81052197D01*
X151279867Y-81071968D01*
X151260096Y-81093783D01*
X151242559Y-81117429D01*
X151241938Y-81118465D01*
X151241936Y-81118468D01*
X151228044Y-81141644D01*
X151228039Y-81141653D01*
X151227423Y-81142681D01*
X151214836Y-81169295D01*
X151204917Y-81197015D01*
X151197764Y-81225573D01*
X151193444Y-81254695D01*
X151192000Y-81284100D01*
X150792000Y-81284100D01*
X150791543Y-81274800D01*
X150790614Y-81255887D01*
X150790613Y-81255878D01*
X150790555Y-81254695D01*
X150786235Y-81225573D01*
X150779082Y-81197015D01*
X150769163Y-81169295D01*
X150756576Y-81142681D01*
X150755960Y-81141653D01*
X150755955Y-81141644D01*
X150742063Y-81118468D01*
X150742061Y-81118465D01*
X150741440Y-81117429D01*
X150723903Y-81093783D01*
X150704132Y-81071968D01*
X150682317Y-81052197D01*
X150658671Y-81034660D01*
X150657632Y-81034037D01*
X150634456Y-81020145D01*
X150634447Y-81020140D01*
X150633419Y-81019524D01*
X150606805Y-81006937D01*
X150579085Y-80997018D01*
X150577925Y-80996728D01*
X150577917Y-80996725D01*
X150551685Y-80990155D01*
X150551684Y-80990155D01*
X150550527Y-80989865D01*
X150521405Y-80985545D01*
X150520222Y-80985487D01*
X150520213Y-80985486D01*
X150493201Y-80984159D01*
X150492000Y-80984100D01*
X150490799Y-80984159D01*
X150463786Y-80985486D01*
X150463777Y-80985487D01*
X150462594Y-80985545D01*
X150433472Y-80989865D01*
X150432315Y-80990155D01*
X150432314Y-80990155D01*
X150406082Y-80996725D01*
X150406074Y-80996728D01*
X150404914Y-80997018D01*
X150377194Y-81006937D01*
X150350580Y-81019524D01*
X150349552Y-81020140D01*
X150349543Y-81020145D01*
X150326367Y-81034037D01*
X150325328Y-81034660D01*
X150301682Y-81052197D01*
X150279867Y-81071968D01*
X150260096Y-81093783D01*
X150242559Y-81117429D01*
X150241938Y-81118465D01*
X150241936Y-81118468D01*
X150228044Y-81141644D01*
X150228039Y-81141653D01*
X150227423Y-81142681D01*
X150214836Y-81169295D01*
X150204917Y-81197015D01*
X150197764Y-81225573D01*
X150193444Y-81254695D01*
X150192000Y-81284100D01*
X145963640Y-81284100D01*
X145963640Y-81252060D01*
X143566173Y-81252060D01*
X143559777Y-81251641D01*
X143439942Y-81235865D01*
X143427589Y-81232554D01*
X143407940Y-81224415D01*
X143318919Y-81187541D01*
X143307845Y-81181148D01*
X143214522Y-81109538D01*
X143205482Y-81100498D01*
X143133872Y-81007175D01*
X143127477Y-80996098D01*
X143125055Y-80990249D01*
X143082466Y-80887430D01*
X143079155Y-80875076D01*
X143063379Y-80755243D01*
X143062960Y-80748847D01*
X143062960Y-75321160D01*
X142733223Y-75201739D01*
X142731475Y-75201106D01*
X142731473Y-75201105D01*
X139699642Y-74103066D01*
X139671952Y-74077773D01*
X139669168Y-74043694D01*
X139684297Y-73990050D01*
X139684298Y-73990044D01*
X139684767Y-73988382D01*
X139687368Y-73969021D01*
X139720430Y-73722867D01*
X139720430Y-73722866D01*
X139720595Y-73721638D01*
X139724355Y-73602000D01*
X139724267Y-73600760D01*
X139724267Y-73600750D01*
X139705469Y-73335254D01*
X139705469Y-73335252D01*
X139705347Y-73333533D01*
X139678315Y-73207974D01*
X139649067Y-73072128D01*
X139648700Y-73070423D01*
X139555547Y-72817919D01*
X139427744Y-72581060D01*
X139267843Y-72364571D01*
X139079034Y-72172772D01*
X138865083Y-72009490D01*
X138861696Y-72007593D01*
X138631781Y-71878834D01*
X138631778Y-71878833D01*
X138630261Y-71877983D01*
X138569202Y-71854361D01*
X138380878Y-71781504D01*
X138380873Y-71781502D01*
X138379251Y-71780875D01*
X138210804Y-71741831D01*
X138118751Y-71720494D01*
X138118747Y-71720493D01*
X138117063Y-71720103D01*
X137848928Y-71696880D01*
X137847200Y-71696975D01*
X137847196Y-71696975D01*
X137643784Y-71708170D01*
X137580196Y-71711669D01*
X137578500Y-71712006D01*
X137578495Y-71712007D01*
X137448212Y-71737922D01*
X137316228Y-71764176D01*
X137062292Y-71853352D01*
X136823455Y-71977418D01*
X136781371Y-72007492D01*
X136605891Y-72132891D01*
X136605887Y-72132894D01*
X136604481Y-72133899D01*
X136603228Y-72135095D01*
X136603226Y-72135096D01*
X136516769Y-72217572D01*
X136409740Y-72319672D01*
X136408671Y-72321028D01*
X136260863Y-72508523D01*
X136243118Y-72531032D01*
X136107939Y-72763760D01*
X136107289Y-72765366D01*
X136107287Y-72765369D01*
X136010968Y-73003169D01*
X136006900Y-73013213D01*
X136006484Y-73014889D01*
X136006483Y-73014891D01*
X135965162Y-73181240D01*
X135942017Y-73274414D01*
X135914585Y-73542151D01*
X135915806Y-73573218D01*
X135925152Y-73811083D01*
X135925462Y-73812780D01*
X135961224Y-74008597D01*
X135953330Y-74045260D01*
X135921824Y-74065603D01*
X135913021Y-74066400D01*
X129425700Y-74066400D01*
X127310980Y-75367215D01*
X127285788Y-75375801D01*
X127262865Y-75368392D01*
X127255361Y-75363677D01*
X127255357Y-75363675D01*
X127253027Y-75362211D01*
X127250429Y-75361302D01*
X127250427Y-75361301D01*
X127209996Y-75347154D01*
X127114666Y-75313797D01*
X127111932Y-75313489D01*
X127111928Y-75313488D01*
X127022450Y-75303406D01*
X126989247Y-75299665D01*
X126987096Y-75299374D01*
X126969000Y-75296508D01*
X126965193Y-75297111D01*
X126941288Y-75300897D01*
X126933623Y-75301500D01*
X121004377Y-75301500D01*
X120996712Y-75300897D01*
X120972807Y-75297111D01*
X120969000Y-75296508D01*
X120950904Y-75299374D01*
X120948753Y-75299665D01*
X120915550Y-75303406D01*
X120826072Y-75313488D01*
X120826068Y-75313489D01*
X120823334Y-75313797D01*
X120728004Y-75347154D01*
X120687573Y-75361301D01*
X120687571Y-75361302D01*
X120684973Y-75362211D01*
X120682643Y-75363675D01*
X120682641Y-75363676D01*
X120677009Y-75367215D01*
X120560854Y-75440201D01*
X120457201Y-75543854D01*
X120379211Y-75667973D01*
X120330797Y-75806334D01*
X120330489Y-75809068D01*
X120330488Y-75809072D01*
X120316666Y-75931745D01*
X120316374Y-75933904D01*
X120313508Y-75952000D01*
X120314111Y-75955807D01*
X120317897Y-75979712D01*
X120318500Y-75987377D01*
X120318500Y-77316623D01*
X120317897Y-77324288D01*
X120313508Y-77352000D01*
X120314111Y-77355806D01*
X120316371Y-77370076D01*
X120316665Y-77372247D01*
X120330797Y-77497666D01*
X120379211Y-77636027D01*
X120457201Y-77760146D01*
X120560854Y-77863799D01*
X120684973Y-77941789D01*
X120687571Y-77942698D01*
X120687573Y-77942699D01*
X120728004Y-77956846D01*
X120823334Y-77990203D01*
X120826068Y-77990511D01*
X120826072Y-77990512D01*
X120915549Y-78000594D01*
X120948753Y-78004335D01*
X120950904Y-78004626D01*
X120969000Y-78007492D01*
X120972807Y-78006889D01*
X120996712Y-78003103D01*
X121004377Y-78002500D01*
X126933623Y-78002500D01*
X126941289Y-78003103D01*
X126969000Y-78007492D01*
X126987096Y-78004626D01*
X126989247Y-78004335D01*
X127057717Y-77996620D01*
X127111934Y-77990511D01*
X127111935Y-77990511D01*
X127114221Y-77990253D01*
X127114667Y-77990203D01*
X127114722Y-77990690D01*
X127149648Y-77996620D01*
X127171352Y-78027204D01*
X127172582Y-78038131D01*
X127172336Y-78669312D01*
X127157984Y-78703941D01*
X124601477Y-81260448D01*
X124566829Y-81274800D01*
X123441187Y-81274800D01*
X123406539Y-81260448D01*
X123403360Y-81254004D01*
X123403360Y-81105882D01*
X121942860Y-79651860D01*
X117665793Y-79651860D01*
X117659397Y-79651441D01*
X117562288Y-79638656D01*
X117529810Y-79619904D01*
X117519684Y-79590076D01*
X117519554Y-73068788D01*
X117519549Y-72802000D01*
X119619000Y-72802000D01*
X120619000Y-72802000D01*
X120619000Y-71802000D01*
X119619000Y-71802000D01*
X119619000Y-72802000D01*
X117519549Y-72802000D01*
X117519500Y-70337375D01*
X117520103Y-70329709D01*
X117523889Y-70305807D01*
X117524492Y-70302000D01*
X117522613Y-70290136D01*
X117522318Y-70276986D01*
X117533913Y-70174084D01*
X117536355Y-70163387D01*
X117577046Y-70047098D01*
X117581806Y-70037213D01*
X117595282Y-70015765D01*
X117647356Y-69932890D01*
X117654196Y-69924314D01*
X117741314Y-69837196D01*
X117749890Y-69830356D01*
X117854212Y-69764806D01*
X117864098Y-69760046D01*
X117980387Y-69719355D01*
X117991084Y-69716913D01*
X117999952Y-69715914D01*
X118093988Y-69705318D01*
X118107136Y-69705613D01*
X118119000Y-69707492D01*
X118122807Y-69706889D01*
X118146712Y-69703103D01*
X118154377Y-69702500D01*
X163034623Y-69702500D01*
X163042289Y-69703103D01*
G37*
G04 #@! TD.AperFunction*
G04 #@! TA.AperFunction,Conductor*
G36*
X126342248Y-81004601D02*
G01*
X126356600Y-81039249D01*
X126356600Y-84984124D01*
X126342248Y-85018772D01*
X124187077Y-87173943D01*
X124182258Y-87178169D01*
X124086371Y-87251746D01*
X124075295Y-87258141D01*
X123966624Y-87303154D01*
X123954271Y-87306465D01*
X123834436Y-87322241D01*
X123828040Y-87322660D01*
X120068633Y-87322660D01*
X120062237Y-87322241D01*
X119942402Y-87306465D01*
X119930049Y-87303154D01*
X119821379Y-87258141D01*
X119810305Y-87251748D01*
X119716982Y-87180138D01*
X119707942Y-87171098D01*
X119636332Y-87077775D01*
X119629937Y-87066698D01*
X119584926Y-86958031D01*
X119581615Y-86945676D01*
X119565839Y-86825843D01*
X119565420Y-86819447D01*
X119565420Y-83385803D01*
X119565839Y-83379408D01*
X119581610Y-83259598D01*
X119584918Y-83247249D01*
X119629918Y-83138586D01*
X119636308Y-83127517D01*
X119707888Y-83034208D01*
X119716930Y-83025163D01*
X119810217Y-82953556D01*
X119821291Y-82947159D01*
X119829018Y-82943956D01*
X119929936Y-82902128D01*
X119942284Y-82898817D01*
X120014896Y-82889237D01*
X120062087Y-82883011D01*
X120068480Y-82882590D01*
X121484390Y-82882169D01*
X122903509Y-82881747D01*
X122903511Y-82881747D01*
X123403360Y-82881598D01*
X123403360Y-82324800D01*
X123417712Y-82290152D01*
X123452360Y-82275800D01*
X124732859Y-82275800D01*
X124743672Y-82277008D01*
X124753886Y-82279319D01*
X124757368Y-82279103D01*
X124809088Y-82275894D01*
X124812122Y-82275800D01*
X124830379Y-82275800D01*
X124843550Y-82273914D01*
X124847456Y-82273513D01*
X124896977Y-82270441D01*
X124900256Y-82269257D01*
X124900262Y-82269256D01*
X124911445Y-82265219D01*
X124921135Y-82262803D01*
X124932901Y-82261118D01*
X124932902Y-82261118D01*
X124936357Y-82260623D01*
X124947620Y-82255502D01*
X124981522Y-82240088D01*
X124985165Y-82238605D01*
X125028539Y-82222947D01*
X125028541Y-82222946D01*
X125031826Y-82221760D01*
X125044240Y-82212691D01*
X125052862Y-82207653D01*
X125063689Y-82202730D01*
X125063694Y-82202727D01*
X125066867Y-82201284D01*
X125069507Y-82199009D01*
X125069509Y-82199008D01*
X125104457Y-82168894D01*
X125107519Y-82166462D01*
X125120775Y-82156778D01*
X125133540Y-82144013D01*
X125136203Y-82141540D01*
X125172830Y-82109980D01*
X125175476Y-82107700D01*
X125183025Y-82096053D01*
X125189492Y-82088061D01*
X126272952Y-81004601D01*
X126307600Y-80990249D01*
X126342248Y-81004601D01*
G37*
G04 #@! TD.AperFunction*
M02*
